<?xml version="1.0" encoding="UTF-8" standalone="no"?>
<!DOCTYPE svg PUBLIC "-//W3C//DTD SVG 1.1//EN"
 "http://www.w3.org/Graphics/SVG/1.1/DTD/svg11.dtd">
<!-- Generated by graphviz version 2.43.0 (0)
 -->
<!-- Title: %3 Pages: 1 -->
<svg width="1491pt" height="1545pt"
 viewBox="0.00 0.00 1491.39 1545.37" xmlns="http://www.w3.org/2000/svg" xmlns:xlink="http://www.w3.org/1999/xlink">
<g id="graph0" class="graph" transform="scale(1 1) rotate(0) translate(4 1541.37)">
<title>%3</title>
<polygon fill="white" stroke="transparent" points="-4,4 -4,-1541.37 1487.39,-1541.37 1487.39,4 -4,4"/>
<!-- person -->
<g id="person" class="node">
<title>person</title>
<polygon fill="#b3e2cd" stroke="transparent" points="877.9,-741.04 593.9,-741.04 593.9,-580.04 877.9,-580.04 877.9,-741.04"/>
<polygon fill="none" stroke="black" points="601.9,-708.54 601.9,-736.54 869.9,-736.54 869.9,-708.54 601.9,-708.54"/>
<text text-anchor="start" x="704.4" y="-719.74" font-family="Helvetica,sans-Serif" font-weight="bold" font-size="16.00">person</text>
<polygon fill="none" stroke="black" points="601.9,-683.54 601.9,-708.54 629.9,-708.54 629.9,-683.54 601.9,-683.54"/>
<text text-anchor="start" x="606.9" y="-692.34" font-family="Helvetica,sans-Serif" font-size="14.00">PK</text>
<polygon fill="none" stroke="black" points="629.9,-683.54 629.9,-708.54 783.9,-708.54 783.9,-683.54 629.9,-683.54"/>
<text text-anchor="start" x="634.9" y="-692.34" font-family="Helvetica,sans-Serif" font-size="14.00">unique_id</text>
<polygon fill="none" stroke="black" points="783.9,-683.54 783.9,-708.54 869.9,-708.54 869.9,-683.54 783.9,-683.54"/>
<text text-anchor="start" x="806.4" y="-692.34" font-family="Helvetica,sans-Serif" font-size="14.00">string</text>
<polygon fill="none" stroke="black" points="601.9,-658.54 601.9,-683.54 629.9,-683.54 629.9,-658.54 601.9,-658.54"/>
<polygon fill="none" stroke="black" points="629.9,-658.54 629.9,-683.54 783.9,-683.54 783.9,-658.54 629.9,-658.54"/>
<text text-anchor="start" x="634.9" y="-667.34" font-family="Helvetica,sans-Serif" font-size="14.00">year_of_birth</text>
<polygon fill="none" stroke="black" points="783.9,-658.54 783.9,-683.54 869.9,-683.54 869.9,-658.54 783.9,-658.54"/>
<text text-anchor="start" x="811.4" y="-667.34" font-family="Helvetica,sans-Serif" font-size="14.00">year</text>
<polygon fill="none" stroke="black" points="601.9,-633.54 601.9,-658.54 629.9,-658.54 629.9,-633.54 601.9,-633.54"/>
<polygon fill="none" stroke="black" points="629.9,-633.54 629.9,-658.54 783.9,-658.54 783.9,-633.54 629.9,-633.54"/>
<text text-anchor="start" x="634.9" y="-642.34" font-family="Helvetica,sans-Serif" font-size="14.00">gender</text>
<polygon fill="none" stroke="black" points="783.9,-633.54 783.9,-658.54 869.9,-658.54 869.9,-633.54 783.9,-633.54"/>
<text text-anchor="start" x="788.9" y="-642.34" font-family="Helvetica,sans-Serif" font-size="14.00">categorical</text>
<polygon fill="none" stroke="black" points="601.9,-608.54 601.9,-633.54 629.9,-633.54 629.9,-608.54 601.9,-608.54"/>
<polygon fill="none" stroke="black" points="629.9,-608.54 629.9,-633.54 783.9,-633.54 783.9,-608.54 629.9,-608.54"/>
<text text-anchor="start" x="634.9" y="-617.34" font-family="Helvetica,sans-Serif" font-size="14.00">dispersal_area</text>
<polygon fill="none" stroke="black" points="783.9,-608.54 783.9,-633.54 869.9,-633.54 869.9,-608.54 783.9,-608.54"/>
<text text-anchor="start" x="806.4" y="-617.34" font-family="Helvetica,sans-Serif" font-size="14.00">string</text>
<polygon fill="none" stroke="black" points="601.9,-583.54 601.9,-608.54 629.9,-608.54 629.9,-583.54 601.9,-583.54"/>
<polygon fill="none" stroke="black" points="629.9,-583.54 629.9,-608.54 783.9,-608.54 783.9,-583.54 629.9,-583.54"/>
<text text-anchor="start" x="634.9" y="-592.34" font-family="Helvetica,sans-Serif" font-size="14.00">date_started_service</text>
<polygon fill="none" stroke="black" points="783.9,-583.54 783.9,-608.54 869.9,-608.54 869.9,-583.54 783.9,-583.54"/>
<text text-anchor="start" x="811.4" y="-592.34" font-family="Helvetica,sans-Serif" font-size="14.00">date</text>
</g>
<!-- housing_entry -->
<g id="housing_entry" class="node">
<title>housing_entry</title>
<polygon fill="#fdcdac" stroke="transparent" points="1483.39,-716.04 1140.39,-716.04 1140.39,-605.04 1483.39,-605.04 1483.39,-716.04"/>
<polygon fill="none" stroke="black" points="1148.89,-683.54 1148.89,-711.54 1475.89,-711.54 1475.89,-683.54 1148.89,-683.54"/>
<text text-anchor="start" x="1248.39" y="-694.74" font-family="Helvetica,sans-Serif" font-weight="bold" font-size="16.00">housing_entry</text>
<polygon fill="none" stroke="black" points="1148.89,-658.54 1148.89,-683.54 1176.89,-683.54 1176.89,-658.54 1148.89,-658.54"/>
<text text-anchor="start" x="1153.89" y="-667.34" font-family="Helvetica,sans-Serif" font-size="14.00">PK</text>
<polygon fill="none" stroke="black" points="1176.89,-658.54 1176.89,-683.54 1389.89,-683.54 1389.89,-658.54 1176.89,-658.54"/>
<text text-anchor="start" x="1181.89" y="-667.34" font-family="Helvetica,sans-Serif" font-size="14.00">unique_id</text>
<polygon fill="none" stroke="black" points="1389.89,-658.54 1389.89,-683.54 1475.89,-683.54 1475.89,-658.54 1389.89,-658.54"/>
<text text-anchor="start" x="1412.39" y="-667.34" font-family="Helvetica,sans-Serif" font-size="14.00">string</text>
<polygon fill="none" stroke="black" points="1148.89,-633.54 1148.89,-658.54 1176.89,-658.54 1176.89,-633.54 1148.89,-633.54"/>
<polygon fill="none" stroke="black" points="1176.89,-633.54 1176.89,-658.54 1389.89,-658.54 1389.89,-633.54 1176.89,-633.54"/>
<text text-anchor="start" x="1181.89" y="-642.34" font-family="Helvetica,sans-Serif" font-size="14.00">housing_entry_date</text>
<polygon fill="none" stroke="black" points="1389.89,-633.54 1389.89,-658.54 1475.89,-658.54 1475.89,-633.54 1389.89,-633.54"/>
<text text-anchor="start" x="1417.39" y="-642.34" font-family="Helvetica,sans-Serif" font-size="14.00">date</text>
<polygon fill="none" stroke="black" points="1148.89,-608.54 1148.89,-633.54 1176.89,-633.54 1176.89,-608.54 1148.89,-608.54"/>
<polygon fill="none" stroke="black" points="1176.89,-608.54 1176.89,-633.54 1389.89,-633.54 1389.89,-608.54 1176.89,-608.54"/>
<text text-anchor="start" x="1181.89" y="-617.34" font-family="Helvetica,sans-Serif" font-size="14.00">housing_entry_accomodation</text>
<polygon fill="none" stroke="black" points="1389.89,-608.54 1389.89,-633.54 1475.89,-633.54 1475.89,-608.54 1389.89,-608.54"/>
<text text-anchor="start" x="1394.89" y="-617.34" font-family="Helvetica,sans-Serif" font-size="14.00">categorical</text>
</g>
<!-- housing_entry&#45;&#45;person -->
<g id="housing_entry&#45;&#45;person" class="edge">
<title>housing_entry&#45;&#45;person</title>
<path fill="none" stroke="#7f7f7f" stroke-dasharray="5,2" d="M1140.24,-660.54C1056.69,-660.54 957.44,-660.54 878.18,-660.54"/>
<text text-anchor="middle" x="883.18" y="-664.34" font-family="Times,serif" font-size="14.00">1</text>
<text text-anchor="middle" x="1128.74" y="-664.34" font-family="Times,serif" font-size="14.00">0,1</text>
</g>
<!-- housing_sustain -->
<g id="housing_sustain" class="node">
<title>housing_sustain</title>
<polygon fill="#fdcdac" stroke="transparent" points="1342.59,-1101.28 985.59,-1101.28 985.59,-990.28 1342.59,-990.28 1342.59,-1101.28"/>
<polygon fill="none" stroke="black" points="994.09,-1068.78 994.09,-1096.78 1335.09,-1096.78 1335.09,-1068.78 994.09,-1068.78"/>
<text text-anchor="start" x="1092.09" y="-1079.98" font-family="Helvetica,sans-Serif" font-weight="bold" font-size="16.00">housing_sustain</text>
<polygon fill="none" stroke="black" points="994.09,-1043.78 994.09,-1068.78 1022.09,-1068.78 1022.09,-1043.78 994.09,-1043.78"/>
<text text-anchor="start" x="999.09" y="-1052.58" font-family="Helvetica,sans-Serif" font-size="14.00">PK</text>
<polygon fill="none" stroke="black" points="1022.09,-1043.78 1022.09,-1068.78 1249.09,-1068.78 1249.09,-1043.78 1022.09,-1043.78"/>
<text text-anchor="start" x="1027.09" y="-1052.58" font-family="Helvetica,sans-Serif" font-size="14.00">unique_id</text>
<polygon fill="none" stroke="black" points="1249.09,-1043.78 1249.09,-1068.78 1335.09,-1068.78 1335.09,-1043.78 1249.09,-1043.78"/>
<text text-anchor="start" x="1271.59" y="-1052.58" font-family="Helvetica,sans-Serif" font-size="14.00">string</text>
<polygon fill="none" stroke="black" points="994.09,-1018.78 994.09,-1043.78 1022.09,-1043.78 1022.09,-1018.78 994.09,-1018.78"/>
<polygon fill="none" stroke="black" points="1022.09,-1018.78 1022.09,-1043.78 1249.09,-1043.78 1249.09,-1018.78 1022.09,-1018.78"/>
<text text-anchor="start" x="1027.09" y="-1027.58" font-family="Helvetica,sans-Serif" font-size="14.00">housing_sustainment_date</text>
<polygon fill="none" stroke="black" points="1249.09,-1018.78 1249.09,-1043.78 1335.09,-1043.78 1335.09,-1018.78 1249.09,-1018.78"/>
<text text-anchor="start" x="1276.59" y="-1027.58" font-family="Helvetica,sans-Serif" font-size="14.00">date</text>
<polygon fill="none" stroke="black" points="994.09,-993.78 994.09,-1018.78 1022.09,-1018.78 1022.09,-993.78 994.09,-993.78"/>
<polygon fill="none" stroke="black" points="1022.09,-993.78 1022.09,-1018.78 1249.09,-1018.78 1249.09,-993.78 1022.09,-993.78"/>
<text text-anchor="start" x="1027.09" y="-1002.58" font-family="Helvetica,sans-Serif" font-size="14.00">housing_sustain_accomodation</text>
<polygon fill="none" stroke="black" points="1249.09,-993.78 1249.09,-1018.78 1335.09,-1018.78 1335.09,-993.78 1249.09,-993.78"/>
<text text-anchor="start" x="1254.09" y="-1002.58" font-family="Helvetica,sans-Serif" font-size="14.00">categorical</text>
</g>
<!-- housing_sustain&#45;&#45;person -->
<g id="housing_sustain&#45;&#45;person" class="edge">
<title>housing_sustain&#45;&#45;person</title>
<path fill="none" stroke="#7f7f7f" stroke-dasharray="5,2" d="M1102.28,-990.17C1029.68,-924.85 908.62,-815.94 825.67,-741.3"/>
<text text-anchor="middle" x="820.67" y="-745.1" font-family="Times,serif" font-size="14.00">1</text>
<text text-anchor="middle" x="1090.78" y="-978.97" font-family="Times,serif" font-size="14.00">0,1</text>
</g>
<!-- baseline -->
<g id="baseline" class="node">
<title>baseline</title>
<polygon fill="#cbd5e8" stroke="transparent" points="851.85,-1537.37 473.85,-1537.37 473.85,-926.37 851.85,-926.37 851.85,-1537.37"/>
<polygon fill="none" stroke="black" points="481.85,-1504.87 481.85,-1532.87 843.85,-1532.87 843.85,-1504.87 481.85,-1504.87"/>
<text text-anchor="start" x="625.35" y="-1516.07" font-family="Helvetica,sans-Serif" font-weight="bold" font-size="16.00">baseline</text>
<polygon fill="none" stroke="black" points="481.85,-1479.87 481.85,-1504.87 509.85,-1504.87 509.85,-1479.87 481.85,-1479.87"/>
<text text-anchor="start" x="486.85" y="-1488.67" font-family="Helvetica,sans-Serif" font-size="14.00">PK</text>
<polygon fill="none" stroke="black" points="509.85,-1479.87 509.85,-1504.87 757.85,-1504.87 757.85,-1479.87 509.85,-1479.87"/>
<text text-anchor="start" x="514.85" y="-1488.67" font-family="Helvetica,sans-Serif" font-size="14.00">unique_id</text>
<polygon fill="none" stroke="black" points="757.85,-1479.87 757.85,-1504.87 843.85,-1504.87 843.85,-1479.87 757.85,-1479.87"/>
<text text-anchor="start" x="780.35" y="-1488.67" font-family="Helvetica,sans-Serif" font-size="14.00">string</text>
<polygon fill="none" stroke="black" points="481.85,-1454.87 481.85,-1479.87 509.85,-1479.87 509.85,-1454.87 481.85,-1454.87"/>
<polygon fill="none" stroke="black" points="509.85,-1454.87 509.85,-1479.87 757.85,-1479.87 757.85,-1454.87 509.85,-1454.87"/>
<text text-anchor="start" x="514.85" y="-1463.67" font-family="Helvetica,sans-Serif" font-size="14.00">ni_number</text>
<polygon fill="none" stroke="black" points="757.85,-1454.87 757.85,-1479.87 843.85,-1479.87 843.85,-1454.87 757.85,-1454.87"/>
<text text-anchor="start" x="780.35" y="-1463.67" font-family="Helvetica,sans-Serif" font-size="14.00">string</text>
<polygon fill="none" stroke="black" points="481.85,-1429.87 481.85,-1454.87 509.85,-1454.87 509.85,-1429.87 481.85,-1429.87"/>
<polygon fill="none" stroke="black" points="509.85,-1429.87 509.85,-1454.87 757.85,-1454.87 757.85,-1429.87 509.85,-1429.87"/>
<text text-anchor="start" x="514.85" y="-1438.67" font-family="Helvetica,sans-Serif" font-size="14.00">nationality</text>
<polygon fill="none" stroke="black" points="757.85,-1429.87 757.85,-1454.87 843.85,-1454.87 843.85,-1429.87 757.85,-1429.87"/>
<text text-anchor="start" x="762.85" y="-1438.67" font-family="Helvetica,sans-Serif" font-size="14.00">categorical</text>
<polygon fill="none" stroke="black" points="481.85,-1404.87 481.85,-1429.87 509.85,-1429.87 509.85,-1404.87 481.85,-1404.87"/>
<polygon fill="none" stroke="black" points="509.85,-1404.87 509.85,-1429.87 757.85,-1429.87 757.85,-1404.87 509.85,-1404.87"/>
<text text-anchor="start" x="514.85" y="-1413.67" font-family="Helvetica,sans-Serif" font-size="14.00">referral_source</text>
<polygon fill="none" stroke="black" points="757.85,-1404.87 757.85,-1429.87 843.85,-1429.87 843.85,-1404.87 757.85,-1404.87"/>
<text text-anchor="start" x="762.85" y="-1413.67" font-family="Helvetica,sans-Serif" font-size="14.00">categorical</text>
<polygon fill="none" stroke="black" points="481.85,-1379.87 481.85,-1404.87 509.85,-1404.87 509.85,-1379.87 481.85,-1379.87"/>
<polygon fill="none" stroke="black" points="509.85,-1379.87 509.85,-1404.87 757.85,-1404.87 757.85,-1379.87 509.85,-1379.87"/>
<text text-anchor="start" x="514.85" y="-1388.67" font-family="Helvetica,sans-Serif" font-size="14.00">transgender</text>
<polygon fill="none" stroke="black" points="757.85,-1379.87 757.85,-1404.87 843.85,-1404.87 843.85,-1379.87 757.85,-1379.87"/>
<text text-anchor="start" x="762.85" y="-1388.67" font-family="Helvetica,sans-Serif" font-size="14.00">categorical</text>
<polygon fill="none" stroke="black" points="481.85,-1354.87 481.85,-1379.87 509.85,-1379.87 509.85,-1354.87 481.85,-1354.87"/>
<polygon fill="none" stroke="black" points="509.85,-1354.87 509.85,-1379.87 757.85,-1379.87 757.85,-1354.87 509.85,-1354.87"/>
<text text-anchor="start" x="514.85" y="-1363.67" font-family="Helvetica,sans-Serif" font-size="14.00">current_dependents_uk</text>
<polygon fill="none" stroke="black" points="757.85,-1354.87 757.85,-1379.87 843.85,-1379.87 843.85,-1354.87 757.85,-1354.87"/>
<text text-anchor="start" x="762.85" y="-1363.67" font-family="Helvetica,sans-Serif" font-size="14.00">categorical</text>
<polygon fill="none" stroke="black" points="481.85,-1329.87 481.85,-1354.87 509.85,-1354.87 509.85,-1329.87 481.85,-1329.87"/>
<polygon fill="none" stroke="black" points="509.85,-1329.87 509.85,-1354.87 757.85,-1354.87 757.85,-1329.87 509.85,-1329.87"/>
<text text-anchor="start" x="514.85" y="-1338.67" font-family="Helvetica,sans-Serif" font-size="14.00">age_profile_of_dependents_uk</text>
<polygon fill="none" stroke="black" points="757.85,-1329.87 757.85,-1354.87 843.85,-1354.87 843.85,-1329.87 757.85,-1329.87"/>
<text text-anchor="start" x="790.35" y="-1338.67" font-family="Helvetica,sans-Serif" font-size="14.00">list</text>
<polygon fill="none" stroke="black" points="481.85,-1304.87 481.85,-1329.87 509.85,-1329.87 509.85,-1304.87 481.85,-1304.87"/>
<polygon fill="none" stroke="black" points="509.85,-1304.87 509.85,-1329.87 757.85,-1329.87 757.85,-1304.87 509.85,-1304.87"/>
<text text-anchor="start" x="514.85" y="-1313.67" font-family="Helvetica,sans-Serif" font-size="14.00">date_arrived_in_uk</text>
<polygon fill="none" stroke="black" points="757.85,-1304.87 757.85,-1329.87 843.85,-1329.87 843.85,-1304.87 757.85,-1304.87"/>
<text text-anchor="start" x="785.35" y="-1313.67" font-family="Helvetica,sans-Serif" font-size="14.00">date</text>
<polygon fill="none" stroke="black" points="481.85,-1279.87 481.85,-1304.87 509.85,-1304.87 509.85,-1279.87 481.85,-1279.87"/>
<polygon fill="none" stroke="black" points="509.85,-1279.87 509.85,-1304.87 757.85,-1304.87 757.85,-1279.87 509.85,-1279.87"/>
<text text-anchor="start" x="514.85" y="-1288.67" font-family="Helvetica,sans-Serif" font-size="14.00">date_asylum_status_granted</text>
<polygon fill="none" stroke="black" points="757.85,-1279.87 757.85,-1304.87 843.85,-1304.87 843.85,-1279.87 757.85,-1279.87"/>
<text text-anchor="start" x="785.35" y="-1288.67" font-family="Helvetica,sans-Serif" font-size="14.00">date</text>
<polygon fill="none" stroke="black" points="481.85,-1254.87 481.85,-1279.87 509.85,-1279.87 509.85,-1254.87 481.85,-1254.87"/>
<polygon fill="none" stroke="black" points="509.85,-1254.87 509.85,-1279.87 757.85,-1279.87 757.85,-1254.87 509.85,-1254.87"/>
<text text-anchor="start" x="514.85" y="-1263.67" font-family="Helvetica,sans-Serif" font-size="14.00">language_level_on_entry</text>
<polygon fill="none" stroke="black" points="757.85,-1254.87 757.85,-1279.87 843.85,-1279.87 843.85,-1254.87 757.85,-1254.87"/>
<text text-anchor="start" x="762.85" y="-1263.67" font-family="Helvetica,sans-Serif" font-size="14.00">categorical</text>
<polygon fill="none" stroke="black" points="481.85,-1229.87 481.85,-1254.87 509.85,-1254.87 509.85,-1229.87 481.85,-1229.87"/>
<polygon fill="none" stroke="black" points="509.85,-1229.87 509.85,-1254.87 757.85,-1254.87 757.85,-1229.87 509.85,-1229.87"/>
<text text-anchor="start" x="514.85" y="-1238.67" font-family="Helvetica,sans-Serif" font-size="14.00">highest_qualification_achieved</text>
<polygon fill="none" stroke="black" points="757.85,-1229.87 757.85,-1254.87 843.85,-1254.87 843.85,-1229.87 757.85,-1229.87"/>
<text text-anchor="start" x="762.85" y="-1238.67" font-family="Helvetica,sans-Serif" font-size="14.00">categorical</text>
<polygon fill="none" stroke="black" points="481.85,-1204.87 481.85,-1229.87 509.85,-1229.87 509.85,-1204.87 481.85,-1204.87"/>
<polygon fill="none" stroke="black" points="509.85,-1204.87 509.85,-1229.87 757.85,-1229.87 757.85,-1204.87 509.85,-1204.87"/>
<text text-anchor="start" x="514.85" y="-1213.67" font-family="Helvetica,sans-Serif" font-size="14.00">age_finished_study</text>
<polygon fill="none" stroke="black" points="757.85,-1204.87 757.85,-1229.87 843.85,-1229.87 843.85,-1204.87 757.85,-1204.87"/>
<text text-anchor="start" x="775.85" y="-1213.67" font-family="Helvetica,sans-Serif" font-size="14.00">integer</text>
<polygon fill="none" stroke="black" points="481.85,-1179.87 481.85,-1204.87 509.85,-1204.87 509.85,-1179.87 481.85,-1179.87"/>
<polygon fill="none" stroke="black" points="509.85,-1179.87 509.85,-1204.87 757.85,-1204.87 757.85,-1179.87 509.85,-1179.87"/>
<text text-anchor="start" x="514.85" y="-1188.67" font-family="Helvetica,sans-Serif" font-size="14.00">employed_in_home_country</text>
<polygon fill="none" stroke="black" points="757.85,-1179.87 757.85,-1204.87 843.85,-1204.87 843.85,-1179.87 757.85,-1179.87"/>
<text text-anchor="start" x="762.85" y="-1188.67" font-family="Helvetica,sans-Serif" font-size="14.00">categorical</text>
<polygon fill="none" stroke="black" points="481.85,-1154.87 481.85,-1179.87 509.85,-1179.87 509.85,-1154.87 481.85,-1154.87"/>
<polygon fill="none" stroke="black" points="509.85,-1154.87 509.85,-1179.87 757.85,-1179.87 757.85,-1154.87 509.85,-1154.87"/>
<text text-anchor="start" x="514.85" y="-1163.67" font-family="Helvetica,sans-Serif" font-size="14.00">occupation_type</text>
<polygon fill="none" stroke="black" points="757.85,-1154.87 757.85,-1179.87 843.85,-1179.87 843.85,-1154.87 757.85,-1154.87"/>
<text text-anchor="start" x="780.35" y="-1163.67" font-family="Helvetica,sans-Serif" font-size="14.00">string</text>
<polygon fill="none" stroke="black" points="481.85,-1129.87 481.85,-1154.87 509.85,-1154.87 509.85,-1129.87 481.85,-1129.87"/>
<polygon fill="none" stroke="black" points="509.85,-1129.87 509.85,-1154.87 757.85,-1154.87 757.85,-1129.87 509.85,-1129.87"/>
<text text-anchor="start" x="514.85" y="-1138.67" font-family="Helvetica,sans-Serif" font-size="14.00">occupation_sector</text>
<polygon fill="none" stroke="black" points="757.85,-1129.87 757.85,-1154.87 843.85,-1154.87 843.85,-1129.87 757.85,-1129.87"/>
<text text-anchor="start" x="780.35" y="-1138.67" font-family="Helvetica,sans-Serif" font-size="14.00">string</text>
<polygon fill="none" stroke="black" points="481.85,-1104.87 481.85,-1129.87 509.85,-1129.87 509.85,-1104.87 481.85,-1104.87"/>
<polygon fill="none" stroke="black" points="509.85,-1104.87 509.85,-1129.87 757.85,-1129.87 757.85,-1104.87 509.85,-1104.87"/>
<text text-anchor="start" x="514.85" y="-1113.67" font-family="Helvetica,sans-Serif" font-size="14.00">occupation_goal</text>
<polygon fill="none" stroke="black" points="757.85,-1104.87 757.85,-1129.87 843.85,-1129.87 843.85,-1104.87 757.85,-1104.87"/>
<text text-anchor="start" x="780.35" y="-1113.67" font-family="Helvetica,sans-Serif" font-size="14.00">string</text>
<polygon fill="none" stroke="black" points="481.85,-1079.87 481.85,-1104.87 509.85,-1104.87 509.85,-1079.87 481.85,-1079.87"/>
<polygon fill="none" stroke="black" points="509.85,-1079.87 509.85,-1104.87 757.85,-1104.87 757.85,-1079.87 509.85,-1079.87"/>
<text text-anchor="start" x="514.85" y="-1088.67" font-family="Helvetica,sans-Serif" font-size="14.00">prior_employment</text>
<polygon fill="none" stroke="black" points="757.85,-1079.87 757.85,-1104.87 843.85,-1104.87 843.85,-1079.87 757.85,-1079.87"/>
<text text-anchor="start" x="762.85" y="-1088.67" font-family="Helvetica,sans-Serif" font-size="14.00">categorical</text>
<polygon fill="none" stroke="black" points="481.85,-1054.87 481.85,-1079.87 509.85,-1079.87 509.85,-1054.87 481.85,-1054.87"/>
<polygon fill="none" stroke="black" points="509.85,-1054.87 509.85,-1079.87 757.85,-1079.87 757.85,-1054.87 509.85,-1054.87"/>
<text text-anchor="start" x="514.85" y="-1063.67" font-family="Helvetica,sans-Serif" font-size="14.00">employment_status</text>
<polygon fill="none" stroke="black" points="757.85,-1054.87 757.85,-1079.87 843.85,-1079.87 843.85,-1054.87 757.85,-1054.87"/>
<text text-anchor="start" x="762.85" y="-1063.67" font-family="Helvetica,sans-Serif" font-size="14.00">categorical</text>
<polygon fill="none" stroke="black" points="481.85,-1029.87 481.85,-1054.87 509.85,-1054.87 509.85,-1029.87 481.85,-1029.87"/>
<polygon fill="none" stroke="black" points="509.85,-1029.87 509.85,-1054.87 757.85,-1054.87 757.85,-1029.87 509.85,-1029.87"/>
<text text-anchor="start" x="514.85" y="-1038.67" font-family="Helvetica,sans-Serif" font-size="14.00">hours_of_employment</text>
<polygon fill="none" stroke="black" points="757.85,-1029.87 757.85,-1054.87 843.85,-1054.87 843.85,-1029.87 757.85,-1029.87"/>
<text text-anchor="start" x="762.85" y="-1038.67" font-family="Helvetica,sans-Serif" font-size="14.00">categorical</text>
<polygon fill="none" stroke="black" points="481.85,-1004.87 481.85,-1029.87 509.85,-1029.87 509.85,-1004.87 481.85,-1004.87"/>
<polygon fill="none" stroke="black" points="509.85,-1004.87 509.85,-1029.87 757.85,-1029.87 757.85,-1004.87 509.85,-1004.87"/>
<text text-anchor="start" x="514.85" y="-1013.67" font-family="Helvetica,sans-Serif" font-size="14.00">wage_baseline</text>
<polygon fill="none" stroke="black" points="757.85,-1004.87 757.85,-1029.87 843.85,-1029.87 843.85,-1004.87 757.85,-1004.87"/>
<text text-anchor="start" x="762.85" y="-1013.67" font-family="Helvetica,sans-Serif" font-size="14.00">categorical</text>
<polygon fill="none" stroke="black" points="481.85,-979.87 481.85,-1004.87 509.85,-1004.87 509.85,-979.87 481.85,-979.87"/>
<polygon fill="none" stroke="black" points="509.85,-979.87 509.85,-1004.87 757.85,-1004.87 757.85,-979.87 509.85,-979.87"/>
<text text-anchor="start" x="514.85" y="-988.67" font-family="Helvetica,sans-Serif" font-size="14.00">eduction_training_status</text>
<polygon fill="none" stroke="black" points="757.85,-979.87 757.85,-1004.87 843.85,-1004.87 843.85,-979.87 757.85,-979.87"/>
<text text-anchor="start" x="762.85" y="-988.67" font-family="Helvetica,sans-Serif" font-size="14.00">categorical</text>
<polygon fill="none" stroke="black" points="481.85,-954.87 481.85,-979.87 509.85,-979.87 509.85,-954.87 481.85,-954.87"/>
<polygon fill="none" stroke="black" points="509.85,-954.87 509.85,-979.87 757.85,-979.87 757.85,-954.87 509.85,-954.87"/>
<text text-anchor="start" x="514.85" y="-963.67" font-family="Helvetica,sans-Serif" font-size="14.00">housing_baseline_accommodation</text>
<polygon fill="none" stroke="black" points="757.85,-954.87 757.85,-979.87 843.85,-979.87 843.85,-954.87 757.85,-954.87"/>
<text text-anchor="start" x="762.85" y="-963.67" font-family="Helvetica,sans-Serif" font-size="14.00">categorical</text>
<polygon fill="none" stroke="black" points="481.85,-929.87 481.85,-954.87 509.85,-954.87 509.85,-929.87 481.85,-929.87"/>
<polygon fill="none" stroke="black" points="509.85,-929.87 509.85,-954.87 757.85,-954.87 757.85,-929.87 509.85,-929.87"/>
<text text-anchor="start" x="514.85" y="-938.67" font-family="Helvetica,sans-Serif" font-size="14.00">homelessness_baseline</text>
<polygon fill="none" stroke="black" points="757.85,-929.87 757.85,-954.87 843.85,-954.87 843.85,-929.87 757.85,-929.87"/>
<text text-anchor="start" x="762.85" y="-938.67" font-family="Helvetica,sans-Serif" font-size="14.00">categorical</text>
</g>
<!-- baseline&#45;&#45;person -->
<g id="baseline&#45;&#45;person" class="edge">
<title>baseline&#45;&#45;person</title>
<path fill="none" stroke="#7f7f7f" stroke-dasharray="5,2" d="M701.94,-926.13C710.7,-857.68 719.25,-790.77 725.59,-741.24"/>
<text text-anchor="middle" x="720.59" y="-745.04" font-family="Times,serif" font-size="14.00">1</text>
<text text-anchor="middle" x="690.44" y="-914.93" font-family="Times,serif" font-size="14.00">0,1</text>
</g>
<!-- integration_plan -->
<g id="integration_plan" class="node">
<title>integration_plan</title>
<polygon fill="#cbd5e8" stroke="transparent" points="412.18,-1003.9 22.18,-1003.9 22.18,-817.9 412.18,-817.9 412.18,-1003.9"/>
<polygon fill="none" stroke="black" points="30.18,-971.9 30.18,-999.9 404.18,-999.9 404.18,-971.9 30.18,-971.9"/>
<text text-anchor="start" x="143.68" y="-983.1" font-family="Helvetica,sans-Serif" font-weight="bold" font-size="16.00">integration_plan</text>
<polygon fill="none" stroke="black" points="30.18,-946.9 30.18,-971.9 58.18,-971.9 58.18,-946.9 30.18,-946.9"/>
<text text-anchor="start" x="35.18" y="-955.7" font-family="Helvetica,sans-Serif" font-size="14.00">PK</text>
<polygon fill="none" stroke="black" points="58.18,-946.9 58.18,-971.9 318.18,-971.9 318.18,-946.9 58.18,-946.9"/>
<text text-anchor="start" x="63.18" y="-955.7" font-family="Helvetica,sans-Serif" font-size="14.00">unique_id</text>
<polygon fill="none" stroke="black" points="318.18,-946.9 318.18,-971.9 404.18,-971.9 404.18,-946.9 318.18,-946.9"/>
<text text-anchor="start" x="340.68" y="-955.7" font-family="Helvetica,sans-Serif" font-size="14.00">string</text>
<polygon fill="none" stroke="black" points="30.18,-921.9 30.18,-946.9 58.18,-946.9 58.18,-921.9 30.18,-921.9"/>
<text text-anchor="start" x="35.18" y="-930.7" font-family="Helvetica,sans-Serif" font-size="14.00">PK</text>
<polygon fill="none" stroke="black" points="58.18,-921.9 58.18,-946.9 318.18,-946.9 318.18,-921.9 58.18,-921.9"/>
<text text-anchor="start" x="63.18" y="-930.7" font-family="Helvetica,sans-Serif" font-size="14.00">integration_outcome_type</text>
<polygon fill="none" stroke="black" points="318.18,-921.9 318.18,-946.9 404.18,-946.9 404.18,-921.9 318.18,-921.9"/>
<text text-anchor="start" x="323.18" y="-930.7" font-family="Helvetica,sans-Serif" font-size="14.00">categorical</text>
<polygon fill="none" stroke="black" points="30.18,-896.9 30.18,-921.9 58.18,-921.9 58.18,-896.9 30.18,-896.9"/>
<polygon fill="none" stroke="black" points="58.18,-896.9 58.18,-921.9 318.18,-921.9 318.18,-896.9 58.18,-896.9"/>
<text text-anchor="start" x="63.18" y="-905.7" font-family="Helvetica,sans-Serif" font-size="14.00">integration_outcome_achieved_date</text>
<polygon fill="none" stroke="black" points="318.18,-896.9 318.18,-921.9 404.18,-921.9 404.18,-896.9 318.18,-896.9"/>
<text text-anchor="start" x="345.68" y="-905.7" font-family="Helvetica,sans-Serif" font-size="14.00">date</text>
<polygon fill="none" stroke="black" points="30.18,-871.9 30.18,-896.9 58.18,-896.9 58.18,-871.9 30.18,-871.9"/>
<polygon fill="none" stroke="black" points="58.18,-871.9 58.18,-896.9 318.18,-896.9 318.18,-871.9 58.18,-871.9"/>
<text text-anchor="start" x="63.18" y="-880.7" font-family="Helvetica,sans-Serif" font-size="14.00">integration_social</text>
<polygon fill="none" stroke="black" points="318.18,-871.9 318.18,-896.9 404.18,-896.9 404.18,-871.9 318.18,-871.9"/>
<text text-anchor="start" x="323.18" y="-880.7" font-family="Helvetica,sans-Serif" font-size="14.00">categorical</text>
<polygon fill="none" stroke="black" points="30.18,-846.9 30.18,-871.9 58.18,-871.9 58.18,-846.9 30.18,-846.9"/>
<polygon fill="none" stroke="black" points="58.18,-846.9 58.18,-871.9 318.18,-871.9 318.18,-846.9 58.18,-846.9"/>
<text text-anchor="start" x="63.18" y="-855.7" font-family="Helvetica,sans-Serif" font-size="14.00">integration_comms_language</text>
<polygon fill="none" stroke="black" points="318.18,-846.9 318.18,-871.9 404.18,-871.9 404.18,-846.9 318.18,-846.9"/>
<text text-anchor="start" x="323.18" y="-855.7" font-family="Helvetica,sans-Serif" font-size="14.00">categorical</text>
<polygon fill="none" stroke="black" points="30.18,-821.9 30.18,-846.9 58.18,-846.9 58.18,-821.9 30.18,-821.9"/>
<polygon fill="none" stroke="black" points="58.18,-821.9 58.18,-846.9 318.18,-846.9 318.18,-821.9 58.18,-821.9"/>
<text text-anchor="start" x="63.18" y="-830.7" font-family="Helvetica,sans-Serif" font-size="14.00">integration_digital</text>
<polygon fill="none" stroke="black" points="318.18,-821.9 318.18,-846.9 404.18,-846.9 404.18,-821.9 318.18,-821.9"/>
<text text-anchor="start" x="323.18" y="-830.7" font-family="Helvetica,sans-Serif" font-size="14.00">categorical</text>
</g>
<!-- integration_plan&#45;&#45;person -->
<g id="integration_plan&#45;&#45;person" class="edge">
<title>integration_plan&#45;&#45;person</title>
<path fill="none" stroke="#7f7f7f" stroke-dasharray="5,2" d="M409.97,-817.85C470.92,-788.43 537.13,-756.47 593.86,-729.09"/>
<text text-anchor="middle" x="588.86" y="-732.89" font-family="Times,serif" font-size="14.00">1</text>
<text text-anchor="middle" x="394.47" y="-806.65" font-family="Times,serif" font-size="14.00">0..N</text>
</g>
<!-- employment_intermediate -->
<g id="employment_intermediate" class="node">
<title>employment_intermediate</title>
<polygon fill="#f4cae4" stroke="transparent" points="391,-516.74 0,-516.74 0,-405.74 391,-405.74 391,-516.74"/>
<polygon fill="none" stroke="black" points="8.5,-484.24 8.5,-512.24 383.5,-512.24 383.5,-484.24 8.5,-484.24"/>
<text text-anchor="start" x="78.5" y="-495.44" font-family="Helvetica,sans-Serif" font-weight="bold" font-size="16.00">employment_intermediate</text>
<polygon fill="none" stroke="black" points="8.5,-459.24 8.5,-484.24 36.5,-484.24 36.5,-459.24 8.5,-459.24"/>
<text text-anchor="start" x="13.5" y="-468.04" font-family="Helvetica,sans-Serif" font-size="14.00">PK</text>
<polygon fill="none" stroke="black" points="36.5,-459.24 36.5,-484.24 332.5,-484.24 332.5,-459.24 36.5,-459.24"/>
<text text-anchor="start" x="41.5" y="-468.04" font-family="Helvetica,sans-Serif" font-size="14.00">unique_id</text>
<polygon fill="none" stroke="black" points="332.5,-459.24 332.5,-484.24 383.5,-484.24 383.5,-459.24 332.5,-459.24"/>
<text text-anchor="start" x="337.5" y="-468.04" font-family="Helvetica,sans-Serif" font-size="14.00">string</text>
<polygon fill="none" stroke="black" points="8.5,-434.24 8.5,-459.24 36.5,-459.24 36.5,-434.24 8.5,-434.24"/>
<polygon fill="none" stroke="black" points="36.5,-434.24 36.5,-459.24 332.5,-459.24 332.5,-434.24 36.5,-434.24"/>
<text text-anchor="start" x="41.5" y="-443.04" font-family="Helvetica,sans-Serif" font-size="14.00">date_intermediate_employment_outcome</text>
<polygon fill="none" stroke="black" points="332.5,-434.24 332.5,-459.24 383.5,-459.24 383.5,-434.24 332.5,-434.24"/>
<text text-anchor="start" x="342.5" y="-443.04" font-family="Helvetica,sans-Serif" font-size="14.00">date</text>
<polygon fill="none" stroke="black" points="8.5,-409.24 8.5,-434.24 36.5,-434.24 36.5,-409.24 8.5,-409.24"/>
<polygon fill="none" stroke="black" points="36.5,-409.24 36.5,-434.24 332.5,-434.24 332.5,-409.24 36.5,-409.24"/>
<text text-anchor="start" x="41.5" y="-418.04" font-family="Helvetica,sans-Serif" font-size="14.00">intermediate_employment_outcome_type</text>
<polygon fill="none" stroke="black" points="332.5,-409.24 332.5,-434.24 383.5,-434.24 383.5,-409.24 332.5,-409.24"/>
<text text-anchor="start" x="347.5" y="-418.04" font-family="Helvetica,sans-Serif" font-size="14.00">list</text>
</g>
<!-- employment_intermediate&#45;&#45;person -->
<g id="employment_intermediate&#45;&#45;person" class="edge">
<title>employment_intermediate&#45;&#45;person</title>
<path fill="none" stroke="#7f7f7f" stroke-dasharray="5,2" d="M346.03,-516.76C423.49,-545.32 517.38,-579.95 593.61,-608.06"/>
<text text-anchor="middle" x="588.61" y="-611.86" font-family="Times,serif" font-size="14.00">1</text>
<text text-anchor="middle" x="334.53" y="-520.56" font-family="Times,serif" font-size="14.00">0,1</text>
</g>
<!-- employment_entry -->
<g id="employment_entry" class="node">
<title>employment_entry</title>
<polygon fill="#f4cae4" stroke="transparent" points="684.59,-266.9 309.59,-266.9 309.59,-5.9 684.59,-5.9 684.59,-266.9"/>
<polygon fill="none" stroke="black" points="318.09,-234.4 318.09,-262.4 677.09,-262.4 677.09,-234.4 318.09,-234.4"/>
<text text-anchor="start" x="413.59" y="-245.6" font-family="Helvetica,sans-Serif" font-weight="bold" font-size="16.00">employment_entry</text>
<polygon fill="none" stroke="black" points="318.09,-209.4 318.09,-234.4 346.09,-234.4 346.09,-209.4 318.09,-209.4"/>
<text text-anchor="start" x="323.09" y="-218.2" font-family="Helvetica,sans-Serif" font-size="14.00">PK</text>
<polygon fill="none" stroke="black" points="346.09,-209.4 346.09,-234.4 591.09,-234.4 591.09,-209.4 346.09,-209.4"/>
<text text-anchor="start" x="351.09" y="-218.2" font-family="Helvetica,sans-Serif" font-size="14.00">unique_id</text>
<polygon fill="none" stroke="black" points="591.09,-209.4 591.09,-234.4 677.09,-234.4 677.09,-209.4 591.09,-209.4"/>
<text text-anchor="start" x="613.59" y="-218.2" font-family="Helvetica,sans-Serif" font-size="14.00">string</text>
<polygon fill="none" stroke="black" points="318.09,-184.4 318.09,-209.4 346.09,-209.4 346.09,-184.4 318.09,-184.4"/>
<polygon fill="none" stroke="black" points="346.09,-184.4 346.09,-209.4 591.09,-209.4 591.09,-184.4 346.09,-184.4"/>
<text text-anchor="start" x="351.09" y="-193.2" font-family="Helvetica,sans-Serif" font-size="14.00">employment_entry_outcome_type</text>
<polygon fill="none" stroke="black" points="591.09,-184.4 591.09,-209.4 677.09,-209.4 677.09,-184.4 591.09,-184.4"/>
<text text-anchor="start" x="596.09" y="-193.2" font-family="Helvetica,sans-Serif" font-size="14.00">categorical</text>
<polygon fill="none" stroke="black" points="318.09,-159.4 318.09,-184.4 346.09,-184.4 346.09,-159.4 318.09,-159.4"/>
<polygon fill="none" stroke="black" points="346.09,-159.4 346.09,-184.4 591.09,-184.4 591.09,-159.4 346.09,-159.4"/>
<text text-anchor="start" x="351.09" y="-168.2" font-family="Helvetica,sans-Serif" font-size="14.00">date_employment_entry</text>
<polygon fill="none" stroke="black" points="591.09,-159.4 591.09,-184.4 677.09,-184.4 677.09,-159.4 591.09,-159.4"/>
<text text-anchor="start" x="618.59" y="-168.2" font-family="Helvetica,sans-Serif" font-size="14.00">date</text>
<polygon fill="none" stroke="black" points="318.09,-134.4 318.09,-159.4 346.09,-159.4 346.09,-134.4 318.09,-134.4"/>
<polygon fill="none" stroke="black" points="346.09,-134.4 346.09,-159.4 591.09,-159.4 591.09,-134.4 346.09,-134.4"/>
<text text-anchor="start" x="351.09" y="-143.2" font-family="Helvetica,sans-Serif" font-size="14.00">employment_entry_status</text>
<polygon fill="none" stroke="black" points="591.09,-134.4 591.09,-159.4 677.09,-159.4 677.09,-134.4 591.09,-134.4"/>
<text text-anchor="start" x="596.09" y="-143.2" font-family="Helvetica,sans-Serif" font-size="14.00">categorical</text>
<polygon fill="none" stroke="black" points="318.09,-109.4 318.09,-134.4 346.09,-134.4 346.09,-109.4 318.09,-109.4"/>
<polygon fill="none" stroke="black" points="346.09,-109.4 346.09,-134.4 591.09,-134.4 591.09,-109.4 346.09,-109.4"/>
<text text-anchor="start" x="351.09" y="-118.2" font-family="Helvetica,sans-Serif" font-size="14.00">hours_of_employment_entry</text>
<polygon fill="none" stroke="black" points="591.09,-109.4 591.09,-134.4 677.09,-134.4 677.09,-109.4 591.09,-109.4"/>
<text text-anchor="start" x="596.09" y="-118.2" font-family="Helvetica,sans-Serif" font-size="14.00">categorical</text>
<polygon fill="none" stroke="black" points="318.09,-84.4 318.09,-109.4 346.09,-109.4 346.09,-84.4 318.09,-84.4"/>
<polygon fill="none" stroke="black" points="346.09,-84.4 346.09,-109.4 591.09,-109.4 591.09,-84.4 346.09,-84.4"/>
<text text-anchor="start" x="351.09" y="-93.2" font-family="Helvetica,sans-Serif" font-size="14.00">wage_employment_entry</text>
<polygon fill="none" stroke="black" points="591.09,-84.4 591.09,-109.4 677.09,-109.4 677.09,-84.4 591.09,-84.4"/>
<text text-anchor="start" x="596.09" y="-93.2" font-family="Helvetica,sans-Serif" font-size="14.00">categorical</text>
<polygon fill="none" stroke="black" points="318.09,-59.4 318.09,-84.4 346.09,-84.4 346.09,-59.4 318.09,-59.4"/>
<polygon fill="none" stroke="black" points="346.09,-59.4 346.09,-84.4 591.09,-84.4 591.09,-59.4 346.09,-59.4"/>
<text text-anchor="start" x="351.09" y="-68.2" font-family="Helvetica,sans-Serif" font-size="14.00">eduction_training_status_entry</text>
<polygon fill="none" stroke="black" points="591.09,-59.4 591.09,-84.4 677.09,-84.4 677.09,-59.4 591.09,-59.4"/>
<text text-anchor="start" x="596.09" y="-68.2" font-family="Helvetica,sans-Serif" font-size="14.00">categorical</text>
<polygon fill="none" stroke="black" points="318.09,-34.4 318.09,-59.4 346.09,-59.4 346.09,-34.4 318.09,-34.4"/>
<polygon fill="none" stroke="black" points="346.09,-34.4 346.09,-59.4 591.09,-59.4 591.09,-34.4 346.09,-34.4"/>
<text text-anchor="start" x="351.09" y="-43.2" font-family="Helvetica,sans-Serif" font-size="14.00">employment_entry_occupation</text>
<polygon fill="none" stroke="black" points="591.09,-34.4 591.09,-59.4 677.09,-59.4 677.09,-34.4 591.09,-34.4"/>
<text text-anchor="start" x="613.59" y="-43.2" font-family="Helvetica,sans-Serif" font-size="14.00">string</text>
<polygon fill="none" stroke="black" points="318.09,-9.4 318.09,-34.4 346.09,-34.4 346.09,-9.4 318.09,-9.4"/>
<polygon fill="none" stroke="black" points="346.09,-9.4 346.09,-34.4 591.09,-34.4 591.09,-9.4 346.09,-9.4"/>
<text text-anchor="start" x="351.09" y="-18.2" font-family="Helvetica,sans-Serif" font-size="14.00">employment_entry_sector</text>
<polygon fill="none" stroke="black" points="591.09,-9.4 591.09,-34.4 677.09,-34.4 677.09,-9.4 591.09,-9.4"/>
<text text-anchor="start" x="613.59" y="-18.2" font-family="Helvetica,sans-Serif" font-size="14.00">string</text>
</g>
<!-- employment_entry&#45;&#45;person -->
<g id="employment_entry&#45;&#45;person" class="edge">
<title>employment_entry&#45;&#45;person</title>
<path fill="none" stroke="#7f7f7f" stroke-dasharray="5,2" d="M556.58,-266.97C601.27,-365.05 661.08,-496.31 699.06,-579.66"/>
<text text-anchor="middle" x="694.06" y="-568.46" font-family="Times,serif" font-size="14.00">1</text>
<text text-anchor="middle" x="545.08" y="-270.77" font-family="Times,serif" font-size="14.00">0,1</text>
</g>
<!-- employment_sustain -->
<g id="employment_sustain" class="node">
<title>employment_sustain</title>
<polygon fill="#f4cae4" stroke="transparent" points="1113.32,-236 745.32,-236 745.32,0 1113.32,0 1113.32,-236"/>
<polygon fill="none" stroke="black" points="753.32,-204 753.32,-232 1105.32,-232 1105.32,-204 753.32,-204"/>
<text text-anchor="start" x="836.82" y="-215.2" font-family="Helvetica,sans-Serif" font-weight="bold" font-size="16.00">employment_sustain</text>
<polygon fill="none" stroke="black" points="753.32,-179 753.32,-204 781.32,-204 781.32,-179 753.32,-179"/>
<text text-anchor="start" x="758.32" y="-187.8" font-family="Helvetica,sans-Serif" font-size="14.00">PK</text>
<polygon fill="none" stroke="black" points="781.32,-179 781.32,-204 1019.32,-204 1019.32,-179 781.32,-179"/>
<text text-anchor="start" x="786.32" y="-187.8" font-family="Helvetica,sans-Serif" font-size="14.00">unique_id</text>
<polygon fill="none" stroke="black" points="1019.32,-179 1019.32,-204 1105.32,-204 1105.32,-179 1019.32,-179"/>
<text text-anchor="start" x="1041.82" y="-187.8" font-family="Helvetica,sans-Serif" font-size="14.00">string</text>
<polygon fill="none" stroke="black" points="753.32,-154 753.32,-179 781.32,-179 781.32,-154 753.32,-154"/>
<polygon fill="none" stroke="black" points="781.32,-154 781.32,-179 1019.32,-179 1019.32,-154 781.32,-154"/>
<text text-anchor="start" x="786.32" y="-162.8" font-family="Helvetica,sans-Serif" font-size="14.00">employment_sustainment_date</text>
<polygon fill="none" stroke="black" points="1019.32,-154 1019.32,-179 1105.32,-179 1105.32,-154 1019.32,-154"/>
<text text-anchor="start" x="1046.82" y="-162.8" font-family="Helvetica,sans-Serif" font-size="14.00">date</text>
<polygon fill="none" stroke="black" points="753.32,-129 753.32,-154 781.32,-154 781.32,-129 753.32,-129"/>
<polygon fill="none" stroke="black" points="781.32,-129 781.32,-154 1019.32,-154 1019.32,-129 781.32,-129"/>
<text text-anchor="start" x="786.32" y="-137.8" font-family="Helvetica,sans-Serif" font-size="14.00">employment_sustain_status</text>
<polygon fill="none" stroke="black" points="1019.32,-129 1019.32,-154 1105.32,-154 1105.32,-129 1019.32,-129"/>
<text text-anchor="start" x="1024.32" y="-137.8" font-family="Helvetica,sans-Serif" font-size="14.00">categorical</text>
<polygon fill="none" stroke="black" points="753.32,-104 753.32,-129 781.32,-129 781.32,-104 753.32,-104"/>
<polygon fill="none" stroke="black" points="781.32,-104 781.32,-129 1019.32,-129 1019.32,-104 781.32,-104"/>
<text text-anchor="start" x="786.32" y="-112.8" font-family="Helvetica,sans-Serif" font-size="14.00">hours_of_employment_sustain</text>
<polygon fill="none" stroke="black" points="1019.32,-104 1019.32,-129 1105.32,-129 1105.32,-104 1019.32,-104"/>
<text text-anchor="start" x="1024.32" y="-112.8" font-family="Helvetica,sans-Serif" font-size="14.00">categorical</text>
<polygon fill="none" stroke="black" points="753.32,-79 753.32,-104 781.32,-104 781.32,-79 753.32,-79"/>
<polygon fill="none" stroke="black" points="781.32,-79 781.32,-104 1019.32,-104 1019.32,-79 781.32,-79"/>
<text text-anchor="start" x="786.32" y="-87.8" font-family="Helvetica,sans-Serif" font-size="14.00">wage_employment_sustain</text>
<polygon fill="none" stroke="black" points="1019.32,-79 1019.32,-104 1105.32,-104 1105.32,-79 1019.32,-79"/>
<text text-anchor="start" x="1024.32" y="-87.8" font-family="Helvetica,sans-Serif" font-size="14.00">categorical</text>
<polygon fill="none" stroke="black" points="753.32,-54 753.32,-79 781.32,-79 781.32,-54 753.32,-54"/>
<polygon fill="none" stroke="black" points="781.32,-54 781.32,-79 1019.32,-79 1019.32,-54 781.32,-54"/>
<text text-anchor="start" x="786.32" y="-62.8" font-family="Helvetica,sans-Serif" font-size="14.00">eduction_training_status_sustain</text>
<polygon fill="none" stroke="black" points="1019.32,-54 1019.32,-79 1105.32,-79 1105.32,-54 1019.32,-54"/>
<text text-anchor="start" x="1024.32" y="-62.8" font-family="Helvetica,sans-Serif" font-size="14.00">categorical</text>
<polygon fill="none" stroke="black" points="753.32,-29 753.32,-54 781.32,-54 781.32,-29 753.32,-29"/>
<polygon fill="none" stroke="black" points="781.32,-29 781.32,-54 1019.32,-54 1019.32,-29 781.32,-29"/>
<text text-anchor="start" x="786.32" y="-37.8" font-family="Helvetica,sans-Serif" font-size="14.00">employment_susatin_occupation</text>
<polygon fill="none" stroke="black" points="1019.32,-29 1019.32,-54 1105.32,-54 1105.32,-29 1019.32,-29"/>
<text text-anchor="start" x="1041.82" y="-37.8" font-family="Helvetica,sans-Serif" font-size="14.00">string</text>
<polygon fill="none" stroke="black" points="753.32,-4 753.32,-29 781.32,-29 781.32,-4 753.32,-4"/>
<polygon fill="none" stroke="black" points="781.32,-4 781.32,-29 1019.32,-29 1019.32,-4 781.32,-4"/>
<text text-anchor="start" x="786.32" y="-12.8" font-family="Helvetica,sans-Serif" font-size="14.00">employment_sustain_sector</text>
<polygon fill="none" stroke="black" points="1019.32,-4 1019.32,-29 1105.32,-29 1105.32,-4 1019.32,-4"/>
<text text-anchor="start" x="1041.82" y="-12.8" font-family="Helvetica,sans-Serif" font-size="14.00">string</text>
</g>
<!-- employment_sustain&#45;&#45;person -->
<g id="employment_sustain&#45;&#45;person" class="edge">
<title>employment_sustain&#45;&#45;person</title>
<path fill="none" stroke="#7f7f7f" stroke-dasharray="5,2" d="M887.23,-236.06C850.17,-340.01 797.19,-488.64 764.75,-579.64"/>
<text text-anchor="middle" x="759.75" y="-568.44" font-family="Times,serif" font-size="14.00">1</text>
<text text-anchor="middle" x="875.73" y="-239.86" font-family="Times,serif" font-size="14.00">0,1</text>
</g>
<!-- date_last_seen -->
<g id="date_last_seen" class="node">
<title>date_last_seen</title>
<polygon fill="#e6f5c9" stroke="transparent" points="1314.2,-376.74 1106.2,-376.74 1106.2,-290.74 1314.2,-290.74 1314.2,-376.74"/>
<polygon fill="none" stroke="black" points="1114.2,-344.74 1114.2,-372.74 1306.2,-372.74 1306.2,-344.74 1114.2,-344.74"/>
<text text-anchor="start" x="1144.2" y="-355.94" font-family="Helvetica,sans-Serif" font-weight="bold" font-size="16.00">date_last_seen</text>
<polygon fill="none" stroke="black" points="1114.2,-319.74 1114.2,-344.74 1142.2,-344.74 1142.2,-319.74 1114.2,-319.74"/>
<text text-anchor="start" x="1119.2" y="-328.54" font-family="Helvetica,sans-Serif" font-size="14.00">PK</text>
<polygon fill="none" stroke="black" points="1142.2,-319.74 1142.2,-344.74 1255.2,-344.74 1255.2,-319.74 1142.2,-319.74"/>
<text text-anchor="start" x="1147.2" y="-328.54" font-family="Helvetica,sans-Serif" font-size="14.00">unique_id</text>
<polygon fill="none" stroke="black" points="1255.2,-319.74 1255.2,-344.74 1306.2,-344.74 1306.2,-319.74 1255.2,-319.74"/>
<text text-anchor="start" x="1260.2" y="-328.54" font-family="Helvetica,sans-Serif" font-size="14.00">string</text>
<polygon fill="none" stroke="black" points="1114.2,-294.74 1114.2,-319.74 1142.2,-319.74 1142.2,-294.74 1114.2,-294.74"/>
<polygon fill="none" stroke="black" points="1142.2,-294.74 1142.2,-319.74 1255.2,-319.74 1255.2,-294.74 1142.2,-294.74"/>
<text text-anchor="start" x="1147.2" y="-303.54" font-family="Helvetica,sans-Serif" font-size="14.00">date_last_seen</text>
<polygon fill="none" stroke="black" points="1255.2,-294.74 1255.2,-319.74 1306.2,-319.74 1306.2,-294.74 1255.2,-294.74"/>
<text text-anchor="start" x="1265.2" y="-303.54" font-family="Helvetica,sans-Serif" font-size="14.00">date</text>
</g>
<!-- date_last_seen&#45;&#45;person -->
<g id="date_last_seen&#45;&#45;person" class="edge">
<title>date_last_seen&#45;&#45;person</title>
<path fill="none" stroke="#7f7f7f" stroke-dasharray="5,2" d="M1147.71,-376.8C1072.87,-428.36 945.97,-515.8 852.77,-580.01"/>
<text text-anchor="middle" x="847.77" y="-568.81" font-family="Times,serif" font-size="14.00">1</text>
<text text-anchor="middle" x="1136.21" y="-380.6" font-family="Times,serif" font-size="14.00">0,1</text>
</g>
</g>
</svg>
