<?xml version="1.0" encoding="UTF-8" standalone="no"?>
<!DOCTYPE svg PUBLIC "-//W3C//DTD SVG 1.1//EN"
 "http://www.w3.org/Graphics/SVG/1.1/DTD/svg11.dtd">
<!-- Generated by graphviz version 2.43.0 (0)
 -->
<!-- Title: %3 Pages: 1 -->
<svg width="1481pt" height="1534pt"
 viewBox="0.00 0.00 1480.62 1533.53" xmlns="http://www.w3.org/2000/svg" xmlns:xlink="http://www.w3.org/1999/xlink">
<g id="graph0" class="graph" transform="scale(1 1) rotate(0) translate(4 1529.53)">
<title>%3</title>
<polygon fill="white" stroke="transparent" points="-4,4 -4,-1529.53 1476.62,-1529.53 1476.62,4 -4,4"/>
<!-- person -->
<g id="person" class="node">
<title>person</title>
<polygon fill="#b3e2cd" stroke="transparent" points="877.49,-735.42 593.49,-735.42 593.49,-574.42 877.49,-574.42 877.49,-735.42"/>
<polygon fill="none" stroke="black" points="601.49,-702.92 601.49,-730.92 869.49,-730.92 869.49,-702.92 601.49,-702.92"/>
<text text-anchor="start" x="703.99" y="-714.12" font-family="Helvetica,sans-Serif" font-weight="bold" font-size="16.00">person</text>
<polygon fill="none" stroke="black" points="601.49,-677.92 601.49,-702.92 629.49,-702.92 629.49,-677.92 601.49,-677.92"/>
<text text-anchor="start" x="606.49" y="-686.72" font-family="Helvetica,sans-Serif" font-size="14.00">PK</text>
<polygon fill="none" stroke="black" points="629.49,-677.92 629.49,-702.92 783.49,-702.92 783.49,-677.92 629.49,-677.92"/>
<text text-anchor="start" x="634.49" y="-686.72" font-family="Helvetica,sans-Serif" font-size="14.00">unique_id</text>
<polygon fill="none" stroke="black" points="783.49,-677.92 783.49,-702.92 869.49,-702.92 869.49,-677.92 783.49,-677.92"/>
<text text-anchor="start" x="805.99" y="-686.72" font-family="Helvetica,sans-Serif" font-size="14.00">string</text>
<polygon fill="none" stroke="black" points="601.49,-652.92 601.49,-677.92 629.49,-677.92 629.49,-652.92 601.49,-652.92"/>
<polygon fill="none" stroke="black" points="629.49,-652.92 629.49,-677.92 783.49,-677.92 783.49,-652.92 629.49,-652.92"/>
<text text-anchor="start" x="634.49" y="-661.72" font-family="Helvetica,sans-Serif" font-size="14.00">year_of_birth</text>
<polygon fill="none" stroke="black" points="783.49,-652.92 783.49,-677.92 869.49,-677.92 869.49,-652.92 783.49,-652.92"/>
<text text-anchor="start" x="810.99" y="-661.72" font-family="Helvetica,sans-Serif" font-size="14.00">year</text>
<polygon fill="none" stroke="black" points="601.49,-627.92 601.49,-652.92 629.49,-652.92 629.49,-627.92 601.49,-627.92"/>
<polygon fill="none" stroke="black" points="629.49,-627.92 629.49,-652.92 783.49,-652.92 783.49,-627.92 629.49,-627.92"/>
<text text-anchor="start" x="634.49" y="-636.72" font-family="Helvetica,sans-Serif" font-size="14.00">gender</text>
<polygon fill="none" stroke="black" points="783.49,-627.92 783.49,-652.92 869.49,-652.92 869.49,-627.92 783.49,-627.92"/>
<text text-anchor="start" x="788.49" y="-636.72" font-family="Helvetica,sans-Serif" font-size="14.00">categorical</text>
<polygon fill="none" stroke="black" points="601.49,-602.92 601.49,-627.92 629.49,-627.92 629.49,-602.92 601.49,-602.92"/>
<polygon fill="none" stroke="black" points="629.49,-602.92 629.49,-627.92 783.49,-627.92 783.49,-602.92 629.49,-602.92"/>
<text text-anchor="start" x="634.49" y="-611.72" font-family="Helvetica,sans-Serif" font-size="14.00">dispersal_area</text>
<polygon fill="none" stroke="black" points="783.49,-602.92 783.49,-627.92 869.49,-627.92 869.49,-602.92 783.49,-602.92"/>
<text text-anchor="start" x="805.99" y="-611.72" font-family="Helvetica,sans-Serif" font-size="14.00">string</text>
<polygon fill="none" stroke="black" points="601.49,-577.92 601.49,-602.92 629.49,-602.92 629.49,-577.92 601.49,-577.92"/>
<polygon fill="none" stroke="black" points="629.49,-577.92 629.49,-602.92 783.49,-602.92 783.49,-577.92 629.49,-577.92"/>
<text text-anchor="start" x="634.49" y="-586.72" font-family="Helvetica,sans-Serif" font-size="14.00">date_started_service</text>
<polygon fill="none" stroke="black" points="783.49,-577.92 783.49,-602.92 869.49,-602.92 869.49,-577.92 783.49,-577.92"/>
<text text-anchor="start" x="810.99" y="-586.72" font-family="Helvetica,sans-Serif" font-size="14.00">date</text>
</g>
<!-- housing_entry -->
<g id="housing_entry" class="node">
<title>housing_entry</title>
<polygon fill="#fdcdac" stroke="transparent" points="1472.62,-710.42 1129.62,-710.42 1129.62,-599.42 1472.62,-599.42 1472.62,-710.42"/>
<polygon fill="none" stroke="black" points="1138.12,-677.92 1138.12,-705.92 1465.12,-705.92 1465.12,-677.92 1138.12,-677.92"/>
<text text-anchor="start" x="1237.62" y="-689.12" font-family="Helvetica,sans-Serif" font-weight="bold" font-size="16.00">housing_entry</text>
<polygon fill="none" stroke="black" points="1138.12,-652.92 1138.12,-677.92 1166.12,-677.92 1166.12,-652.92 1138.12,-652.92"/>
<text text-anchor="start" x="1143.12" y="-661.72" font-family="Helvetica,sans-Serif" font-size="14.00">PK</text>
<polygon fill="none" stroke="black" points="1166.12,-652.92 1166.12,-677.92 1379.12,-677.92 1379.12,-652.92 1166.12,-652.92"/>
<text text-anchor="start" x="1171.12" y="-661.72" font-family="Helvetica,sans-Serif" font-size="14.00">unique_id</text>
<polygon fill="none" stroke="black" points="1379.12,-652.92 1379.12,-677.92 1465.12,-677.92 1465.12,-652.92 1379.12,-652.92"/>
<text text-anchor="start" x="1401.62" y="-661.72" font-family="Helvetica,sans-Serif" font-size="14.00">string</text>
<polygon fill="none" stroke="black" points="1138.12,-627.92 1138.12,-652.92 1166.12,-652.92 1166.12,-627.92 1138.12,-627.92"/>
<polygon fill="none" stroke="black" points="1166.12,-627.92 1166.12,-652.92 1379.12,-652.92 1379.12,-627.92 1166.12,-627.92"/>
<text text-anchor="start" x="1171.12" y="-636.72" font-family="Helvetica,sans-Serif" font-size="14.00">housing_entry_date</text>
<polygon fill="none" stroke="black" points="1379.12,-627.92 1379.12,-652.92 1465.12,-652.92 1465.12,-627.92 1379.12,-627.92"/>
<text text-anchor="start" x="1406.62" y="-636.72" font-family="Helvetica,sans-Serif" font-size="14.00">date</text>
<polygon fill="none" stroke="black" points="1138.12,-602.92 1138.12,-627.92 1166.12,-627.92 1166.12,-602.92 1138.12,-602.92"/>
<polygon fill="none" stroke="black" points="1166.12,-602.92 1166.12,-627.92 1379.12,-627.92 1379.12,-602.92 1166.12,-602.92"/>
<text text-anchor="start" x="1171.12" y="-611.72" font-family="Helvetica,sans-Serif" font-size="14.00">housing_entry_accomodation</text>
<polygon fill="none" stroke="black" points="1379.12,-602.92 1379.12,-627.92 1465.12,-627.92 1465.12,-602.92 1379.12,-602.92"/>
<text text-anchor="start" x="1384.12" y="-611.72" font-family="Helvetica,sans-Serif" font-size="14.00">categorical</text>
</g>
<!-- housing_entry&#45;&#45;person -->
<g id="housing_entry&#45;&#45;person" class="edge">
<title>housing_entry&#45;&#45;person</title>
<path fill="none" stroke="#7f7f7f" stroke-dasharray="5,2" d="M1129.49,-654.92C1049.03,-654.92 954.29,-654.92 877.88,-654.92"/>
<text text-anchor="middle" x="882.88" y="-658.72" font-family="Times,serif" font-size="14.00">1</text>
<text text-anchor="middle" x="1117.99" y="-658.72" font-family="Times,serif" font-size="14.00">0,1</text>
</g>
<!-- housing_sustain -->
<g id="housing_sustain" class="node">
<title>housing_sustain</title>
<polygon fill="#fdcdac" stroke="transparent" points="1318.23,-1057.36 1026.23,-1057.36 1026.23,-971.36 1318.23,-971.36 1318.23,-1057.36"/>
<polygon fill="none" stroke="black" points="1034.23,-1025.36 1034.23,-1053.36 1310.23,-1053.36 1310.23,-1025.36 1034.23,-1025.36"/>
<text text-anchor="start" x="1099.73" y="-1036.56" font-family="Helvetica,sans-Serif" font-weight="bold" font-size="16.00">housing_sustain</text>
<polygon fill="none" stroke="black" points="1034.23,-1000.36 1034.23,-1025.36 1062.23,-1025.36 1062.23,-1000.36 1034.23,-1000.36"/>
<text text-anchor="start" x="1039.23" y="-1009.16" font-family="Helvetica,sans-Serif" font-size="14.00">PK</text>
<polygon fill="none" stroke="black" points="1062.23,-1000.36 1062.23,-1025.36 1259.23,-1025.36 1259.23,-1000.36 1062.23,-1000.36"/>
<text text-anchor="start" x="1067.23" y="-1009.16" font-family="Helvetica,sans-Serif" font-size="14.00">unique_id</text>
<polygon fill="none" stroke="black" points="1259.23,-1000.36 1259.23,-1025.36 1310.23,-1025.36 1310.23,-1000.36 1259.23,-1000.36"/>
<text text-anchor="start" x="1264.23" y="-1009.16" font-family="Helvetica,sans-Serif" font-size="14.00">string</text>
<polygon fill="none" stroke="black" points="1034.23,-975.36 1034.23,-1000.36 1062.23,-1000.36 1062.23,-975.36 1034.23,-975.36"/>
<polygon fill="none" stroke="black" points="1062.23,-975.36 1062.23,-1000.36 1259.23,-1000.36 1259.23,-975.36 1062.23,-975.36"/>
<text text-anchor="start" x="1067.23" y="-984.16" font-family="Helvetica,sans-Serif" font-size="14.00">housing_sustainment_date</text>
<polygon fill="none" stroke="black" points="1259.23,-975.36 1259.23,-1000.36 1310.23,-1000.36 1310.23,-975.36 1259.23,-975.36"/>
<text text-anchor="start" x="1269.23" y="-984.16" font-family="Helvetica,sans-Serif" font-size="14.00">date</text>
</g>
<!-- housing_sustain&#45;&#45;person -->
<g id="housing_sustain&#45;&#45;person" class="edge">
<title>housing_sustain&#45;&#45;person</title>
<path fill="none" stroke="#7f7f7f" stroke-dasharray="5,2" d="M1119.55,-971.01C1048.88,-912.84 922.04,-808.46 833.53,-735.62"/>
<text text-anchor="middle" x="828.53" y="-739.42" font-family="Times,serif" font-size="14.00">1</text>
<text text-anchor="middle" x="1108.05" y="-959.81" font-family="Times,serif" font-size="14.00">0,1</text>
</g>
<!-- baseline -->
<g id="baseline" class="node">
<title>baseline</title>
<polygon fill="#cbd5e8" stroke="transparent" points="899.99,-1525.53 521.99,-1525.53 521.99,-914.53 899.99,-914.53 899.99,-1525.53"/>
<polygon fill="none" stroke="black" points="529.99,-1493.03 529.99,-1521.03 891.99,-1521.03 891.99,-1493.03 529.99,-1493.03"/>
<text text-anchor="start" x="673.49" y="-1504.23" font-family="Helvetica,sans-Serif" font-weight="bold" font-size="16.00">baseline</text>
<polygon fill="none" stroke="black" points="529.99,-1468.03 529.99,-1493.03 557.99,-1493.03 557.99,-1468.03 529.99,-1468.03"/>
<text text-anchor="start" x="534.99" y="-1476.83" font-family="Helvetica,sans-Serif" font-size="14.00">PK</text>
<polygon fill="none" stroke="black" points="557.99,-1468.03 557.99,-1493.03 805.99,-1493.03 805.99,-1468.03 557.99,-1468.03"/>
<text text-anchor="start" x="562.99" y="-1476.83" font-family="Helvetica,sans-Serif" font-size="14.00">unique_id</text>
<polygon fill="none" stroke="black" points="805.99,-1468.03 805.99,-1493.03 891.99,-1493.03 891.99,-1468.03 805.99,-1468.03"/>
<text text-anchor="start" x="828.49" y="-1476.83" font-family="Helvetica,sans-Serif" font-size="14.00">string</text>
<polygon fill="none" stroke="black" points="529.99,-1443.03 529.99,-1468.03 557.99,-1468.03 557.99,-1443.03 529.99,-1443.03"/>
<polygon fill="none" stroke="black" points="557.99,-1443.03 557.99,-1468.03 805.99,-1468.03 805.99,-1443.03 557.99,-1443.03"/>
<text text-anchor="start" x="562.99" y="-1451.83" font-family="Helvetica,sans-Serif" font-size="14.00">ni_number</text>
<polygon fill="none" stroke="black" points="805.99,-1443.03 805.99,-1468.03 891.99,-1468.03 891.99,-1443.03 805.99,-1443.03"/>
<text text-anchor="start" x="828.49" y="-1451.83" font-family="Helvetica,sans-Serif" font-size="14.00">string</text>
<polygon fill="none" stroke="black" points="529.99,-1418.03 529.99,-1443.03 557.99,-1443.03 557.99,-1418.03 529.99,-1418.03"/>
<polygon fill="none" stroke="black" points="557.99,-1418.03 557.99,-1443.03 805.99,-1443.03 805.99,-1418.03 557.99,-1418.03"/>
<text text-anchor="start" x="562.99" y="-1426.83" font-family="Helvetica,sans-Serif" font-size="14.00">nationality</text>
<polygon fill="none" stroke="black" points="805.99,-1418.03 805.99,-1443.03 891.99,-1443.03 891.99,-1418.03 805.99,-1418.03"/>
<text text-anchor="start" x="810.99" y="-1426.83" font-family="Helvetica,sans-Serif" font-size="14.00">categorical</text>
<polygon fill="none" stroke="black" points="529.99,-1393.03 529.99,-1418.03 557.99,-1418.03 557.99,-1393.03 529.99,-1393.03"/>
<polygon fill="none" stroke="black" points="557.99,-1393.03 557.99,-1418.03 805.99,-1418.03 805.99,-1393.03 557.99,-1393.03"/>
<text text-anchor="start" x="562.99" y="-1401.83" font-family="Helvetica,sans-Serif" font-size="14.00">referral_source</text>
<polygon fill="none" stroke="black" points="805.99,-1393.03 805.99,-1418.03 891.99,-1418.03 891.99,-1393.03 805.99,-1393.03"/>
<text text-anchor="start" x="810.99" y="-1401.83" font-family="Helvetica,sans-Serif" font-size="14.00">categorical</text>
<polygon fill="none" stroke="black" points="529.99,-1368.03 529.99,-1393.03 557.99,-1393.03 557.99,-1368.03 529.99,-1368.03"/>
<polygon fill="none" stroke="black" points="557.99,-1368.03 557.99,-1393.03 805.99,-1393.03 805.99,-1368.03 557.99,-1368.03"/>
<text text-anchor="start" x="562.99" y="-1376.83" font-family="Helvetica,sans-Serif" font-size="14.00">transgender</text>
<polygon fill="none" stroke="black" points="805.99,-1368.03 805.99,-1393.03 891.99,-1393.03 891.99,-1368.03 805.99,-1368.03"/>
<text text-anchor="start" x="810.99" y="-1376.83" font-family="Helvetica,sans-Serif" font-size="14.00">categorical</text>
<polygon fill="none" stroke="black" points="529.99,-1343.03 529.99,-1368.03 557.99,-1368.03 557.99,-1343.03 529.99,-1343.03"/>
<polygon fill="none" stroke="black" points="557.99,-1343.03 557.99,-1368.03 805.99,-1368.03 805.99,-1343.03 557.99,-1343.03"/>
<text text-anchor="start" x="562.99" y="-1351.83" font-family="Helvetica,sans-Serif" font-size="14.00">current_dependents_uk</text>
<polygon fill="none" stroke="black" points="805.99,-1343.03 805.99,-1368.03 891.99,-1368.03 891.99,-1343.03 805.99,-1343.03"/>
<text text-anchor="start" x="810.99" y="-1351.83" font-family="Helvetica,sans-Serif" font-size="14.00">categorical</text>
<polygon fill="none" stroke="black" points="529.99,-1318.03 529.99,-1343.03 557.99,-1343.03 557.99,-1318.03 529.99,-1318.03"/>
<polygon fill="none" stroke="black" points="557.99,-1318.03 557.99,-1343.03 805.99,-1343.03 805.99,-1318.03 557.99,-1318.03"/>
<text text-anchor="start" x="562.99" y="-1326.83" font-family="Helvetica,sans-Serif" font-size="14.00">age_profile_of_dependents_uk</text>
<polygon fill="none" stroke="black" points="805.99,-1318.03 805.99,-1343.03 891.99,-1343.03 891.99,-1318.03 805.99,-1318.03"/>
<text text-anchor="start" x="838.49" y="-1326.83" font-family="Helvetica,sans-Serif" font-size="14.00">list</text>
<polygon fill="none" stroke="black" points="529.99,-1293.03 529.99,-1318.03 557.99,-1318.03 557.99,-1293.03 529.99,-1293.03"/>
<polygon fill="none" stroke="black" points="557.99,-1293.03 557.99,-1318.03 805.99,-1318.03 805.99,-1293.03 557.99,-1293.03"/>
<text text-anchor="start" x="562.99" y="-1301.83" font-family="Helvetica,sans-Serif" font-size="14.00">date_arrived_in_uk</text>
<polygon fill="none" stroke="black" points="805.99,-1293.03 805.99,-1318.03 891.99,-1318.03 891.99,-1293.03 805.99,-1293.03"/>
<text text-anchor="start" x="833.49" y="-1301.83" font-family="Helvetica,sans-Serif" font-size="14.00">date</text>
<polygon fill="none" stroke="black" points="529.99,-1268.03 529.99,-1293.03 557.99,-1293.03 557.99,-1268.03 529.99,-1268.03"/>
<polygon fill="none" stroke="black" points="557.99,-1268.03 557.99,-1293.03 805.99,-1293.03 805.99,-1268.03 557.99,-1268.03"/>
<text text-anchor="start" x="562.99" y="-1276.83" font-family="Helvetica,sans-Serif" font-size="14.00">date_asylum_status_granted</text>
<polygon fill="none" stroke="black" points="805.99,-1268.03 805.99,-1293.03 891.99,-1293.03 891.99,-1268.03 805.99,-1268.03"/>
<text text-anchor="start" x="833.49" y="-1276.83" font-family="Helvetica,sans-Serif" font-size="14.00">date</text>
<polygon fill="none" stroke="black" points="529.99,-1243.03 529.99,-1268.03 557.99,-1268.03 557.99,-1243.03 529.99,-1243.03"/>
<polygon fill="none" stroke="black" points="557.99,-1243.03 557.99,-1268.03 805.99,-1268.03 805.99,-1243.03 557.99,-1243.03"/>
<text text-anchor="start" x="562.99" y="-1251.83" font-family="Helvetica,sans-Serif" font-size="14.00">language_level_on_entry</text>
<polygon fill="none" stroke="black" points="805.99,-1243.03 805.99,-1268.03 891.99,-1268.03 891.99,-1243.03 805.99,-1243.03"/>
<text text-anchor="start" x="810.99" y="-1251.83" font-family="Helvetica,sans-Serif" font-size="14.00">categorical</text>
<polygon fill="none" stroke="black" points="529.99,-1218.03 529.99,-1243.03 557.99,-1243.03 557.99,-1218.03 529.99,-1218.03"/>
<polygon fill="none" stroke="black" points="557.99,-1218.03 557.99,-1243.03 805.99,-1243.03 805.99,-1218.03 557.99,-1218.03"/>
<text text-anchor="start" x="562.99" y="-1226.83" font-family="Helvetica,sans-Serif" font-size="14.00">highest_qualification_achieved</text>
<polygon fill="none" stroke="black" points="805.99,-1218.03 805.99,-1243.03 891.99,-1243.03 891.99,-1218.03 805.99,-1218.03"/>
<text text-anchor="start" x="810.99" y="-1226.83" font-family="Helvetica,sans-Serif" font-size="14.00">categorical</text>
<polygon fill="none" stroke="black" points="529.99,-1193.03 529.99,-1218.03 557.99,-1218.03 557.99,-1193.03 529.99,-1193.03"/>
<polygon fill="none" stroke="black" points="557.99,-1193.03 557.99,-1218.03 805.99,-1218.03 805.99,-1193.03 557.99,-1193.03"/>
<text text-anchor="start" x="562.99" y="-1201.83" font-family="Helvetica,sans-Serif" font-size="14.00">age_finished_study</text>
<polygon fill="none" stroke="black" points="805.99,-1193.03 805.99,-1218.03 891.99,-1218.03 891.99,-1193.03 805.99,-1193.03"/>
<text text-anchor="start" x="823.99" y="-1201.83" font-family="Helvetica,sans-Serif" font-size="14.00">integer</text>
<polygon fill="none" stroke="black" points="529.99,-1168.03 529.99,-1193.03 557.99,-1193.03 557.99,-1168.03 529.99,-1168.03"/>
<polygon fill="none" stroke="black" points="557.99,-1168.03 557.99,-1193.03 805.99,-1193.03 805.99,-1168.03 557.99,-1168.03"/>
<text text-anchor="start" x="562.99" y="-1176.83" font-family="Helvetica,sans-Serif" font-size="14.00">employed_in_home_country</text>
<polygon fill="none" stroke="black" points="805.99,-1168.03 805.99,-1193.03 891.99,-1193.03 891.99,-1168.03 805.99,-1168.03"/>
<text text-anchor="start" x="810.99" y="-1176.83" font-family="Helvetica,sans-Serif" font-size="14.00">categorical</text>
<polygon fill="none" stroke="black" points="529.99,-1143.03 529.99,-1168.03 557.99,-1168.03 557.99,-1143.03 529.99,-1143.03"/>
<polygon fill="none" stroke="black" points="557.99,-1143.03 557.99,-1168.03 805.99,-1168.03 805.99,-1143.03 557.99,-1143.03"/>
<text text-anchor="start" x="562.99" y="-1151.83" font-family="Helvetica,sans-Serif" font-size="14.00">occupation_type</text>
<polygon fill="none" stroke="black" points="805.99,-1143.03 805.99,-1168.03 891.99,-1168.03 891.99,-1143.03 805.99,-1143.03"/>
<text text-anchor="start" x="828.49" y="-1151.83" font-family="Helvetica,sans-Serif" font-size="14.00">string</text>
<polygon fill="none" stroke="black" points="529.99,-1118.03 529.99,-1143.03 557.99,-1143.03 557.99,-1118.03 529.99,-1118.03"/>
<polygon fill="none" stroke="black" points="557.99,-1118.03 557.99,-1143.03 805.99,-1143.03 805.99,-1118.03 557.99,-1118.03"/>
<text text-anchor="start" x="562.99" y="-1126.83" font-family="Helvetica,sans-Serif" font-size="14.00">occupation_sector</text>
<polygon fill="none" stroke="black" points="805.99,-1118.03 805.99,-1143.03 891.99,-1143.03 891.99,-1118.03 805.99,-1118.03"/>
<text text-anchor="start" x="828.49" y="-1126.83" font-family="Helvetica,sans-Serif" font-size="14.00">string</text>
<polygon fill="none" stroke="black" points="529.99,-1093.03 529.99,-1118.03 557.99,-1118.03 557.99,-1093.03 529.99,-1093.03"/>
<polygon fill="none" stroke="black" points="557.99,-1093.03 557.99,-1118.03 805.99,-1118.03 805.99,-1093.03 557.99,-1093.03"/>
<text text-anchor="start" x="562.99" y="-1101.83" font-family="Helvetica,sans-Serif" font-size="14.00">occupation_goal</text>
<polygon fill="none" stroke="black" points="805.99,-1093.03 805.99,-1118.03 891.99,-1118.03 891.99,-1093.03 805.99,-1093.03"/>
<text text-anchor="start" x="828.49" y="-1101.83" font-family="Helvetica,sans-Serif" font-size="14.00">string</text>
<polygon fill="none" stroke="black" points="529.99,-1068.03 529.99,-1093.03 557.99,-1093.03 557.99,-1068.03 529.99,-1068.03"/>
<polygon fill="none" stroke="black" points="557.99,-1068.03 557.99,-1093.03 805.99,-1093.03 805.99,-1068.03 557.99,-1068.03"/>
<text text-anchor="start" x="562.99" y="-1076.83" font-family="Helvetica,sans-Serif" font-size="14.00">prior_employment</text>
<polygon fill="none" stroke="black" points="805.99,-1068.03 805.99,-1093.03 891.99,-1093.03 891.99,-1068.03 805.99,-1068.03"/>
<text text-anchor="start" x="810.99" y="-1076.83" font-family="Helvetica,sans-Serif" font-size="14.00">categorical</text>
<polygon fill="none" stroke="black" points="529.99,-1043.03 529.99,-1068.03 557.99,-1068.03 557.99,-1043.03 529.99,-1043.03"/>
<polygon fill="none" stroke="black" points="557.99,-1043.03 557.99,-1068.03 805.99,-1068.03 805.99,-1043.03 557.99,-1043.03"/>
<text text-anchor="start" x="562.99" y="-1051.83" font-family="Helvetica,sans-Serif" font-size="14.00">employment_status</text>
<polygon fill="none" stroke="black" points="805.99,-1043.03 805.99,-1068.03 891.99,-1068.03 891.99,-1043.03 805.99,-1043.03"/>
<text text-anchor="start" x="810.99" y="-1051.83" font-family="Helvetica,sans-Serif" font-size="14.00">categorical</text>
<polygon fill="none" stroke="black" points="529.99,-1018.03 529.99,-1043.03 557.99,-1043.03 557.99,-1018.03 529.99,-1018.03"/>
<polygon fill="none" stroke="black" points="557.99,-1018.03 557.99,-1043.03 805.99,-1043.03 805.99,-1018.03 557.99,-1018.03"/>
<text text-anchor="start" x="562.99" y="-1026.83" font-family="Helvetica,sans-Serif" font-size="14.00">hours_of_employment</text>
<polygon fill="none" stroke="black" points="805.99,-1018.03 805.99,-1043.03 891.99,-1043.03 891.99,-1018.03 805.99,-1018.03"/>
<text text-anchor="start" x="810.99" y="-1026.83" font-family="Helvetica,sans-Serif" font-size="14.00">categorical</text>
<polygon fill="none" stroke="black" points="529.99,-993.03 529.99,-1018.03 557.99,-1018.03 557.99,-993.03 529.99,-993.03"/>
<polygon fill="none" stroke="black" points="557.99,-993.03 557.99,-1018.03 805.99,-1018.03 805.99,-993.03 557.99,-993.03"/>
<text text-anchor="start" x="562.99" y="-1001.83" font-family="Helvetica,sans-Serif" font-size="14.00">wage_baseline</text>
<polygon fill="none" stroke="black" points="805.99,-993.03 805.99,-1018.03 891.99,-1018.03 891.99,-993.03 805.99,-993.03"/>
<text text-anchor="start" x="810.99" y="-1001.83" font-family="Helvetica,sans-Serif" font-size="14.00">categorical</text>
<polygon fill="none" stroke="black" points="529.99,-968.03 529.99,-993.03 557.99,-993.03 557.99,-968.03 529.99,-968.03"/>
<polygon fill="none" stroke="black" points="557.99,-968.03 557.99,-993.03 805.99,-993.03 805.99,-968.03 557.99,-968.03"/>
<text text-anchor="start" x="562.99" y="-976.83" font-family="Helvetica,sans-Serif" font-size="14.00">eduction_training_status</text>
<polygon fill="none" stroke="black" points="805.99,-968.03 805.99,-993.03 891.99,-993.03 891.99,-968.03 805.99,-968.03"/>
<text text-anchor="start" x="810.99" y="-976.83" font-family="Helvetica,sans-Serif" font-size="14.00">categorical</text>
<polygon fill="none" stroke="black" points="529.99,-943.03 529.99,-968.03 557.99,-968.03 557.99,-943.03 529.99,-943.03"/>
<polygon fill="none" stroke="black" points="557.99,-943.03 557.99,-968.03 805.99,-968.03 805.99,-943.03 557.99,-943.03"/>
<text text-anchor="start" x="562.99" y="-951.83" font-family="Helvetica,sans-Serif" font-size="14.00">housing_baseline_accommodation</text>
<polygon fill="none" stroke="black" points="805.99,-943.03 805.99,-968.03 891.99,-968.03 891.99,-943.03 805.99,-943.03"/>
<text text-anchor="start" x="810.99" y="-951.83" font-family="Helvetica,sans-Serif" font-size="14.00">categorical</text>
<polygon fill="none" stroke="black" points="529.99,-918.03 529.99,-943.03 557.99,-943.03 557.99,-918.03 529.99,-918.03"/>
<polygon fill="none" stroke="black" points="557.99,-918.03 557.99,-943.03 805.99,-943.03 805.99,-918.03 557.99,-918.03"/>
<text text-anchor="start" x="562.99" y="-926.83" font-family="Helvetica,sans-Serif" font-size="14.00">homelessness_baseline</text>
<polygon fill="none" stroke="black" points="805.99,-918.03 805.99,-943.03 891.99,-943.03 891.99,-918.03 805.99,-918.03"/>
<text text-anchor="start" x="810.99" y="-926.83" font-family="Helvetica,sans-Serif" font-size="14.00">categorical</text>
</g>
<!-- baseline&#45;&#45;person -->
<g id="baseline&#45;&#45;person" class="edge">
<title>baseline&#45;&#45;person</title>
<path fill="none" stroke="#7f7f7f" stroke-dasharray="5,2" d="M724.24,-914.32C727.11,-848.14 729.91,-783.66 731.99,-735.54"/>
<text text-anchor="middle" x="726.99" y="-739.34" font-family="Times,serif" font-size="14.00">1</text>
<text text-anchor="middle" x="712.74" y="-903.12" font-family="Times,serif" font-size="14.00">0,1</text>
</g>
<!-- integration_plan -->
<g id="integration_plan" class="node">
<title>integration_plan</title>
<polygon fill="#cbd5e8" stroke="transparent" points="438.31,-1026.69 48.31,-1026.69 48.31,-840.69 438.31,-840.69 438.31,-1026.69"/>
<polygon fill="none" stroke="black" points="56.31,-994.69 56.31,-1022.69 430.31,-1022.69 430.31,-994.69 56.31,-994.69"/>
<text text-anchor="start" x="169.81" y="-1005.89" font-family="Helvetica,sans-Serif" font-weight="bold" font-size="16.00">integration_plan</text>
<polygon fill="none" stroke="black" points="56.31,-969.69 56.31,-994.69 84.31,-994.69 84.31,-969.69 56.31,-969.69"/>
<text text-anchor="start" x="61.31" y="-978.49" font-family="Helvetica,sans-Serif" font-size="14.00">PK</text>
<polygon fill="none" stroke="black" points="84.31,-969.69 84.31,-994.69 344.31,-994.69 344.31,-969.69 84.31,-969.69"/>
<text text-anchor="start" x="89.31" y="-978.49" font-family="Helvetica,sans-Serif" font-size="14.00">unique_id</text>
<polygon fill="none" stroke="black" points="344.31,-969.69 344.31,-994.69 430.31,-994.69 430.31,-969.69 344.31,-969.69"/>
<text text-anchor="start" x="366.81" y="-978.49" font-family="Helvetica,sans-Serif" font-size="14.00">string</text>
<polygon fill="none" stroke="black" points="56.31,-944.69 56.31,-969.69 84.31,-969.69 84.31,-944.69 56.31,-944.69"/>
<text text-anchor="start" x="61.31" y="-953.49" font-family="Helvetica,sans-Serif" font-size="14.00">PK</text>
<polygon fill="none" stroke="black" points="84.31,-944.69 84.31,-969.69 344.31,-969.69 344.31,-944.69 84.31,-944.69"/>
<text text-anchor="start" x="89.31" y="-953.49" font-family="Helvetica,sans-Serif" font-size="14.00">integration_outcome_type</text>
<polygon fill="none" stroke="black" points="344.31,-944.69 344.31,-969.69 430.31,-969.69 430.31,-944.69 344.31,-944.69"/>
<text text-anchor="start" x="349.31" y="-953.49" font-family="Helvetica,sans-Serif" font-size="14.00">categorical</text>
<polygon fill="none" stroke="black" points="56.31,-919.69 56.31,-944.69 84.31,-944.69 84.31,-919.69 56.31,-919.69"/>
<polygon fill="none" stroke="black" points="84.31,-919.69 84.31,-944.69 344.31,-944.69 344.31,-919.69 84.31,-919.69"/>
<text text-anchor="start" x="89.31" y="-928.49" font-family="Helvetica,sans-Serif" font-size="14.00">integration_outcome_achieved_date</text>
<polygon fill="none" stroke="black" points="344.31,-919.69 344.31,-944.69 430.31,-944.69 430.31,-919.69 344.31,-919.69"/>
<text text-anchor="start" x="371.81" y="-928.49" font-family="Helvetica,sans-Serif" font-size="14.00">date</text>
<polygon fill="none" stroke="black" points="56.31,-894.69 56.31,-919.69 84.31,-919.69 84.31,-894.69 56.31,-894.69"/>
<polygon fill="none" stroke="black" points="84.31,-894.69 84.31,-919.69 344.31,-919.69 344.31,-894.69 84.31,-894.69"/>
<text text-anchor="start" x="89.31" y="-903.49" font-family="Helvetica,sans-Serif" font-size="14.00">integration_social</text>
<polygon fill="none" stroke="black" points="344.31,-894.69 344.31,-919.69 430.31,-919.69 430.31,-894.69 344.31,-894.69"/>
<text text-anchor="start" x="349.31" y="-903.49" font-family="Helvetica,sans-Serif" font-size="14.00">categorical</text>
<polygon fill="none" stroke="black" points="56.31,-869.69 56.31,-894.69 84.31,-894.69 84.31,-869.69 56.31,-869.69"/>
<polygon fill="none" stroke="black" points="84.31,-869.69 84.31,-894.69 344.31,-894.69 344.31,-869.69 84.31,-869.69"/>
<text text-anchor="start" x="89.31" y="-878.49" font-family="Helvetica,sans-Serif" font-size="14.00">integration_comms_language</text>
<polygon fill="none" stroke="black" points="344.31,-869.69 344.31,-894.69 430.31,-894.69 430.31,-869.69 344.31,-869.69"/>
<text text-anchor="start" x="349.31" y="-878.49" font-family="Helvetica,sans-Serif" font-size="14.00">categorical</text>
<polygon fill="none" stroke="black" points="56.31,-844.69 56.31,-869.69 84.31,-869.69 84.31,-844.69 56.31,-844.69"/>
<polygon fill="none" stroke="black" points="84.31,-844.69 84.31,-869.69 344.31,-869.69 344.31,-844.69 84.31,-844.69"/>
<text text-anchor="start" x="89.31" y="-853.49" font-family="Helvetica,sans-Serif" font-size="14.00">integration_digital</text>
<polygon fill="none" stroke="black" points="344.31,-844.69 344.31,-869.69 430.31,-869.69 430.31,-844.69 344.31,-844.69"/>
<text text-anchor="start" x="349.31" y="-853.49" font-family="Helvetica,sans-Serif" font-size="14.00">categorical</text>
</g>
<!-- integration_plan&#45;&#45;person -->
<g id="integration_plan&#45;&#45;person" class="edge">
<title>integration_plan&#45;&#45;person</title>
<path fill="none" stroke="#7f7f7f" stroke-dasharray="5,2" d="M407.54,-840.67C467.64,-806.63 535.1,-768.42 593.13,-735.55"/>
<text text-anchor="middle" x="588.13" y="-739.35" font-family="Times,serif" font-size="14.00">1</text>
<text text-anchor="middle" x="392.04" y="-829.47" font-family="Times,serif" font-size="14.00">0..N</text>
</g>
<!-- employment_intermediate -->
<g id="employment_intermediate" class="node">
<title>employment_intermediate</title>
<polygon fill="#f4cae4" stroke="transparent" points="391,-542.02 0,-542.02 0,-431.02 391,-431.02 391,-542.02"/>
<polygon fill="none" stroke="black" points="8.5,-509.52 8.5,-537.52 383.5,-537.52 383.5,-509.52 8.5,-509.52"/>
<text text-anchor="start" x="78.5" y="-520.72" font-family="Helvetica,sans-Serif" font-weight="bold" font-size="16.00">employment_intermediate</text>
<polygon fill="none" stroke="black" points="8.5,-484.52 8.5,-509.52 36.5,-509.52 36.5,-484.52 8.5,-484.52"/>
<text text-anchor="start" x="13.5" y="-493.32" font-family="Helvetica,sans-Serif" font-size="14.00">PK</text>
<polygon fill="none" stroke="black" points="36.5,-484.52 36.5,-509.52 332.5,-509.52 332.5,-484.52 36.5,-484.52"/>
<text text-anchor="start" x="41.5" y="-493.32" font-family="Helvetica,sans-Serif" font-size="14.00">unique_id</text>
<polygon fill="none" stroke="black" points="332.5,-484.52 332.5,-509.52 383.5,-509.52 383.5,-484.52 332.5,-484.52"/>
<text text-anchor="start" x="337.5" y="-493.32" font-family="Helvetica,sans-Serif" font-size="14.00">string</text>
<polygon fill="none" stroke="black" points="8.5,-459.52 8.5,-484.52 36.5,-484.52 36.5,-459.52 8.5,-459.52"/>
<polygon fill="none" stroke="black" points="36.5,-459.52 36.5,-484.52 332.5,-484.52 332.5,-459.52 36.5,-459.52"/>
<text text-anchor="start" x="41.5" y="-468.32" font-family="Helvetica,sans-Serif" font-size="14.00">date_intermediate_employment_outcome</text>
<polygon fill="none" stroke="black" points="332.5,-459.52 332.5,-484.52 383.5,-484.52 383.5,-459.52 332.5,-459.52"/>
<text text-anchor="start" x="342.5" y="-468.32" font-family="Helvetica,sans-Serif" font-size="14.00">date</text>
<polygon fill="none" stroke="black" points="8.5,-434.52 8.5,-459.52 36.5,-459.52 36.5,-434.52 8.5,-434.52"/>
<polygon fill="none" stroke="black" points="36.5,-434.52 36.5,-459.52 332.5,-459.52 332.5,-434.52 36.5,-434.52"/>
<text text-anchor="start" x="41.5" y="-443.32" font-family="Helvetica,sans-Serif" font-size="14.00">intermediate_employment_outcome_type</text>
<polygon fill="none" stroke="black" points="332.5,-434.52 332.5,-459.52 383.5,-459.52 383.5,-434.52 332.5,-434.52"/>
<text text-anchor="start" x="347.5" y="-443.32" font-family="Helvetica,sans-Serif" font-size="14.00">list</text>
</g>
<!-- employment_intermediate&#45;&#45;person -->
<g id="employment_intermediate&#45;&#45;person" class="edge">
<title>employment_intermediate&#45;&#45;person</title>
<path fill="none" stroke="#7f7f7f" stroke-dasharray="5,2" d="M373.81,-542.13C445.08,-564.35 526.02,-589.6 593.24,-610.56"/>
<text text-anchor="middle" x="588.24" y="-614.36" font-family="Times,serif" font-size="14.00">1</text>
<text text-anchor="middle" x="362.31" y="-545.93" font-family="Times,serif" font-size="14.00">0,1</text>
</g>
<!-- employment_entry -->
<g id="employment_entry" class="node">
<title>employment_entry</title>
<polygon fill="#f4cae4" stroke="transparent" points="669.81,-279.61 294.81,-279.61 294.81,-18.61 669.81,-18.61 669.81,-279.61"/>
<polygon fill="none" stroke="black" points="303.31,-247.11 303.31,-275.11 662.31,-275.11 662.31,-247.11 303.31,-247.11"/>
<text text-anchor="start" x="398.81" y="-258.31" font-family="Helvetica,sans-Serif" font-weight="bold" font-size="16.00">employment_entry</text>
<polygon fill="none" stroke="black" points="303.31,-222.11 303.31,-247.11 331.31,-247.11 331.31,-222.11 303.31,-222.11"/>
<text text-anchor="start" x="308.31" y="-230.91" font-family="Helvetica,sans-Serif" font-size="14.00">PK</text>
<polygon fill="none" stroke="black" points="331.31,-222.11 331.31,-247.11 576.31,-247.11 576.31,-222.11 331.31,-222.11"/>
<text text-anchor="start" x="336.31" y="-230.91" font-family="Helvetica,sans-Serif" font-size="14.00">unique_id</text>
<polygon fill="none" stroke="black" points="576.31,-222.11 576.31,-247.11 662.31,-247.11 662.31,-222.11 576.31,-222.11"/>
<text text-anchor="start" x="598.81" y="-230.91" font-family="Helvetica,sans-Serif" font-size="14.00">string</text>
<polygon fill="none" stroke="black" points="303.31,-197.11 303.31,-222.11 331.31,-222.11 331.31,-197.11 303.31,-197.11"/>
<polygon fill="none" stroke="black" points="331.31,-197.11 331.31,-222.11 576.31,-222.11 576.31,-197.11 331.31,-197.11"/>
<text text-anchor="start" x="336.31" y="-205.91" font-family="Helvetica,sans-Serif" font-size="14.00">employment_entry_outcome_type</text>
<polygon fill="none" stroke="black" points="576.31,-197.11 576.31,-222.11 662.31,-222.11 662.31,-197.11 576.31,-197.11"/>
<text text-anchor="start" x="581.31" y="-205.91" font-family="Helvetica,sans-Serif" font-size="14.00">categorical</text>
<polygon fill="none" stroke="black" points="303.31,-172.11 303.31,-197.11 331.31,-197.11 331.31,-172.11 303.31,-172.11"/>
<polygon fill="none" stroke="black" points="331.31,-172.11 331.31,-197.11 576.31,-197.11 576.31,-172.11 331.31,-172.11"/>
<text text-anchor="start" x="336.31" y="-180.91" font-family="Helvetica,sans-Serif" font-size="14.00">date_employment_entry</text>
<polygon fill="none" stroke="black" points="576.31,-172.11 576.31,-197.11 662.31,-197.11 662.31,-172.11 576.31,-172.11"/>
<text text-anchor="start" x="603.81" y="-180.91" font-family="Helvetica,sans-Serif" font-size="14.00">date</text>
<polygon fill="none" stroke="black" points="303.31,-147.11 303.31,-172.11 331.31,-172.11 331.31,-147.11 303.31,-147.11"/>
<polygon fill="none" stroke="black" points="331.31,-147.11 331.31,-172.11 576.31,-172.11 576.31,-147.11 331.31,-147.11"/>
<text text-anchor="start" x="336.31" y="-155.91" font-family="Helvetica,sans-Serif" font-size="14.00">employment_entry_status</text>
<polygon fill="none" stroke="black" points="576.31,-147.11 576.31,-172.11 662.31,-172.11 662.31,-147.11 576.31,-147.11"/>
<text text-anchor="start" x="581.31" y="-155.91" font-family="Helvetica,sans-Serif" font-size="14.00">categorical</text>
<polygon fill="none" stroke="black" points="303.31,-122.11 303.31,-147.11 331.31,-147.11 331.31,-122.11 303.31,-122.11"/>
<polygon fill="none" stroke="black" points="331.31,-122.11 331.31,-147.11 576.31,-147.11 576.31,-122.11 331.31,-122.11"/>
<text text-anchor="start" x="336.31" y="-130.91" font-family="Helvetica,sans-Serif" font-size="14.00">hours_of_employment_entry</text>
<polygon fill="none" stroke="black" points="576.31,-122.11 576.31,-147.11 662.31,-147.11 662.31,-122.11 576.31,-122.11"/>
<text text-anchor="start" x="581.31" y="-130.91" font-family="Helvetica,sans-Serif" font-size="14.00">categorical</text>
<polygon fill="none" stroke="black" points="303.31,-97.11 303.31,-122.11 331.31,-122.11 331.31,-97.11 303.31,-97.11"/>
<polygon fill="none" stroke="black" points="331.31,-97.11 331.31,-122.11 576.31,-122.11 576.31,-97.11 331.31,-97.11"/>
<text text-anchor="start" x="336.31" y="-105.91" font-family="Helvetica,sans-Serif" font-size="14.00">wage_employment_entry</text>
<polygon fill="none" stroke="black" points="576.31,-97.11 576.31,-122.11 662.31,-122.11 662.31,-97.11 576.31,-97.11"/>
<text text-anchor="start" x="581.31" y="-105.91" font-family="Helvetica,sans-Serif" font-size="14.00">categorical</text>
<polygon fill="none" stroke="black" points="303.31,-72.11 303.31,-97.11 331.31,-97.11 331.31,-72.11 303.31,-72.11"/>
<polygon fill="none" stroke="black" points="331.31,-72.11 331.31,-97.11 576.31,-97.11 576.31,-72.11 331.31,-72.11"/>
<text text-anchor="start" x="336.31" y="-80.91" font-family="Helvetica,sans-Serif" font-size="14.00">eduction_training_status_entry</text>
<polygon fill="none" stroke="black" points="576.31,-72.11 576.31,-97.11 662.31,-97.11 662.31,-72.11 576.31,-72.11"/>
<text text-anchor="start" x="581.31" y="-80.91" font-family="Helvetica,sans-Serif" font-size="14.00">categorical</text>
<polygon fill="none" stroke="black" points="303.31,-47.11 303.31,-72.11 331.31,-72.11 331.31,-47.11 303.31,-47.11"/>
<polygon fill="none" stroke="black" points="331.31,-47.11 331.31,-72.11 576.31,-72.11 576.31,-47.11 331.31,-47.11"/>
<text text-anchor="start" x="336.31" y="-55.91" font-family="Helvetica,sans-Serif" font-size="14.00">employment_entry_occupation</text>
<polygon fill="none" stroke="black" points="576.31,-47.11 576.31,-72.11 662.31,-72.11 662.31,-47.11 576.31,-47.11"/>
<text text-anchor="start" x="598.81" y="-55.91" font-family="Helvetica,sans-Serif" font-size="14.00">string</text>
<polygon fill="none" stroke="black" points="303.31,-22.11 303.31,-47.11 331.31,-47.11 331.31,-22.11 303.31,-22.11"/>
<polygon fill="none" stroke="black" points="331.31,-22.11 331.31,-47.11 576.31,-47.11 576.31,-22.11 331.31,-22.11"/>
<text text-anchor="start" x="336.31" y="-30.91" font-family="Helvetica,sans-Serif" font-size="14.00">employment_entry_sector</text>
<polygon fill="none" stroke="black" points="576.31,-22.11 576.31,-47.11 662.31,-47.11 662.31,-22.11 576.31,-22.11"/>
<text text-anchor="start" x="598.81" y="-30.91" font-family="Helvetica,sans-Serif" font-size="14.00">string</text>
</g>
<!-- employment_entry&#45;&#45;person -->
<g id="employment_entry&#45;&#45;person" class="edge">
<title>employment_entry&#45;&#45;person</title>
<path fill="none" stroke="#7f7f7f" stroke-dasharray="5,2" d="M547.67,-279.7C594.26,-372.78 655.43,-494.98 695.09,-574.23"/>
<text text-anchor="middle" x="690.09" y="-563.03" font-family="Times,serif" font-size="14.00">1</text>
<text text-anchor="middle" x="536.17" y="-283.5" font-family="Times,serif" font-size="14.00">0,1</text>
</g>
<!-- employment_sustain -->
<g id="employment_sustain" class="node">
<title>employment_sustain</title>
<polygon fill="#f4cae4" stroke="transparent" points="1097.41,-236 729.41,-236 729.41,0 1097.41,0 1097.41,-236"/>
<polygon fill="none" stroke="black" points="737.41,-204 737.41,-232 1089.41,-232 1089.41,-204 737.41,-204"/>
<text text-anchor="start" x="820.91" y="-215.2" font-family="Helvetica,sans-Serif" font-weight="bold" font-size="16.00">employment_sustain</text>
<polygon fill="none" stroke="black" points="737.41,-179 737.41,-204 765.41,-204 765.41,-179 737.41,-179"/>
<text text-anchor="start" x="742.41" y="-187.8" font-family="Helvetica,sans-Serif" font-size="14.00">PK</text>
<polygon fill="none" stroke="black" points="765.41,-179 765.41,-204 1003.41,-204 1003.41,-179 765.41,-179"/>
<text text-anchor="start" x="770.41" y="-187.8" font-family="Helvetica,sans-Serif" font-size="14.00">unique_id</text>
<polygon fill="none" stroke="black" points="1003.41,-179 1003.41,-204 1089.41,-204 1089.41,-179 1003.41,-179"/>
<text text-anchor="start" x="1025.91" y="-187.8" font-family="Helvetica,sans-Serif" font-size="14.00">string</text>
<polygon fill="none" stroke="black" points="737.41,-154 737.41,-179 765.41,-179 765.41,-154 737.41,-154"/>
<polygon fill="none" stroke="black" points="765.41,-154 765.41,-179 1003.41,-179 1003.41,-154 765.41,-154"/>
<text text-anchor="start" x="770.41" y="-162.8" font-family="Helvetica,sans-Serif" font-size="14.00">employment_sustainment_date</text>
<polygon fill="none" stroke="black" points="1003.41,-154 1003.41,-179 1089.41,-179 1089.41,-154 1003.41,-154"/>
<text text-anchor="start" x="1030.91" y="-162.8" font-family="Helvetica,sans-Serif" font-size="14.00">date</text>
<polygon fill="none" stroke="black" points="737.41,-129 737.41,-154 765.41,-154 765.41,-129 737.41,-129"/>
<polygon fill="none" stroke="black" points="765.41,-129 765.41,-154 1003.41,-154 1003.41,-129 765.41,-129"/>
<text text-anchor="start" x="770.41" y="-137.8" font-family="Helvetica,sans-Serif" font-size="14.00">employment_sustain_status</text>
<polygon fill="none" stroke="black" points="1003.41,-129 1003.41,-154 1089.41,-154 1089.41,-129 1003.41,-129"/>
<text text-anchor="start" x="1008.41" y="-137.8" font-family="Helvetica,sans-Serif" font-size="14.00">categorical</text>
<polygon fill="none" stroke="black" points="737.41,-104 737.41,-129 765.41,-129 765.41,-104 737.41,-104"/>
<polygon fill="none" stroke="black" points="765.41,-104 765.41,-129 1003.41,-129 1003.41,-104 765.41,-104"/>
<text text-anchor="start" x="770.41" y="-112.8" font-family="Helvetica,sans-Serif" font-size="14.00">hours_of_employment_sustain</text>
<polygon fill="none" stroke="black" points="1003.41,-104 1003.41,-129 1089.41,-129 1089.41,-104 1003.41,-104"/>
<text text-anchor="start" x="1008.41" y="-112.8" font-family="Helvetica,sans-Serif" font-size="14.00">categorical</text>
<polygon fill="none" stroke="black" points="737.41,-79 737.41,-104 765.41,-104 765.41,-79 737.41,-79"/>
<polygon fill="none" stroke="black" points="765.41,-79 765.41,-104 1003.41,-104 1003.41,-79 765.41,-79"/>
<text text-anchor="start" x="770.41" y="-87.8" font-family="Helvetica,sans-Serif" font-size="14.00">wage_employment_sustain</text>
<polygon fill="none" stroke="black" points="1003.41,-79 1003.41,-104 1089.41,-104 1089.41,-79 1003.41,-79"/>
<text text-anchor="start" x="1008.41" y="-87.8" font-family="Helvetica,sans-Serif" font-size="14.00">categorical</text>
<polygon fill="none" stroke="black" points="737.41,-54 737.41,-79 765.41,-79 765.41,-54 737.41,-54"/>
<polygon fill="none" stroke="black" points="765.41,-54 765.41,-79 1003.41,-79 1003.41,-54 765.41,-54"/>
<text text-anchor="start" x="770.41" y="-62.8" font-family="Helvetica,sans-Serif" font-size="14.00">eduction_training_status_sustain</text>
<polygon fill="none" stroke="black" points="1003.41,-54 1003.41,-79 1089.41,-79 1089.41,-54 1003.41,-54"/>
<text text-anchor="start" x="1008.41" y="-62.8" font-family="Helvetica,sans-Serif" font-size="14.00">categorical</text>
<polygon fill="none" stroke="black" points="737.41,-29 737.41,-54 765.41,-54 765.41,-29 737.41,-29"/>
<polygon fill="none" stroke="black" points="765.41,-29 765.41,-54 1003.41,-54 1003.41,-29 765.41,-29"/>
<text text-anchor="start" x="770.41" y="-37.8" font-family="Helvetica,sans-Serif" font-size="14.00">employment_susatin_occupation</text>
<polygon fill="none" stroke="black" points="1003.41,-29 1003.41,-54 1089.41,-54 1089.41,-29 1003.41,-29"/>
<text text-anchor="start" x="1025.91" y="-37.8" font-family="Helvetica,sans-Serif" font-size="14.00">string</text>
<polygon fill="none" stroke="black" points="737.41,-4 737.41,-29 765.41,-29 765.41,-4 737.41,-4"/>
<polygon fill="none" stroke="black" points="765.41,-4 765.41,-29 1003.41,-29 1003.41,-4 765.41,-4"/>
<text text-anchor="start" x="770.41" y="-12.8" font-family="Helvetica,sans-Serif" font-size="14.00">employment_sustain_sector</text>
<polygon fill="none" stroke="black" points="1003.41,-4 1003.41,-29 1089.41,-29 1089.41,-4 1003.41,-4"/>
<text text-anchor="start" x="1025.91" y="-12.8" font-family="Helvetica,sans-Serif" font-size="14.00">string</text>
</g>
<!-- employment_sustain&#45;&#45;person -->
<g id="employment_sustain&#45;&#45;person" class="edge">
<title>employment_sustain&#45;&#45;person</title>
<path fill="none" stroke="#7f7f7f" stroke-dasharray="5,2" d="M874.26,-236.16C840.29,-338.67 792.02,-484.32 762.28,-574.05"/>
<text text-anchor="middle" x="757.28" y="-562.85" font-family="Times,serif" font-size="14.00">1</text>
<text text-anchor="middle" x="862.76" y="-239.96" font-family="Times,serif" font-size="14.00">0,1</text>
</g>
<!-- date_last_seen -->
<g id="date_last_seen" class="node">
<title>date_last_seen</title>
<polygon fill="#e6f5c9" stroke="transparent" points="1301.69,-371.87 1093.69,-371.87 1093.69,-285.87 1301.69,-285.87 1301.69,-371.87"/>
<polygon fill="none" stroke="black" points="1101.69,-339.87 1101.69,-367.87 1293.69,-367.87 1293.69,-339.87 1101.69,-339.87"/>
<text text-anchor="start" x="1131.69" y="-351.07" font-family="Helvetica,sans-Serif" font-weight="bold" font-size="16.00">date_last_seen</text>
<polygon fill="none" stroke="black" points="1101.69,-314.87 1101.69,-339.87 1129.69,-339.87 1129.69,-314.87 1101.69,-314.87"/>
<text text-anchor="start" x="1106.69" y="-323.67" font-family="Helvetica,sans-Serif" font-size="14.00">PK</text>
<polygon fill="none" stroke="black" points="1129.69,-314.87 1129.69,-339.87 1242.69,-339.87 1242.69,-314.87 1129.69,-314.87"/>
<text text-anchor="start" x="1134.69" y="-323.67" font-family="Helvetica,sans-Serif" font-size="14.00">unique_id</text>
<polygon fill="none" stroke="black" points="1242.69,-314.87 1242.69,-339.87 1293.69,-339.87 1293.69,-314.87 1242.69,-314.87"/>
<text text-anchor="start" x="1247.69" y="-323.67" font-family="Helvetica,sans-Serif" font-size="14.00">string</text>
<polygon fill="none" stroke="black" points="1101.69,-289.87 1101.69,-314.87 1129.69,-314.87 1129.69,-289.87 1101.69,-289.87"/>
<polygon fill="none" stroke="black" points="1129.69,-289.87 1129.69,-314.87 1242.69,-314.87 1242.69,-289.87 1129.69,-289.87"/>
<text text-anchor="start" x="1134.69" y="-298.67" font-family="Helvetica,sans-Serif" font-size="14.00">date_last_seen</text>
<polygon fill="none" stroke="black" points="1242.69,-289.87 1242.69,-314.87 1293.69,-314.87 1293.69,-289.87 1242.69,-289.87"/>
<text text-anchor="start" x="1252.69" y="-298.67" font-family="Helvetica,sans-Serif" font-size="14.00">date</text>
</g>
<!-- date_last_seen&#45;&#45;person -->
<g id="date_last_seen&#45;&#45;person" class="edge">
<title>date_last_seen&#45;&#45;person</title>
<path fill="none" stroke="#7f7f7f" stroke-dasharray="5,2" d="M1136.32,-372.17C1063.51,-423.53 940.6,-510.23 850.04,-574.11"/>
<text text-anchor="middle" x="845.04" y="-562.91" font-family="Times,serif" font-size="14.00">1</text>
<text text-anchor="middle" x="1124.82" y="-375.97" font-family="Times,serif" font-size="14.00">0,1</text>
</g>
</g>
</svg>
