<?xml version="1.0" encoding="UTF-8" standalone="no"?>
<!DOCTYPE svg PUBLIC "-//W3C//DTD SVG 1.1//EN"
 "http://www.w3.org/Graphics/SVG/1.1/DTD/svg11.dtd">
<!-- Generated by graphviz version 2.43.0 (0)
 -->
<!-- Title: %3 Pages: 1 -->
<svg width="1441pt" height="1383pt"
 viewBox="0.00 0.00 1441.25 1383.25" xmlns="http://www.w3.org/2000/svg" xmlns:xlink="http://www.w3.org/1999/xlink">
<g id="graph0" class="graph" transform="scale(1 1) rotate(0) translate(4 1379.25)">
<title>%3</title>
<polygon fill="white" stroke="transparent" points="-4,4 -4,-1379.25 1437.25,-1379.25 1437.25,4 -4,4"/>
<!-- person -->
<g id="person" class="node">
<title>person</title>
<polygon fill="#b3e2cd" stroke="transparent" points="861.19,-657.79 577.19,-657.79 577.19,-496.79 861.19,-496.79 861.19,-657.79"/>
<polygon fill="none" stroke="black" points="585.19,-625.29 585.19,-653.29 853.19,-653.29 853.19,-625.29 585.19,-625.29"/>
<text text-anchor="start" x="687.69" y="-636.49" font-family="Helvetica,sans-Serif" font-weight="bold" font-size="16.00">person</text>
<polygon fill="none" stroke="black" points="585.19,-600.29 585.19,-625.29 613.19,-625.29 613.19,-600.29 585.19,-600.29"/>
<text text-anchor="start" x="590.19" y="-609.09" font-family="Helvetica,sans-Serif" font-size="14.00">PK</text>
<polygon fill="none" stroke="black" points="613.19,-600.29 613.19,-625.29 767.19,-625.29 767.19,-600.29 613.19,-600.29"/>
<text text-anchor="start" x="618.19" y="-609.09" font-family="Helvetica,sans-Serif" font-size="14.00">unique_id</text>
<polygon fill="none" stroke="black" points="767.19,-600.29 767.19,-625.29 853.19,-625.29 853.19,-600.29 767.19,-600.29"/>
<text text-anchor="start" x="789.69" y="-609.09" font-family="Helvetica,sans-Serif" font-size="14.00">string</text>
<polygon fill="none" stroke="black" points="585.19,-575.29 585.19,-600.29 613.19,-600.29 613.19,-575.29 585.19,-575.29"/>
<polygon fill="none" stroke="black" points="613.19,-575.29 613.19,-600.29 767.19,-600.29 767.19,-575.29 613.19,-575.29"/>
<text text-anchor="start" x="618.19" y="-584.09" font-family="Helvetica,sans-Serif" font-size="14.00">year_of_birth</text>
<polygon fill="none" stroke="black" points="767.19,-575.29 767.19,-600.29 853.19,-600.29 853.19,-575.29 767.19,-575.29"/>
<text text-anchor="start" x="794.69" y="-584.09" font-family="Helvetica,sans-Serif" font-size="14.00">year</text>
<polygon fill="none" stroke="black" points="585.19,-550.29 585.19,-575.29 613.19,-575.29 613.19,-550.29 585.19,-550.29"/>
<polygon fill="none" stroke="black" points="613.19,-550.29 613.19,-575.29 767.19,-575.29 767.19,-550.29 613.19,-550.29"/>
<text text-anchor="start" x="618.19" y="-559.09" font-family="Helvetica,sans-Serif" font-size="14.00">gender</text>
<polygon fill="none" stroke="black" points="767.19,-550.29 767.19,-575.29 853.19,-575.29 853.19,-550.29 767.19,-550.29"/>
<text text-anchor="start" x="772.19" y="-559.09" font-family="Helvetica,sans-Serif" font-size="14.00">categorical</text>
<polygon fill="none" stroke="black" points="585.19,-525.29 585.19,-550.29 613.19,-550.29 613.19,-525.29 585.19,-525.29"/>
<polygon fill="none" stroke="black" points="613.19,-525.29 613.19,-550.29 767.19,-550.29 767.19,-525.29 613.19,-525.29"/>
<text text-anchor="start" x="618.19" y="-534.09" font-family="Helvetica,sans-Serif" font-size="14.00">dispersal_area</text>
<polygon fill="none" stroke="black" points="767.19,-525.29 767.19,-550.29 853.19,-550.29 853.19,-525.29 767.19,-525.29"/>
<text text-anchor="start" x="789.69" y="-534.09" font-family="Helvetica,sans-Serif" font-size="14.00">string</text>
<polygon fill="none" stroke="black" points="585.19,-500.29 585.19,-525.29 613.19,-525.29 613.19,-500.29 585.19,-500.29"/>
<polygon fill="none" stroke="black" points="613.19,-500.29 613.19,-525.29 767.19,-525.29 767.19,-500.29 613.19,-500.29"/>
<text text-anchor="start" x="618.19" y="-509.09" font-family="Helvetica,sans-Serif" font-size="14.00">date_started_service</text>
<polygon fill="none" stroke="black" points="767.19,-500.29 767.19,-525.29 853.19,-525.29 853.19,-500.29 767.19,-500.29"/>
<text text-anchor="start" x="794.69" y="-509.09" font-family="Helvetica,sans-Serif" font-size="14.00">date</text>
</g>
<!-- housing_entry -->
<g id="housing_entry" class="node">
<title>housing_entry</title>
<polygon fill="#fdcdac" stroke="transparent" points="1433.25,-632.79 1090.25,-632.79 1090.25,-521.79 1433.25,-521.79 1433.25,-632.79"/>
<polygon fill="none" stroke="black" points="1098.75,-600.29 1098.75,-628.29 1425.75,-628.29 1425.75,-600.29 1098.75,-600.29"/>
<text text-anchor="start" x="1198.25" y="-611.49" font-family="Helvetica,sans-Serif" font-weight="bold" font-size="16.00">housing_entry</text>
<polygon fill="none" stroke="black" points="1098.75,-575.29 1098.75,-600.29 1126.75,-600.29 1126.75,-575.29 1098.75,-575.29"/>
<text text-anchor="start" x="1103.75" y="-584.09" font-family="Helvetica,sans-Serif" font-size="14.00">PK</text>
<polygon fill="none" stroke="black" points="1126.75,-575.29 1126.75,-600.29 1339.75,-600.29 1339.75,-575.29 1126.75,-575.29"/>
<text text-anchor="start" x="1131.75" y="-584.09" font-family="Helvetica,sans-Serif" font-size="14.00">unique_id</text>
<polygon fill="none" stroke="black" points="1339.75,-575.29 1339.75,-600.29 1425.75,-600.29 1425.75,-575.29 1339.75,-575.29"/>
<text text-anchor="start" x="1362.25" y="-584.09" font-family="Helvetica,sans-Serif" font-size="14.00">string</text>
<polygon fill="none" stroke="black" points="1098.75,-550.29 1098.75,-575.29 1126.75,-575.29 1126.75,-550.29 1098.75,-550.29"/>
<polygon fill="none" stroke="black" points="1126.75,-550.29 1126.75,-575.29 1339.75,-575.29 1339.75,-550.29 1126.75,-550.29"/>
<text text-anchor="start" x="1131.75" y="-559.09" font-family="Helvetica,sans-Serif" font-size="14.00">housing_entry_date</text>
<polygon fill="none" stroke="black" points="1339.75,-550.29 1339.75,-575.29 1425.75,-575.29 1425.75,-550.29 1339.75,-550.29"/>
<text text-anchor="start" x="1367.25" y="-559.09" font-family="Helvetica,sans-Serif" font-size="14.00">date</text>
<polygon fill="none" stroke="black" points="1098.75,-525.29 1098.75,-550.29 1126.75,-550.29 1126.75,-525.29 1098.75,-525.29"/>
<polygon fill="none" stroke="black" points="1126.75,-525.29 1126.75,-550.29 1339.75,-550.29 1339.75,-525.29 1126.75,-525.29"/>
<text text-anchor="start" x="1131.75" y="-534.09" font-family="Helvetica,sans-Serif" font-size="14.00">housing_entry_accomodation</text>
<polygon fill="none" stroke="black" points="1339.75,-525.29 1339.75,-550.29 1425.75,-550.29 1425.75,-525.29 1339.75,-525.29"/>
<text text-anchor="start" x="1344.75" y="-534.09" font-family="Helvetica,sans-Serif" font-size="14.00">categorical</text>
</g>
<!-- housing_entry&#45;&#45;person -->
<g id="housing_entry&#45;&#45;person" class="edge">
<title>housing_entry&#45;&#45;person</title>
<path fill="none" stroke="#7f7f7f" stroke-dasharray="5,2" d="M1090.08,-577.29C1016.5,-577.29 931.57,-577.29 861.57,-577.29"/>
<text text-anchor="middle" x="866.57" y="-581.09" font-family="Times,serif" font-size="14.00">1</text>
<text text-anchor="middle" x="1078.58" y="-581.09" font-family="Times,serif" font-size="14.00">0,1</text>
</g>
<!-- housing_sustain -->
<g id="housing_sustain" class="node">
<title>housing_sustain</title>
<polygon fill="#fdcdac" stroke="transparent" points="1273.84,-977.19 981.84,-977.19 981.84,-891.19 1273.84,-891.19 1273.84,-977.19"/>
<polygon fill="none" stroke="black" points="989.84,-945.19 989.84,-973.19 1265.84,-973.19 1265.84,-945.19 989.84,-945.19"/>
<text text-anchor="start" x="1055.34" y="-956.39" font-family="Helvetica,sans-Serif" font-weight="bold" font-size="16.00">housing_sustain</text>
<polygon fill="none" stroke="black" points="989.84,-920.19 989.84,-945.19 1017.84,-945.19 1017.84,-920.19 989.84,-920.19"/>
<text text-anchor="start" x="994.84" y="-928.99" font-family="Helvetica,sans-Serif" font-size="14.00">PK</text>
<polygon fill="none" stroke="black" points="1017.84,-920.19 1017.84,-945.19 1214.84,-945.19 1214.84,-920.19 1017.84,-920.19"/>
<text text-anchor="start" x="1022.84" y="-928.99" font-family="Helvetica,sans-Serif" font-size="14.00">unique_id</text>
<polygon fill="none" stroke="black" points="1214.84,-920.19 1214.84,-945.19 1265.84,-945.19 1265.84,-920.19 1214.84,-920.19"/>
<text text-anchor="start" x="1219.84" y="-928.99" font-family="Helvetica,sans-Serif" font-size="14.00">string</text>
<polygon fill="none" stroke="black" points="989.84,-895.19 989.84,-920.19 1017.84,-920.19 1017.84,-895.19 989.84,-895.19"/>
<polygon fill="none" stroke="black" points="1017.84,-895.19 1017.84,-920.19 1214.84,-920.19 1214.84,-895.19 1017.84,-895.19"/>
<text text-anchor="start" x="1022.84" y="-903.99" font-family="Helvetica,sans-Serif" font-size="14.00">housing_sustainment_date</text>
<polygon fill="none" stroke="black" points="1214.84,-895.19 1214.84,-920.19 1265.84,-920.19 1265.84,-895.19 1214.84,-895.19"/>
<text text-anchor="start" x="1224.84" y="-903.99" font-family="Helvetica,sans-Serif" font-size="14.00">date</text>
</g>
<!-- housing_sustain&#45;&#45;person -->
<g id="housing_sustain&#45;&#45;person" class="edge">
<title>housing_sustain&#45;&#45;person</title>
<path fill="none" stroke="#7f7f7f" stroke-dasharray="5,2" d="M1078.55,-891.14C1012.64,-833.57 894.51,-730.4 811.73,-658.12"/>
<text text-anchor="middle" x="806.73" y="-661.92" font-family="Times,serif" font-size="14.00">1</text>
<text text-anchor="middle" x="1067.05" y="-879.94" font-family="Times,serif" font-size="14.00">0,1</text>
</g>
<!-- baseline -->
<g id="baseline" class="node">
<title>baseline</title>
<polygon fill="#cbd5e8" stroke="transparent" points="897.44,-1375.25 519.44,-1375.25 519.44,-864.25 897.44,-864.25 897.44,-1375.25"/>
<polygon fill="none" stroke="black" points="527.44,-1342.75 527.44,-1370.75 889.44,-1370.75 889.44,-1342.75 527.44,-1342.75"/>
<text text-anchor="start" x="670.94" y="-1353.95" font-family="Helvetica,sans-Serif" font-weight="bold" font-size="16.00">baseline</text>
<polygon fill="none" stroke="black" points="527.44,-1317.75 527.44,-1342.75 555.44,-1342.75 555.44,-1317.75 527.44,-1317.75"/>
<text text-anchor="start" x="532.44" y="-1326.55" font-family="Helvetica,sans-Serif" font-size="14.00">PK</text>
<polygon fill="none" stroke="black" points="555.44,-1317.75 555.44,-1342.75 803.44,-1342.75 803.44,-1317.75 555.44,-1317.75"/>
<text text-anchor="start" x="560.44" y="-1326.55" font-family="Helvetica,sans-Serif" font-size="14.00">unique_id</text>
<polygon fill="none" stroke="black" points="803.44,-1317.75 803.44,-1342.75 889.44,-1342.75 889.44,-1317.75 803.44,-1317.75"/>
<text text-anchor="start" x="825.94" y="-1326.55" font-family="Helvetica,sans-Serif" font-size="14.00">string</text>
<polygon fill="none" stroke="black" points="527.44,-1292.75 527.44,-1317.75 555.44,-1317.75 555.44,-1292.75 527.44,-1292.75"/>
<polygon fill="none" stroke="black" points="555.44,-1292.75 555.44,-1317.75 803.44,-1317.75 803.44,-1292.75 555.44,-1292.75"/>
<text text-anchor="start" x="560.44" y="-1301.55" font-family="Helvetica,sans-Serif" font-size="14.00">ni_number</text>
<polygon fill="none" stroke="black" points="803.44,-1292.75 803.44,-1317.75 889.44,-1317.75 889.44,-1292.75 803.44,-1292.75"/>
<text text-anchor="start" x="825.94" y="-1301.55" font-family="Helvetica,sans-Serif" font-size="14.00">string</text>
<polygon fill="none" stroke="black" points="527.44,-1267.75 527.44,-1292.75 555.44,-1292.75 555.44,-1267.75 527.44,-1267.75"/>
<polygon fill="none" stroke="black" points="555.44,-1267.75 555.44,-1292.75 803.44,-1292.75 803.44,-1267.75 555.44,-1267.75"/>
<text text-anchor="start" x="560.44" y="-1276.55" font-family="Helvetica,sans-Serif" font-size="14.00">temp_ni_number</text>
<polygon fill="none" stroke="black" points="803.44,-1267.75 803.44,-1292.75 889.44,-1292.75 889.44,-1267.75 803.44,-1267.75"/>
<text text-anchor="start" x="825.94" y="-1276.55" font-family="Helvetica,sans-Serif" font-size="14.00">string</text>
<polygon fill="none" stroke="black" points="527.44,-1242.75 527.44,-1267.75 555.44,-1267.75 555.44,-1242.75 527.44,-1242.75"/>
<polygon fill="none" stroke="black" points="555.44,-1242.75 555.44,-1267.75 803.44,-1267.75 803.44,-1242.75 555.44,-1242.75"/>
<text text-anchor="start" x="560.44" y="-1251.55" font-family="Helvetica,sans-Serif" font-size="14.00">nationality</text>
<polygon fill="none" stroke="black" points="803.44,-1242.75 803.44,-1267.75 889.44,-1267.75 889.44,-1242.75 803.44,-1242.75"/>
<text text-anchor="start" x="808.44" y="-1251.55" font-family="Helvetica,sans-Serif" font-size="14.00">categorical</text>
<polygon fill="none" stroke="black" points="527.44,-1217.75 527.44,-1242.75 555.44,-1242.75 555.44,-1217.75 527.44,-1217.75"/>
<polygon fill="none" stroke="black" points="555.44,-1217.75 555.44,-1242.75 803.44,-1242.75 803.44,-1217.75 555.44,-1217.75"/>
<text text-anchor="start" x="560.44" y="-1226.55" font-family="Helvetica,sans-Serif" font-size="14.00">referral_source</text>
<polygon fill="none" stroke="black" points="803.44,-1217.75 803.44,-1242.75 889.44,-1242.75 889.44,-1217.75 803.44,-1217.75"/>
<text text-anchor="start" x="808.44" y="-1226.55" font-family="Helvetica,sans-Serif" font-size="14.00">categorical</text>
<polygon fill="none" stroke="black" points="527.44,-1192.75 527.44,-1217.75 555.44,-1217.75 555.44,-1192.75 527.44,-1192.75"/>
<polygon fill="none" stroke="black" points="555.44,-1192.75 555.44,-1217.75 803.44,-1217.75 803.44,-1192.75 555.44,-1192.75"/>
<text text-anchor="start" x="560.44" y="-1201.55" font-family="Helvetica,sans-Serif" font-size="14.00">transgender</text>
<polygon fill="none" stroke="black" points="803.44,-1192.75 803.44,-1217.75 889.44,-1217.75 889.44,-1192.75 803.44,-1192.75"/>
<text text-anchor="start" x="808.44" y="-1201.55" font-family="Helvetica,sans-Serif" font-size="14.00">categorical</text>
<polygon fill="none" stroke="black" points="527.44,-1167.75 527.44,-1192.75 555.44,-1192.75 555.44,-1167.75 527.44,-1167.75"/>
<polygon fill="none" stroke="black" points="555.44,-1167.75 555.44,-1192.75 803.44,-1192.75 803.44,-1167.75 555.44,-1167.75"/>
<text text-anchor="start" x="560.44" y="-1176.55" font-family="Helvetica,sans-Serif" font-size="14.00">current_dependents_uk</text>
<polygon fill="none" stroke="black" points="803.44,-1167.75 803.44,-1192.75 889.44,-1192.75 889.44,-1167.75 803.44,-1167.75"/>
<text text-anchor="start" x="808.44" y="-1176.55" font-family="Helvetica,sans-Serif" font-size="14.00">categorical</text>
<polygon fill="none" stroke="black" points="527.44,-1142.75 527.44,-1167.75 555.44,-1167.75 555.44,-1142.75 527.44,-1142.75"/>
<polygon fill="none" stroke="black" points="555.44,-1142.75 555.44,-1167.75 803.44,-1167.75 803.44,-1142.75 555.44,-1142.75"/>
<text text-anchor="start" x="560.44" y="-1151.55" font-family="Helvetica,sans-Serif" font-size="14.00">age_profile_of_dependents_uk</text>
<polygon fill="none" stroke="black" points="803.44,-1142.75 803.44,-1167.75 889.44,-1167.75 889.44,-1142.75 803.44,-1142.75"/>
<text text-anchor="start" x="835.94" y="-1151.55" font-family="Helvetica,sans-Serif" font-size="14.00">list</text>
<polygon fill="none" stroke="black" points="527.44,-1117.75 527.44,-1142.75 555.44,-1142.75 555.44,-1117.75 527.44,-1117.75"/>
<polygon fill="none" stroke="black" points="555.44,-1117.75 555.44,-1142.75 803.44,-1142.75 803.44,-1117.75 555.44,-1117.75"/>
<text text-anchor="start" x="560.44" y="-1126.55" font-family="Helvetica,sans-Serif" font-size="14.00">date_arrived_in_uk</text>
<polygon fill="none" stroke="black" points="803.44,-1117.75 803.44,-1142.75 889.44,-1142.75 889.44,-1117.75 803.44,-1117.75"/>
<text text-anchor="start" x="830.94" y="-1126.55" font-family="Helvetica,sans-Serif" font-size="14.00">date</text>
<polygon fill="none" stroke="black" points="527.44,-1092.75 527.44,-1117.75 555.44,-1117.75 555.44,-1092.75 527.44,-1092.75"/>
<polygon fill="none" stroke="black" points="555.44,-1092.75 555.44,-1117.75 803.44,-1117.75 803.44,-1092.75 555.44,-1092.75"/>
<text text-anchor="start" x="560.44" y="-1101.55" font-family="Helvetica,sans-Serif" font-size="14.00">date_asylum_status_granted</text>
<polygon fill="none" stroke="black" points="803.44,-1092.75 803.44,-1117.75 889.44,-1117.75 889.44,-1092.75 803.44,-1092.75"/>
<text text-anchor="start" x="830.94" y="-1101.55" font-family="Helvetica,sans-Serif" font-size="14.00">date</text>
<polygon fill="none" stroke="black" points="527.44,-1067.75 527.44,-1092.75 555.44,-1092.75 555.44,-1067.75 527.44,-1067.75"/>
<polygon fill="none" stroke="black" points="555.44,-1067.75 555.44,-1092.75 803.44,-1092.75 803.44,-1067.75 555.44,-1067.75"/>
<text text-anchor="start" x="560.44" y="-1076.55" font-family="Helvetica,sans-Serif" font-size="14.00">language_level_on_entry</text>
<polygon fill="none" stroke="black" points="803.44,-1067.75 803.44,-1092.75 889.44,-1092.75 889.44,-1067.75 803.44,-1067.75"/>
<text text-anchor="start" x="808.44" y="-1076.55" font-family="Helvetica,sans-Serif" font-size="14.00">categorical</text>
<polygon fill="none" stroke="black" points="527.44,-1042.75 527.44,-1067.75 555.44,-1067.75 555.44,-1042.75 527.44,-1042.75"/>
<polygon fill="none" stroke="black" points="555.44,-1042.75 555.44,-1067.75 803.44,-1067.75 803.44,-1042.75 555.44,-1042.75"/>
<text text-anchor="start" x="560.44" y="-1051.55" font-family="Helvetica,sans-Serif" font-size="14.00">highest_qualification_achieved</text>
<polygon fill="none" stroke="black" points="803.44,-1042.75 803.44,-1067.75 889.44,-1067.75 889.44,-1042.75 803.44,-1042.75"/>
<text text-anchor="start" x="808.44" y="-1051.55" font-family="Helvetica,sans-Serif" font-size="14.00">categorical</text>
<polygon fill="none" stroke="black" points="527.44,-1017.75 527.44,-1042.75 555.44,-1042.75 555.44,-1017.75 527.44,-1017.75"/>
<polygon fill="none" stroke="black" points="555.44,-1017.75 555.44,-1042.75 803.44,-1042.75 803.44,-1017.75 555.44,-1017.75"/>
<text text-anchor="start" x="560.44" y="-1026.55" font-family="Helvetica,sans-Serif" font-size="14.00">age_finished_study</text>
<polygon fill="none" stroke="black" points="803.44,-1017.75 803.44,-1042.75 889.44,-1042.75 889.44,-1017.75 803.44,-1017.75"/>
<text text-anchor="start" x="821.44" y="-1026.55" font-family="Helvetica,sans-Serif" font-size="14.00">integer</text>
<polygon fill="none" stroke="black" points="527.44,-992.75 527.44,-1017.75 555.44,-1017.75 555.44,-992.75 527.44,-992.75"/>
<polygon fill="none" stroke="black" points="555.44,-992.75 555.44,-1017.75 803.44,-1017.75 803.44,-992.75 555.44,-992.75"/>
<text text-anchor="start" x="560.44" y="-1001.55" font-family="Helvetica,sans-Serif" font-size="14.00">employed_in_home_country</text>
<polygon fill="none" stroke="black" points="803.44,-992.75 803.44,-1017.75 889.44,-1017.75 889.44,-992.75 803.44,-992.75"/>
<text text-anchor="start" x="808.44" y="-1001.55" font-family="Helvetica,sans-Serif" font-size="14.00">categorical</text>
<polygon fill="none" stroke="black" points="527.44,-967.75 527.44,-992.75 555.44,-992.75 555.44,-967.75 527.44,-967.75"/>
<polygon fill="none" stroke="black" points="555.44,-967.75 555.44,-992.75 803.44,-992.75 803.44,-967.75 555.44,-967.75"/>
<text text-anchor="start" x="560.44" y="-976.55" font-family="Helvetica,sans-Serif" font-size="14.00">occupation_type</text>
<polygon fill="none" stroke="black" points="803.44,-967.75 803.44,-992.75 889.44,-992.75 889.44,-967.75 803.44,-967.75"/>
<text text-anchor="start" x="825.94" y="-976.55" font-family="Helvetica,sans-Serif" font-size="14.00">string</text>
<polygon fill="none" stroke="black" points="527.44,-942.75 527.44,-967.75 555.44,-967.75 555.44,-942.75 527.44,-942.75"/>
<polygon fill="none" stroke="black" points="555.44,-942.75 555.44,-967.75 803.44,-967.75 803.44,-942.75 555.44,-942.75"/>
<text text-anchor="start" x="560.44" y="-951.55" font-family="Helvetica,sans-Serif" font-size="14.00">occupation_sector</text>
<polygon fill="none" stroke="black" points="803.44,-942.75 803.44,-967.75 889.44,-967.75 889.44,-942.75 803.44,-942.75"/>
<text text-anchor="start" x="825.94" y="-951.55" font-family="Helvetica,sans-Serif" font-size="14.00">string</text>
<polygon fill="none" stroke="black" points="527.44,-917.75 527.44,-942.75 555.44,-942.75 555.44,-917.75 527.44,-917.75"/>
<polygon fill="none" stroke="black" points="555.44,-917.75 555.44,-942.75 803.44,-942.75 803.44,-917.75 555.44,-917.75"/>
<text text-anchor="start" x="560.44" y="-926.55" font-family="Helvetica,sans-Serif" font-size="14.00">occupation_goal</text>
<polygon fill="none" stroke="black" points="803.44,-917.75 803.44,-942.75 889.44,-942.75 889.44,-917.75 803.44,-917.75"/>
<text text-anchor="start" x="825.94" y="-926.55" font-family="Helvetica,sans-Serif" font-size="14.00">string</text>
<polygon fill="none" stroke="black" points="527.44,-892.75 527.44,-917.75 555.44,-917.75 555.44,-892.75 527.44,-892.75"/>
<polygon fill="none" stroke="black" points="555.44,-892.75 555.44,-917.75 803.44,-917.75 803.44,-892.75 555.44,-892.75"/>
<text text-anchor="start" x="560.44" y="-901.55" font-family="Helvetica,sans-Serif" font-size="14.00">economic_status</text>
<polygon fill="none" stroke="black" points="803.44,-892.75 803.44,-917.75 889.44,-917.75 889.44,-892.75 803.44,-892.75"/>
<text text-anchor="start" x="808.44" y="-901.55" font-family="Helvetica,sans-Serif" font-size="14.00">categorical</text>
<polygon fill="none" stroke="black" points="527.44,-867.75 527.44,-892.75 555.44,-892.75 555.44,-867.75 527.44,-867.75"/>
<polygon fill="none" stroke="black" points="555.44,-867.75 555.44,-892.75 803.44,-892.75 803.44,-867.75 555.44,-867.75"/>
<text text-anchor="start" x="560.44" y="-876.55" font-family="Helvetica,sans-Serif" font-size="14.00">housing_baseline_accommodation</text>
<polygon fill="none" stroke="black" points="803.44,-867.75 803.44,-892.75 889.44,-892.75 889.44,-867.75 803.44,-867.75"/>
<text text-anchor="start" x="808.44" y="-876.55" font-family="Helvetica,sans-Serif" font-size="14.00">categorical</text>
</g>
<!-- baseline&#45;&#45;person -->
<g id="baseline&#45;&#45;person" class="edge">
<title>baseline&#45;&#45;person</title>
<path fill="none" stroke="#7f7f7f" stroke-dasharray="5,2" d="M713.51,-864.01C714.99,-789.33 716.5,-713.08 717.59,-658"/>
<text text-anchor="middle" x="712.59" y="-661.8" font-family="Times,serif" font-size="14.00">1</text>
<text text-anchor="middle" x="702.01" y="-852.81" font-family="Times,serif" font-size="14.00">0,1</text>
</g>
<!-- integration_plan -->
<g id="integration_plan" class="node">
<title>integration_plan</title>
<polygon fill="#cbd5e8" stroke="transparent" points="462.74,-971.23 72.74,-971.23 72.74,-785.23 462.74,-785.23 462.74,-971.23"/>
<polygon fill="none" stroke="black" points="80.74,-939.23 80.74,-967.23 454.74,-967.23 454.74,-939.23 80.74,-939.23"/>
<text text-anchor="start" x="194.24" y="-950.43" font-family="Helvetica,sans-Serif" font-weight="bold" font-size="16.00">integration_plan</text>
<polygon fill="none" stroke="black" points="80.74,-914.23 80.74,-939.23 108.74,-939.23 108.74,-914.23 80.74,-914.23"/>
<text text-anchor="start" x="85.74" y="-923.03" font-family="Helvetica,sans-Serif" font-size="14.00">PK</text>
<polygon fill="none" stroke="black" points="108.74,-914.23 108.74,-939.23 368.74,-939.23 368.74,-914.23 108.74,-914.23"/>
<text text-anchor="start" x="113.74" y="-923.03" font-family="Helvetica,sans-Serif" font-size="14.00">unique_id</text>
<polygon fill="none" stroke="black" points="368.74,-914.23 368.74,-939.23 454.74,-939.23 454.74,-914.23 368.74,-914.23"/>
<text text-anchor="start" x="391.24" y="-923.03" font-family="Helvetica,sans-Serif" font-size="14.00">string</text>
<polygon fill="none" stroke="black" points="80.74,-889.23 80.74,-914.23 108.74,-914.23 108.74,-889.23 80.74,-889.23"/>
<text text-anchor="start" x="85.74" y="-898.03" font-family="Helvetica,sans-Serif" font-size="14.00">PK</text>
<polygon fill="none" stroke="black" points="108.74,-889.23 108.74,-914.23 368.74,-914.23 368.74,-889.23 108.74,-889.23"/>
<text text-anchor="start" x="113.74" y="-898.03" font-family="Helvetica,sans-Serif" font-size="14.00">integration_outcome_type</text>
<polygon fill="none" stroke="black" points="368.74,-889.23 368.74,-914.23 454.74,-914.23 454.74,-889.23 368.74,-889.23"/>
<text text-anchor="start" x="373.74" y="-898.03" font-family="Helvetica,sans-Serif" font-size="14.00">categorical</text>
<polygon fill="none" stroke="black" points="80.74,-864.23 80.74,-889.23 108.74,-889.23 108.74,-864.23 80.74,-864.23"/>
<polygon fill="none" stroke="black" points="108.74,-864.23 108.74,-889.23 368.74,-889.23 368.74,-864.23 108.74,-864.23"/>
<text text-anchor="start" x="113.74" y="-873.03" font-family="Helvetica,sans-Serif" font-size="14.00">integration_outcome_achieved_date</text>
<polygon fill="none" stroke="black" points="368.74,-864.23 368.74,-889.23 454.74,-889.23 454.74,-864.23 368.74,-864.23"/>
<text text-anchor="start" x="396.24" y="-873.03" font-family="Helvetica,sans-Serif" font-size="14.00">date</text>
<polygon fill="none" stroke="black" points="80.74,-839.23 80.74,-864.23 108.74,-864.23 108.74,-839.23 80.74,-839.23"/>
<polygon fill="none" stroke="black" points="108.74,-839.23 108.74,-864.23 368.74,-864.23 368.74,-839.23 108.74,-839.23"/>
<text text-anchor="start" x="113.74" y="-848.03" font-family="Helvetica,sans-Serif" font-size="14.00">integration_social</text>
<polygon fill="none" stroke="black" points="368.74,-839.23 368.74,-864.23 454.74,-864.23 454.74,-839.23 368.74,-839.23"/>
<text text-anchor="start" x="373.74" y="-848.03" font-family="Helvetica,sans-Serif" font-size="14.00">categorical</text>
<polygon fill="none" stroke="black" points="80.74,-814.23 80.74,-839.23 108.74,-839.23 108.74,-814.23 80.74,-814.23"/>
<polygon fill="none" stroke="black" points="108.74,-814.23 108.74,-839.23 368.74,-839.23 368.74,-814.23 108.74,-814.23"/>
<text text-anchor="start" x="113.74" y="-823.03" font-family="Helvetica,sans-Serif" font-size="14.00">integration_comms_language</text>
<polygon fill="none" stroke="black" points="368.74,-814.23 368.74,-839.23 454.74,-839.23 454.74,-814.23 368.74,-814.23"/>
<text text-anchor="start" x="373.74" y="-823.03" font-family="Helvetica,sans-Serif" font-size="14.00">categorical</text>
<polygon fill="none" stroke="black" points="80.74,-789.23 80.74,-814.23 108.74,-814.23 108.74,-789.23 80.74,-789.23"/>
<polygon fill="none" stroke="black" points="108.74,-789.23 108.74,-814.23 368.74,-814.23 368.74,-789.23 108.74,-789.23"/>
<text text-anchor="start" x="113.74" y="-798.03" font-family="Helvetica,sans-Serif" font-size="14.00">integration_digital</text>
<polygon fill="none" stroke="black" points="368.74,-789.23 368.74,-814.23 454.74,-814.23 454.74,-789.23 368.74,-789.23"/>
<text text-anchor="start" x="373.74" y="-798.03" font-family="Helvetica,sans-Serif" font-size="14.00">categorical</text>
</g>
<!-- integration_plan&#45;&#45;person -->
<g id="integration_plan&#45;&#45;person" class="edge">
<title>integration_plan&#45;&#45;person</title>
<path fill="none" stroke="#7f7f7f" stroke-dasharray="5,2" d="M407.49,-785.07C468.61,-744.33 539.61,-697.01 598.39,-657.82"/>
<text text-anchor="middle" x="593.39" y="-661.62" font-family="Times,serif" font-size="14.00">1</text>
<text text-anchor="middle" x="391.99" y="-773.87" font-family="Times,serif" font-size="14.00">0..N</text>
</g>
<!-- employment_intermediate -->
<g id="employment_intermediate" class="node">
<title>employment_intermediate</title>
<polygon fill="#f4cae4" stroke="transparent" points="391,-490.96 0,-490.96 0,-379.96 391,-379.96 391,-490.96"/>
<polygon fill="none" stroke="black" points="8.5,-458.46 8.5,-486.46 383.5,-486.46 383.5,-458.46 8.5,-458.46"/>
<text text-anchor="start" x="78.5" y="-469.66" font-family="Helvetica,sans-Serif" font-weight="bold" font-size="16.00">employment_intermediate</text>
<polygon fill="none" stroke="black" points="8.5,-433.46 8.5,-458.46 36.5,-458.46 36.5,-433.46 8.5,-433.46"/>
<text text-anchor="start" x="13.5" y="-442.26" font-family="Helvetica,sans-Serif" font-size="14.00">PK</text>
<polygon fill="none" stroke="black" points="36.5,-433.46 36.5,-458.46 332.5,-458.46 332.5,-433.46 36.5,-433.46"/>
<text text-anchor="start" x="41.5" y="-442.26" font-family="Helvetica,sans-Serif" font-size="14.00">unique_id</text>
<polygon fill="none" stroke="black" points="332.5,-433.46 332.5,-458.46 383.5,-458.46 383.5,-433.46 332.5,-433.46"/>
<text text-anchor="start" x="337.5" y="-442.26" font-family="Helvetica,sans-Serif" font-size="14.00">string</text>
<polygon fill="none" stroke="black" points="8.5,-408.46 8.5,-433.46 36.5,-433.46 36.5,-408.46 8.5,-408.46"/>
<polygon fill="none" stroke="black" points="36.5,-408.46 36.5,-433.46 332.5,-433.46 332.5,-408.46 36.5,-408.46"/>
<text text-anchor="start" x="41.5" y="-417.26" font-family="Helvetica,sans-Serif" font-size="14.00">date_intermediate_employment_outcome</text>
<polygon fill="none" stroke="black" points="332.5,-408.46 332.5,-433.46 383.5,-433.46 383.5,-408.46 332.5,-408.46"/>
<text text-anchor="start" x="342.5" y="-417.26" font-family="Helvetica,sans-Serif" font-size="14.00">date</text>
<polygon fill="none" stroke="black" points="8.5,-383.46 8.5,-408.46 36.5,-408.46 36.5,-383.46 8.5,-383.46"/>
<polygon fill="none" stroke="black" points="36.5,-383.46 36.5,-408.46 332.5,-408.46 332.5,-383.46 36.5,-383.46"/>
<text text-anchor="start" x="41.5" y="-392.26" font-family="Helvetica,sans-Serif" font-size="14.00">intermediate_employment_outcome_type</text>
<polygon fill="none" stroke="black" points="332.5,-383.46 332.5,-408.46 383.5,-408.46 383.5,-383.46 332.5,-383.46"/>
<text text-anchor="start" x="347.5" y="-392.26" font-family="Helvetica,sans-Serif" font-size="14.00">list</text>
</g>
<!-- employment_intermediate&#45;&#45;person -->
<g id="employment_intermediate&#45;&#45;person" class="edge">
<title>employment_intermediate&#45;&#45;person</title>
<path fill="none" stroke="#7f7f7f" stroke-dasharray="5,2" d="M391.25,-488.48C452.84,-505.16 519.65,-523.25 576.8,-538.73"/>
<text text-anchor="middle" x="571.8" y="-542.53" font-family="Times,serif" font-size="14.00">1</text>
<text text-anchor="middle" x="402.75" y="-492.28" font-family="Times,serif" font-size="14.00">0,1</text>
</g>
<!-- employment_entry -->
<g id="employment_entry" class="node">
<title>employment_entry</title>
<polygon fill="#f4cae4" stroke="transparent" points="662.09,-186 287.09,-186 287.09,0 662.09,0 662.09,-186"/>
<polygon fill="none" stroke="black" points="295.59,-154 295.59,-182 654.59,-182 654.59,-154 295.59,-154"/>
<text text-anchor="start" x="391.09" y="-165.2" font-family="Helvetica,sans-Serif" font-weight="bold" font-size="16.00">employment_entry</text>
<polygon fill="none" stroke="black" points="295.59,-129 295.59,-154 323.59,-154 323.59,-129 295.59,-129"/>
<text text-anchor="start" x="300.59" y="-137.8" font-family="Helvetica,sans-Serif" font-size="14.00">PK</text>
<polygon fill="none" stroke="black" points="323.59,-129 323.59,-154 568.59,-154 568.59,-129 323.59,-129"/>
<text text-anchor="start" x="328.59" y="-137.8" font-family="Helvetica,sans-Serif" font-size="14.00">unique_id</text>
<polygon fill="none" stroke="black" points="568.59,-129 568.59,-154 654.59,-154 654.59,-129 568.59,-129"/>
<text text-anchor="start" x="591.09" y="-137.8" font-family="Helvetica,sans-Serif" font-size="14.00">string</text>
<polygon fill="none" stroke="black" points="295.59,-104 295.59,-129 323.59,-129 323.59,-104 295.59,-104"/>
<polygon fill="none" stroke="black" points="323.59,-104 323.59,-129 568.59,-129 568.59,-104 323.59,-104"/>
<text text-anchor="start" x="328.59" y="-112.8" font-family="Helvetica,sans-Serif" font-size="14.00">employment_entry_outcome_type</text>
<polygon fill="none" stroke="black" points="568.59,-104 568.59,-129 654.59,-129 654.59,-104 568.59,-104"/>
<text text-anchor="start" x="573.59" y="-112.8" font-family="Helvetica,sans-Serif" font-size="14.00">categorical</text>
<polygon fill="none" stroke="black" points="295.59,-79 295.59,-104 323.59,-104 323.59,-79 295.59,-79"/>
<polygon fill="none" stroke="black" points="323.59,-79 323.59,-104 568.59,-104 568.59,-79 323.59,-79"/>
<text text-anchor="start" x="328.59" y="-87.8" font-family="Helvetica,sans-Serif" font-size="14.00">date_employment_entry</text>
<polygon fill="none" stroke="black" points="568.59,-79 568.59,-104 654.59,-104 654.59,-79 568.59,-79"/>
<text text-anchor="start" x="596.09" y="-87.8" font-family="Helvetica,sans-Serif" font-size="14.00">date</text>
<polygon fill="none" stroke="black" points="295.59,-54 295.59,-79 323.59,-79 323.59,-54 295.59,-54"/>
<polygon fill="none" stroke="black" points="323.59,-54 323.59,-79 568.59,-79 568.59,-54 323.59,-54"/>
<text text-anchor="start" x="328.59" y="-62.8" font-family="Helvetica,sans-Serif" font-size="14.00">employment_entry_details</text>
<polygon fill="none" stroke="black" points="568.59,-54 568.59,-79 654.59,-79 654.59,-54 568.59,-54"/>
<text text-anchor="start" x="573.59" y="-62.8" font-family="Helvetica,sans-Serif" font-size="14.00">categorical</text>
<polygon fill="none" stroke="black" points="295.59,-29 295.59,-54 323.59,-54 323.59,-29 295.59,-29"/>
<polygon fill="none" stroke="black" points="323.59,-29 323.59,-54 568.59,-54 568.59,-29 323.59,-29"/>
<text text-anchor="start" x="328.59" y="-37.8" font-family="Helvetica,sans-Serif" font-size="14.00">employment_entry_occupation</text>
<polygon fill="none" stroke="black" points="568.59,-29 568.59,-54 654.59,-54 654.59,-29 568.59,-29"/>
<text text-anchor="start" x="591.09" y="-37.8" font-family="Helvetica,sans-Serif" font-size="14.00">string</text>
<polygon fill="none" stroke="black" points="295.59,-4 295.59,-29 323.59,-29 323.59,-4 295.59,-4"/>
<polygon fill="none" stroke="black" points="323.59,-4 323.59,-29 568.59,-29 568.59,-4 323.59,-4"/>
<text text-anchor="start" x="328.59" y="-12.8" font-family="Helvetica,sans-Serif" font-size="14.00">employment_entry_sector</text>
<polygon fill="none" stroke="black" points="568.59,-4 568.59,-29 654.59,-29 654.59,-4 568.59,-4"/>
<text text-anchor="start" x="591.09" y="-12.8" font-family="Helvetica,sans-Serif" font-size="14.00">string</text>
</g>
<!-- employment_entry&#45;&#45;person -->
<g id="employment_entry&#45;&#45;person" class="edge">
<title>employment_entry&#45;&#45;person</title>
<path fill="none" stroke="#7f7f7f" stroke-dasharray="5,2" d="M521.61,-186.09C567.06,-276.07 635.2,-411 678.42,-496.56"/>
<text text-anchor="middle" x="673.42" y="-485.36" font-family="Times,serif" font-size="14.00">1</text>
<text text-anchor="middle" x="510.11" y="-189.89" font-family="Times,serif" font-size="14.00">0,1</text>
</g>
<!-- employment_sustain -->
<g id="employment_sustain" class="node">
<title>employment_sustain</title>
<polygon fill="#f4cae4" stroke="transparent" points="1045.31,-103.31 722.31,-103.31 722.31,-17.31 1045.31,-17.31 1045.31,-103.31"/>
<polygon fill="none" stroke="black" points="730.81,-71.31 730.81,-99.31 1037.81,-99.31 1037.81,-71.31 730.81,-71.31"/>
<text text-anchor="start" x="791.81" y="-82.51" font-family="Helvetica,sans-Serif" font-weight="bold" font-size="16.00">employment_sustain</text>
<polygon fill="none" stroke="black" points="730.81,-46.31 730.81,-71.31 758.81,-71.31 758.81,-46.31 730.81,-46.31"/>
<text text-anchor="start" x="735.81" y="-55.11" font-family="Helvetica,sans-Serif" font-size="14.00">PK</text>
<polygon fill="none" stroke="black" points="758.81,-46.31 758.81,-71.31 986.81,-71.31 986.81,-46.31 758.81,-46.31"/>
<text text-anchor="start" x="763.81" y="-55.11" font-family="Helvetica,sans-Serif" font-size="14.00">unique_id</text>
<polygon fill="none" stroke="black" points="986.81,-46.31 986.81,-71.31 1037.81,-71.31 1037.81,-46.31 986.81,-46.31"/>
<text text-anchor="start" x="991.81" y="-55.11" font-family="Helvetica,sans-Serif" font-size="14.00">string</text>
<polygon fill="none" stroke="black" points="730.81,-21.31 730.81,-46.31 758.81,-46.31 758.81,-21.31 730.81,-21.31"/>
<polygon fill="none" stroke="black" points="758.81,-21.31 758.81,-46.31 986.81,-46.31 986.81,-21.31 758.81,-21.31"/>
<text text-anchor="start" x="763.81" y="-30.11" font-family="Helvetica,sans-Serif" font-size="14.00">employment_sustainment_date</text>
<polygon fill="none" stroke="black" points="986.81,-21.31 986.81,-46.31 1037.81,-46.31 1037.81,-21.31 986.81,-21.31"/>
<text text-anchor="start" x="996.81" y="-30.11" font-family="Helvetica,sans-Serif" font-size="14.00">date</text>
</g>
<!-- employment_sustain&#45;&#45;person -->
<g id="employment_sustain&#45;&#45;person" class="edge">
<title>employment_sustain&#45;&#45;person</title>
<path fill="none" stroke="#7f7f7f" stroke-dasharray="5,2" d="M870.05,-103.5C842.51,-190.01 780.18,-385.76 744.86,-496.67"/>
<text text-anchor="middle" x="739.86" y="-485.47" font-family="Times,serif" font-size="14.00">1</text>
<text text-anchor="middle" x="858.55" y="-107.3" font-family="Times,serif" font-size="14.00">0,1</text>
</g>
<!-- date_last_seen -->
<g id="date_last_seen" class="node">
<title>date_last_seen</title>
<polygon fill="#e6f5c9" stroke="transparent" points="1258.22,-296.07 1050.22,-296.07 1050.22,-210.07 1258.22,-210.07 1258.22,-296.07"/>
<polygon fill="none" stroke="black" points="1058.22,-264.07 1058.22,-292.07 1250.22,-292.07 1250.22,-264.07 1058.22,-264.07"/>
<text text-anchor="start" x="1088.22" y="-275.27" font-family="Helvetica,sans-Serif" font-weight="bold" font-size="16.00">date_last_seen</text>
<polygon fill="none" stroke="black" points="1058.22,-239.07 1058.22,-264.07 1086.22,-264.07 1086.22,-239.07 1058.22,-239.07"/>
<text text-anchor="start" x="1063.22" y="-247.87" font-family="Helvetica,sans-Serif" font-size="14.00">PK</text>
<polygon fill="none" stroke="black" points="1086.22,-239.07 1086.22,-264.07 1199.22,-264.07 1199.22,-239.07 1086.22,-239.07"/>
<text text-anchor="start" x="1091.22" y="-247.87" font-family="Helvetica,sans-Serif" font-size="14.00">unique_id</text>
<polygon fill="none" stroke="black" points="1199.22,-239.07 1199.22,-264.07 1250.22,-264.07 1250.22,-239.07 1199.22,-239.07"/>
<text text-anchor="start" x="1204.22" y="-247.87" font-family="Helvetica,sans-Serif" font-size="14.00">string</text>
<polygon fill="none" stroke="black" points="1058.22,-214.07 1058.22,-239.07 1086.22,-239.07 1086.22,-214.07 1058.22,-214.07"/>
<polygon fill="none" stroke="black" points="1086.22,-214.07 1086.22,-239.07 1199.22,-239.07 1199.22,-214.07 1086.22,-214.07"/>
<text text-anchor="start" x="1091.22" y="-222.87" font-family="Helvetica,sans-Serif" font-size="14.00">date_last_seen</text>
<polygon fill="none" stroke="black" points="1199.22,-214.07 1199.22,-239.07 1250.22,-239.07 1250.22,-214.07 1199.22,-214.07"/>
<text text-anchor="start" x="1209.22" y="-222.87" font-family="Helvetica,sans-Serif" font-size="14.00">date</text>
</g>
<!-- date_last_seen&#45;&#45;person -->
<g id="date_last_seen&#45;&#45;person" class="edge">
<title>date_last_seen&#45;&#45;person</title>
<path fill="none" stroke="#7f7f7f" stroke-dasharray="5,2" d="M1096.45,-296.13C1028.04,-347.11 912.64,-433.12 827.44,-496.62"/>
<text text-anchor="middle" x="822.44" y="-485.42" font-family="Times,serif" font-size="14.00">1</text>
<text text-anchor="middle" x="1084.95" y="-299.93" font-family="Times,serif" font-size="14.00">0,1</text>
</g>
</g>
</svg>
