<svg xmlns="http://www.w3.org/2000/svg" width="auto" height="auto" viewBox="0.00 0.00 1445.96 1406.72">
<g id="graph0" class="graph" transform="scale(1 1) rotate(0) translate(4 1402.72)">
<title>%3</title>
<a href="{{ '/records/person.html' | relative_url }}"><g id="person" class="node">
<title>person</title>
<polygon fill="#b3e2cd" stroke="transparent" points="861.93,-664.95 577.93,-664.95 577.93,-503.95 861.93,-503.95 861.93,-664.95" />
<polygon fill="none" stroke="black" points="585.93,-632.45 585.93,-660.45 853.93,-660.45 853.93,-632.45 585.93,-632.45" />
<text text-anchor="start" x="688.43" y="-643.65" font-family="Helvetica,sans-Serif" font-weight="bold" font-size="16.00">person</text>
<polygon fill="none" stroke="black" points="585.93,-607.45 585.93,-632.45 613.93,-632.45 613.93,-607.45 585.93,-607.45" />
<text text-anchor="start" x="590.93" y="-616.25" font-family="Helvetica,sans-Serif" font-size="14.00">PK</text>
<polygon fill="none" stroke="black" points="613.93,-607.45 613.93,-632.45 767.93,-632.45 767.93,-607.45 613.93,-607.45" />
<text text-anchor="start" x="618.93" y="-616.25" font-family="Helvetica,sans-Serif" font-size="14.00">unique_id</text>
<polygon fill="none" stroke="black" points="767.93,-607.45 767.93,-632.45 853.93,-632.45 853.93,-607.45 767.93,-607.45" />
<text text-anchor="start" x="790.43" y="-616.25" font-family="Helvetica,sans-Serif" font-size="14.00">string</text>
<polygon fill="none" stroke="black" points="585.93,-582.45 585.93,-607.45 613.93,-607.45 613.93,-582.45 585.93,-582.45" />
<polygon fill="none" stroke="black" points="613.93,-582.45 613.93,-607.45 767.93,-607.45 767.93,-582.45 613.93,-582.45" />
<text text-anchor="start" x="618.93" y="-591.25" font-family="Helvetica,sans-Serif" font-size="14.00">year_of_birth</text>
<polygon fill="none" stroke="black" points="767.93,-582.45 767.93,-607.45 853.93,-607.45 853.93,-582.45 767.93,-582.45" />
<text text-anchor="start" x="795.43" y="-591.25" font-family="Helvetica,sans-Serif" font-size="14.00">year</text>
<polygon fill="none" stroke="black" points="585.93,-557.45 585.93,-582.45 613.93,-582.45 613.93,-557.45 585.93,-557.45" />
<polygon fill="none" stroke="black" points="613.93,-557.45 613.93,-582.45 767.93,-582.45 767.93,-557.45 613.93,-557.45" />
<text text-anchor="start" x="618.93" y="-566.25" font-family="Helvetica,sans-Serif" font-size="14.00">gender</text>
<polygon fill="none" stroke="black" points="767.93,-557.45 767.93,-582.45 853.93,-582.45 853.93,-557.45 767.93,-557.45" />
<text text-anchor="start" x="772.93" y="-566.25" font-family="Helvetica,sans-Serif" font-size="14.00">categorical</text>
<polygon fill="none" stroke="black" points="585.93,-532.45 585.93,-557.45 613.93,-557.45 613.93,-532.45 585.93,-532.45" />
<polygon fill="none" stroke="black" points="613.93,-532.45 613.93,-557.45 767.93,-557.45 767.93,-532.45 613.93,-532.45" />
<text text-anchor="start" x="618.93" y="-541.25" font-family="Helvetica,sans-Serif" font-size="14.00">dispersal_area</text>
<polygon fill="none" stroke="black" points="767.93,-532.45 767.93,-557.45 853.93,-557.45 853.93,-532.45 767.93,-532.45" />
<text text-anchor="start" x="790.43" y="-541.25" font-family="Helvetica,sans-Serif" font-size="14.00">string</text>
<polygon fill="none" stroke="black" points="585.93,-507.45 585.93,-532.45 613.93,-532.45 613.93,-507.45 585.93,-507.45" />
<polygon fill="none" stroke="black" points="613.93,-507.45 613.93,-532.45 767.93,-532.45 767.93,-507.45 613.93,-507.45" />
<text text-anchor="start" x="618.93" y="-516.25" font-family="Helvetica,sans-Serif" font-size="14.00">date_started_service</text>
<polygon fill="none" stroke="black" points="767.93,-507.45 767.93,-532.45 853.93,-532.45 853.93,-507.45 767.93,-507.45" />
<text text-anchor="start" x="795.43" y="-516.25" font-family="Helvetica,sans-Serif" font-size="14.00">date</text>
</g>

</a><a href="{{ '/records/housing_entry.html' | relative_url }}"><g id="housing_entry" class="node">
<title>housing_entry</title>
<polygon fill="#fdcdac" stroke="transparent" points="1437.96,-639.95 1094.96,-639.95 1094.96,-528.95 1437.96,-528.95 1437.96,-639.95" />
<polygon fill="none" stroke="black" points="1103.46,-607.45 1103.46,-635.45 1430.46,-635.45 1430.46,-607.45 1103.46,-607.45" />
<text text-anchor="start" x="1202.96" y="-618.65" font-family="Helvetica,sans-Serif" font-weight="bold" font-size="16.00">housing_entry</text>
<polygon fill="none" stroke="black" points="1103.46,-582.45 1103.46,-607.45 1131.46,-607.45 1131.46,-582.45 1103.46,-582.45" />
<text text-anchor="start" x="1108.46" y="-591.25" font-family="Helvetica,sans-Serif" font-size="14.00">PK</text>
<polygon fill="none" stroke="black" points="1131.46,-582.45 1131.46,-607.45 1344.46,-607.45 1344.46,-582.45 1131.46,-582.45" />
<text text-anchor="start" x="1136.46" y="-591.25" font-family="Helvetica,sans-Serif" font-size="14.00">unique_id</text>
<polygon fill="none" stroke="black" points="1344.46,-582.45 1344.46,-607.45 1430.46,-607.45 1430.46,-582.45 1344.46,-582.45" />
<text text-anchor="start" x="1366.96" y="-591.25" font-family="Helvetica,sans-Serif" font-size="14.00">string</text>
<polygon fill="none" stroke="black" points="1103.46,-557.45 1103.46,-582.45 1131.46,-582.45 1131.46,-557.45 1103.46,-557.45" />
<polygon fill="none" stroke="black" points="1131.46,-557.45 1131.46,-582.45 1344.46,-582.45 1344.46,-557.45 1131.46,-557.45" />
<text text-anchor="start" x="1136.46" y="-566.25" font-family="Helvetica,sans-Serif" font-size="14.00">housing_entry_date</text>
<polygon fill="none" stroke="black" points="1344.46,-557.45 1344.46,-582.45 1430.46,-582.45 1430.46,-557.45 1344.46,-557.45" />
<text text-anchor="start" x="1371.96" y="-566.25" font-family="Helvetica,sans-Serif" font-size="14.00">date</text>
<polygon fill="none" stroke="black" points="1103.46,-532.45 1103.46,-557.45 1131.46,-557.45 1131.46,-532.45 1103.46,-532.45" />
<polygon fill="none" stroke="black" points="1131.46,-532.45 1131.46,-557.45 1344.46,-557.45 1344.46,-532.45 1131.46,-532.45" />
<text text-anchor="start" x="1136.46" y="-541.25" font-family="Helvetica,sans-Serif" font-size="14.00">housing_entry_accomodation</text>
<polygon fill="none" stroke="black" points="1344.46,-532.45 1344.46,-557.45 1430.46,-557.45 1430.46,-532.45 1344.46,-532.45" />
<text text-anchor="start" x="1349.46" y="-541.25" font-family="Helvetica,sans-Serif" font-size="14.00">categorical</text>
</g>

</a><a href="{{ '/records/housing_entry--person.html' | relative_url }}"><g id="housing_entry--person" class="edge">
<title>housing_entry--person</title>
<path fill="none" stroke="#7f7f7f" stroke-dasharray="5,2" d="M1094.66,-584.45C1019.86,-584.45 933.24,-584.45 862.13,-584.45" />
<text text-anchor="middle" x="867.13" y="-588.25" font-family="Times,serif" font-size="14.00">1</text>
<text text-anchor="middle" x="1083.16" y="-588.25" font-family="Times,serif" font-size="14.00">0,1</text>
</g>

</a><a href="{{ '/records/housing_sustain.html' | relative_url }}"><g id="housing_sustain" class="node">
<title>housing_sustain</title>
<polygon fill="#fdcdac" stroke="transparent" points="1279.45,-984.81 987.45,-984.81 987.45,-898.81 1279.45,-898.81 1279.45,-984.81" />
<polygon fill="none" stroke="black" points="995.45,-952.81 995.45,-980.81 1271.45,-980.81 1271.45,-952.81 995.45,-952.81" />
<text text-anchor="start" x="1060.95" y="-964.01" font-family="Helvetica,sans-Serif" font-weight="bold" font-size="16.00">housing_sustain</text>
<polygon fill="none" stroke="black" points="995.45,-927.81 995.45,-952.81 1023.45,-952.81 1023.45,-927.81 995.45,-927.81" />
<text text-anchor="start" x="1000.45" y="-936.61" font-family="Helvetica,sans-Serif" font-size="14.00">PK</text>
<polygon fill="none" stroke="black" points="1023.45,-927.81 1023.45,-952.81 1220.45,-952.81 1220.45,-927.81 1023.45,-927.81" />
<text text-anchor="start" x="1028.45" y="-936.61" font-family="Helvetica,sans-Serif" font-size="14.00">unique_id</text>
<polygon fill="none" stroke="black" points="1220.45,-927.81 1220.45,-952.81 1271.45,-952.81 1271.45,-927.81 1220.45,-927.81" />
<text text-anchor="start" x="1225.45" y="-936.61" font-family="Helvetica,sans-Serif" font-size="14.00">string</text>
<polygon fill="none" stroke="black" points="995.45,-902.81 995.45,-927.81 1023.45,-927.81 1023.45,-902.81 995.45,-902.81" />
<polygon fill="none" stroke="black" points="1023.45,-902.81 1023.45,-927.81 1220.45,-927.81 1220.45,-902.81 1023.45,-902.81" />
<text text-anchor="start" x="1028.45" y="-911.61" font-family="Helvetica,sans-Serif" font-size="14.00">housing_sustainment_date</text>
<polygon fill="none" stroke="black" points="1220.45,-902.81 1220.45,-927.81 1271.45,-927.81 1271.45,-902.81 1220.45,-902.81" />
<text text-anchor="start" x="1230.45" y="-911.61" font-family="Helvetica,sans-Serif" font-size="14.00">date</text>
</g>

</a><a href="{{ '/records/housing_sustain--person.html' | relative_url }}"><g id="housing_sustain--person" class="edge">
<title>housing_sustain--person</title>
<path fill="none" stroke="#7f7f7f" stroke-dasharray="5,2" d="M1083.57,-898.7C1016.76,-840.97 896.94,-737.42 813.16,-665.02" />
<text text-anchor="middle" x="808.16" y="-668.82" font-family="Times,serif" font-size="14.00">1</text>
<text text-anchor="middle" x="1072.07" y="-887.5" font-family="Times,serif" font-size="14.00">0,1</text>
</g>

</a><a href="{{ '/records/baseline.html' | relative_url }}"><g id="baseline" class="node">
<title>baseline</title>
<polygon fill="#cbd5e8" stroke="transparent" points="891.93,-1398.72 513.93,-1398.72 513.93,-862.72 891.93,-862.72 891.93,-1398.72" />
<polygon fill="none" stroke="black" points="521.93,-1366.72 521.93,-1394.72 883.93,-1394.72 883.93,-1366.72 521.93,-1366.72" />
<text text-anchor="start" x="665.43" y="-1377.92" font-family="Helvetica,sans-Serif" font-weight="bold" font-size="16.00">baseline</text>
<polygon fill="none" stroke="black" points="521.93,-1341.72 521.93,-1366.72 549.93,-1366.72 549.93,-1341.72 521.93,-1341.72" />
<text text-anchor="start" x="526.93" y="-1350.52" font-family="Helvetica,sans-Serif" font-size="14.00">PK</text>
<polygon fill="none" stroke="black" points="549.93,-1341.72 549.93,-1366.72 797.93,-1366.72 797.93,-1341.72 549.93,-1341.72" />
<text text-anchor="start" x="554.93" y="-1350.52" font-family="Helvetica,sans-Serif" font-size="14.00">unique_id</text>
<polygon fill="none" stroke="black" points="797.93,-1341.72 797.93,-1366.72 883.93,-1366.72 883.93,-1341.72 797.93,-1341.72" />
<text text-anchor="start" x="820.43" y="-1350.52" font-family="Helvetica,sans-Serif" font-size="14.00">string</text>
<polygon fill="none" stroke="black" points="521.93,-1316.72 521.93,-1341.72 549.93,-1341.72 549.93,-1316.72 521.93,-1316.72" />
<polygon fill="none" stroke="black" points="549.93,-1316.72 549.93,-1341.72 797.93,-1341.72 797.93,-1316.72 549.93,-1316.72" />
<text text-anchor="start" x="554.93" y="-1325.52" font-family="Helvetica,sans-Serif" font-size="14.00">ni_number</text>
<polygon fill="none" stroke="black" points="797.93,-1316.72 797.93,-1341.72 883.93,-1341.72 883.93,-1316.72 797.93,-1316.72" />
<text text-anchor="start" x="820.43" y="-1325.52" font-family="Helvetica,sans-Serif" font-size="14.00">string</text>
<polygon fill="none" stroke="black" points="521.93,-1291.72 521.93,-1316.72 549.93,-1316.72 549.93,-1291.72 521.93,-1291.72" />
<polygon fill="none" stroke="black" points="549.93,-1291.72 549.93,-1316.72 797.93,-1316.72 797.93,-1291.72 549.93,-1291.72" />
<text text-anchor="start" x="554.93" y="-1300.52" font-family="Helvetica,sans-Serif" font-size="14.00">temp_ni_number</text>
<polygon fill="none" stroke="black" points="797.93,-1291.72 797.93,-1316.72 883.93,-1316.72 883.93,-1291.72 797.93,-1291.72" />
<text text-anchor="start" x="820.43" y="-1300.52" font-family="Helvetica,sans-Serif" font-size="14.00">string</text>
<polygon fill="none" stroke="black" points="521.93,-1266.72 521.93,-1291.72 549.93,-1291.72 549.93,-1266.72 521.93,-1266.72" />
<polygon fill="none" stroke="black" points="549.93,-1266.72 549.93,-1291.72 797.93,-1291.72 797.93,-1266.72 549.93,-1266.72" />
<text text-anchor="start" x="554.93" y="-1275.52" font-family="Helvetica,sans-Serif" font-size="14.00">nationality</text>
<polygon fill="none" stroke="black" points="797.93,-1266.72 797.93,-1291.72 883.93,-1291.72 883.93,-1266.72 797.93,-1266.72" />
<text text-anchor="start" x="802.93" y="-1275.52" font-family="Helvetica,sans-Serif" font-size="14.00">categorical</text>
<polygon fill="none" stroke="black" points="521.93,-1241.72 521.93,-1266.72 549.93,-1266.72 549.93,-1241.72 521.93,-1241.72" />
<polygon fill="none" stroke="black" points="549.93,-1241.72 549.93,-1266.72 797.93,-1266.72 797.93,-1241.72 549.93,-1241.72" />
<text text-anchor="start" x="554.93" y="-1250.52" font-family="Helvetica,sans-Serif" font-size="14.00">referral_source</text>
<polygon fill="none" stroke="black" points="797.93,-1241.72 797.93,-1266.72 883.93,-1266.72 883.93,-1241.72 797.93,-1241.72" />
<text text-anchor="start" x="802.93" y="-1250.52" font-family="Helvetica,sans-Serif" font-size="14.00">categorical</text>
<polygon fill="none" stroke="black" points="521.93,-1216.72 521.93,-1241.72 549.93,-1241.72 549.93,-1216.72 521.93,-1216.72" />
<polygon fill="none" stroke="black" points="549.93,-1216.72 549.93,-1241.72 797.93,-1241.72 797.93,-1216.72 549.93,-1216.72" />
<text text-anchor="start" x="554.93" y="-1225.52" font-family="Helvetica,sans-Serif" font-size="14.00">transgender</text>
<polygon fill="none" stroke="black" points="797.93,-1216.72 797.93,-1241.72 883.93,-1241.72 883.93,-1216.72 797.93,-1216.72" />
<text text-anchor="start" x="802.93" y="-1225.52" font-family="Helvetica,sans-Serif" font-size="14.00">categorical</text>
<polygon fill="none" stroke="black" points="521.93,-1191.72 521.93,-1216.72 549.93,-1216.72 549.93,-1191.72 521.93,-1191.72" />
<polygon fill="none" stroke="black" points="549.93,-1191.72 549.93,-1216.72 797.93,-1216.72 797.93,-1191.72 549.93,-1191.72" />
<text text-anchor="start" x="554.93" y="-1200.52" font-family="Helvetica,sans-Serif" font-size="14.00">living_status</text>
<polygon fill="none" stroke="black" points="797.93,-1191.72 797.93,-1216.72 883.93,-1216.72 883.93,-1191.72 797.93,-1191.72" />
<text text-anchor="start" x="802.93" y="-1200.52" font-family="Helvetica,sans-Serif" font-size="14.00">categorical</text>
<polygon fill="none" stroke="black" points="521.93,-1166.72 521.93,-1191.72 549.93,-1191.72 549.93,-1166.72 521.93,-1166.72" />
<polygon fill="none" stroke="black" points="549.93,-1166.72 549.93,-1191.72 797.93,-1191.72 797.93,-1166.72 549.93,-1166.72" />
<text text-anchor="start" x="554.93" y="-1175.52" font-family="Helvetica,sans-Serif" font-size="14.00">current_dependents_uk</text>
<polygon fill="none" stroke="black" points="797.93,-1166.72 797.93,-1191.72 883.93,-1191.72 883.93,-1166.72 797.93,-1166.72" />
<text text-anchor="start" x="802.93" y="-1175.52" font-family="Helvetica,sans-Serif" font-size="14.00">categorical</text>
<polygon fill="none" stroke="black" points="521.93,-1141.72 521.93,-1166.72 549.93,-1166.72 549.93,-1141.72 521.93,-1141.72" />
<polygon fill="none" stroke="black" points="549.93,-1141.72 549.93,-1166.72 797.93,-1166.72 797.93,-1141.72 549.93,-1141.72" />
<text text-anchor="start" x="554.93" y="-1150.52" font-family="Helvetica,sans-Serif" font-size="14.00">age_profile_of_dependents_uk</text>
<polygon fill="none" stroke="black" points="797.93,-1141.72 797.93,-1166.72 883.93,-1166.72 883.93,-1141.72 797.93,-1141.72" />
<text text-anchor="start" x="830.43" y="-1150.52" font-family="Helvetica,sans-Serif" font-size="14.00">list</text>
<polygon fill="none" stroke="black" points="521.93,-1116.72 521.93,-1141.72 549.93,-1141.72 549.93,-1116.72 521.93,-1116.72" />
<polygon fill="none" stroke="black" points="549.93,-1116.72 549.93,-1141.72 797.93,-1141.72 797.93,-1116.72 549.93,-1116.72" />
<text text-anchor="start" x="554.93" y="-1125.52" font-family="Helvetica,sans-Serif" font-size="14.00">date_arrived_in_uk</text>
<polygon fill="none" stroke="black" points="797.93,-1116.72 797.93,-1141.72 883.93,-1141.72 883.93,-1116.72 797.93,-1116.72" />
<text text-anchor="start" x="825.43" y="-1125.52" font-family="Helvetica,sans-Serif" font-size="14.00">date</text>
<polygon fill="none" stroke="black" points="521.93,-1091.72 521.93,-1116.72 549.93,-1116.72 549.93,-1091.72 521.93,-1091.72" />
<polygon fill="none" stroke="black" points="549.93,-1091.72 549.93,-1116.72 797.93,-1116.72 797.93,-1091.72 549.93,-1091.72" />
<text text-anchor="start" x="554.93" y="-1100.52" font-family="Helvetica,sans-Serif" font-size="14.00">date_asylum_status_granted</text>
<polygon fill="none" stroke="black" points="797.93,-1091.72 797.93,-1116.72 883.93,-1116.72 883.93,-1091.72 797.93,-1091.72" />
<text text-anchor="start" x="825.43" y="-1100.52" font-family="Helvetica,sans-Serif" font-size="14.00">date</text>
<polygon fill="none" stroke="black" points="521.93,-1066.72 521.93,-1091.72 549.93,-1091.72 549.93,-1066.72 521.93,-1066.72" />
<polygon fill="none" stroke="black" points="549.93,-1066.72 549.93,-1091.72 797.93,-1091.72 797.93,-1066.72 549.93,-1066.72" />
<text text-anchor="start" x="554.93" y="-1075.52" font-family="Helvetica,sans-Serif" font-size="14.00">language_level_on_entry</text>
<polygon fill="none" stroke="black" points="797.93,-1066.72 797.93,-1091.72 883.93,-1091.72 883.93,-1066.72 797.93,-1066.72" />
<text text-anchor="start" x="802.93" y="-1075.52" font-family="Helvetica,sans-Serif" font-size="14.00">categorical</text>
<polygon fill="none" stroke="black" points="521.93,-1041.72 521.93,-1066.72 549.93,-1066.72 549.93,-1041.72 521.93,-1041.72" />
<polygon fill="none" stroke="black" points="549.93,-1041.72 549.93,-1066.72 797.93,-1066.72 797.93,-1041.72 549.93,-1041.72" />
<text text-anchor="start" x="554.93" y="-1050.52" font-family="Helvetica,sans-Serif" font-size="14.00">highest_qualification_achieved</text>
<polygon fill="none" stroke="black" points="797.93,-1041.72 797.93,-1066.72 883.93,-1066.72 883.93,-1041.72 797.93,-1041.72" />
<text text-anchor="start" x="802.93" y="-1050.52" font-family="Helvetica,sans-Serif" font-size="14.00">categorical</text>
<polygon fill="none" stroke="black" points="521.93,-1016.72 521.93,-1041.72 549.93,-1041.72 549.93,-1016.72 521.93,-1016.72" />
<polygon fill="none" stroke="black" points="549.93,-1016.72 549.93,-1041.72 797.93,-1041.72 797.93,-1016.72 549.93,-1016.72" />
<text text-anchor="start" x="554.93" y="-1025.52" font-family="Helvetica,sans-Serif" font-size="14.00">age_finished_study</text>
<polygon fill="none" stroke="black" points="797.93,-1016.72 797.93,-1041.72 883.93,-1041.72 883.93,-1016.72 797.93,-1016.72" />
<text text-anchor="start" x="815.93" y="-1025.52" font-family="Helvetica,sans-Serif" font-size="14.00">integer</text>
<polygon fill="none" stroke="black" points="521.93,-991.72 521.93,-1016.72 549.93,-1016.72 549.93,-991.72 521.93,-991.72" />
<polygon fill="none" stroke="black" points="549.93,-991.72 549.93,-1016.72 797.93,-1016.72 797.93,-991.72 549.93,-991.72" />
<text text-anchor="start" x="554.93" y="-1000.52" font-family="Helvetica,sans-Serif" font-size="14.00">employed_in_home_country</text>
<polygon fill="none" stroke="black" points="797.93,-991.72 797.93,-1016.72 883.93,-1016.72 883.93,-991.72 797.93,-991.72" />
<text text-anchor="start" x="802.93" y="-1000.52" font-family="Helvetica,sans-Serif" font-size="14.00">categorical</text>
<polygon fill="none" stroke="black" points="521.93,-966.72 521.93,-991.72 549.93,-991.72 549.93,-966.72 521.93,-966.72" />
<polygon fill="none" stroke="black" points="549.93,-966.72 549.93,-991.72 797.93,-991.72 797.93,-966.72 549.93,-966.72" />
<text text-anchor="start" x="554.93" y="-975.52" font-family="Helvetica,sans-Serif" font-size="14.00">occupation_type</text>
<polygon fill="none" stroke="black" points="797.93,-966.72 797.93,-991.72 883.93,-991.72 883.93,-966.72 797.93,-966.72" />
<text text-anchor="start" x="820.43" y="-975.52" font-family="Helvetica,sans-Serif" font-size="14.00">string</text>
<polygon fill="none" stroke="black" points="521.93,-941.72 521.93,-966.72 549.93,-966.72 549.93,-941.72 521.93,-941.72" />
<polygon fill="none" stroke="black" points="549.93,-941.72 549.93,-966.72 797.93,-966.72 797.93,-941.72 549.93,-941.72" />
<text text-anchor="start" x="554.93" y="-950.52" font-family="Helvetica,sans-Serif" font-size="14.00">occupation_sector</text>
<polygon fill="none" stroke="black" points="797.93,-941.72 797.93,-966.72 883.93,-966.72 883.93,-941.72 797.93,-941.72" />
<text text-anchor="start" x="820.43" y="-950.52" font-family="Helvetica,sans-Serif" font-size="14.00">string</text>
<polygon fill="none" stroke="black" points="521.93,-916.72 521.93,-941.72 549.93,-941.72 549.93,-916.72 521.93,-916.72" />
<polygon fill="none" stroke="black" points="549.93,-916.72 549.93,-941.72 797.93,-941.72 797.93,-916.72 549.93,-916.72" />
<text text-anchor="start" x="554.93" y="-925.52" font-family="Helvetica,sans-Serif" font-size="14.00">occupation_goal</text>
<polygon fill="none" stroke="black" points="797.93,-916.72 797.93,-941.72 883.93,-941.72 883.93,-916.72 797.93,-916.72" />
<text text-anchor="start" x="820.43" y="-925.52" font-family="Helvetica,sans-Serif" font-size="14.00">string</text>
<polygon fill="none" stroke="black" points="521.93,-891.72 521.93,-916.72 549.93,-916.72 549.93,-891.72 521.93,-891.72" />
<polygon fill="none" stroke="black" points="549.93,-891.72 549.93,-916.72 797.93,-916.72 797.93,-891.72 549.93,-891.72" />
<text text-anchor="start" x="554.93" y="-900.52" font-family="Helvetica,sans-Serif" font-size="14.00">economic_status</text>
<polygon fill="none" stroke="black" points="797.93,-891.72 797.93,-916.72 883.93,-916.72 883.93,-891.72 797.93,-891.72" />
<text text-anchor="start" x="802.93" y="-900.52" font-family="Helvetica,sans-Serif" font-size="14.00">categorical</text>
<polygon fill="none" stroke="black" points="521.93,-866.72 521.93,-891.72 549.93,-891.72 549.93,-866.72 521.93,-866.72" />
<polygon fill="none" stroke="black" points="549.93,-866.72 549.93,-891.72 797.93,-891.72 797.93,-866.72 549.93,-866.72" />
<text text-anchor="start" x="554.93" y="-875.52" font-family="Helvetica,sans-Serif" font-size="14.00">housing_baseline_accommodation</text>
<polygon fill="none" stroke="black" points="797.93,-866.72 797.93,-891.72 883.93,-891.72 883.93,-866.72 797.93,-866.72" />
<text text-anchor="start" x="802.93" y="-875.52" font-family="Helvetica,sans-Serif" font-size="14.00">categorical</text>
</g>

</a><a href="{{ '/records/baseline--person.html' | relative_url }}"><g id="baseline--person" class="edge">
<title>baseline--person</title>
<path fill="none" stroke="#7f7f7f" stroke-dasharray="5,2" d="M711.28,-862.39C713.52,-790.34 715.77,-717.86 717.42,-664.98" />
<text text-anchor="middle" x="712.42" y="-668.78" font-family="Times,serif" font-size="14.00">1</text>
<text text-anchor="middle" x="699.78" y="-851.19" font-family="Times,serif" font-size="14.00">0,1</text>
</g>

</a><a href="{{ '/records/integration_plan.html' | relative_url }}"><g id="integration_plan" class="node">
<title>integration_plan</title>
<polygon fill="#cbd5e8" stroke="transparent" points="452.1,-968.13 62.1,-968.13 62.1,-782.13 452.1,-782.13 452.1,-968.13" />
<polygon fill="none" stroke="black" points="70.1,-936.13 70.1,-964.13 444.1,-964.13 444.1,-936.13 70.1,-936.13" />
<text text-anchor="start" x="183.6" y="-947.33" font-family="Helvetica,sans-Serif" font-weight="bold" font-size="16.00">integration_plan</text>
<polygon fill="none" stroke="black" points="70.1,-911.13 70.1,-936.13 98.1,-936.13 98.1,-911.13 70.1,-911.13" />
<text text-anchor="start" x="75.1" y="-919.93" font-family="Helvetica,sans-Serif" font-size="14.00">PK</text>
<polygon fill="none" stroke="black" points="98.1,-911.13 98.1,-936.13 358.1,-936.13 358.1,-911.13 98.1,-911.13" />
<text text-anchor="start" x="103.1" y="-919.93" font-family="Helvetica,sans-Serif" font-size="14.00">unique_id</text>
<polygon fill="none" stroke="black" points="358.1,-911.13 358.1,-936.13 444.1,-936.13 444.1,-911.13 358.1,-911.13" />
<text text-anchor="start" x="380.6" y="-919.93" font-family="Helvetica,sans-Serif" font-size="14.00">string</text>
<polygon fill="none" stroke="black" points="70.1,-886.13 70.1,-911.13 98.1,-911.13 98.1,-886.13 70.1,-886.13" />
<text text-anchor="start" x="75.1" y="-894.93" font-family="Helvetica,sans-Serif" font-size="14.00">PK</text>
<polygon fill="none" stroke="black" points="98.1,-886.13 98.1,-911.13 358.1,-911.13 358.1,-886.13 98.1,-886.13" />
<text text-anchor="start" x="103.1" y="-894.93" font-family="Helvetica,sans-Serif" font-size="14.00">integration_outcome_type</text>
<polygon fill="none" stroke="black" points="358.1,-886.13 358.1,-911.13 444.1,-911.13 444.1,-886.13 358.1,-886.13" />
<text text-anchor="start" x="363.1" y="-894.93" font-family="Helvetica,sans-Serif" font-size="14.00">categorical</text>
<polygon fill="none" stroke="black" points="70.1,-861.13 70.1,-886.13 98.1,-886.13 98.1,-861.13 70.1,-861.13" />
<polygon fill="none" stroke="black" points="98.1,-861.13 98.1,-886.13 358.1,-886.13 358.1,-861.13 98.1,-861.13" />
<text text-anchor="start" x="103.1" y="-869.93" font-family="Helvetica,sans-Serif" font-size="14.00">integration_outcome_achieved_date</text>
<polygon fill="none" stroke="black" points="358.1,-861.13 358.1,-886.13 444.1,-886.13 444.1,-861.13 358.1,-861.13" />
<text text-anchor="start" x="385.6" y="-869.93" font-family="Helvetica,sans-Serif" font-size="14.00">date</text>
<polygon fill="none" stroke="black" points="70.1,-836.13 70.1,-861.13 98.1,-861.13 98.1,-836.13 70.1,-836.13" />
<polygon fill="none" stroke="black" points="98.1,-836.13 98.1,-861.13 358.1,-861.13 358.1,-836.13 98.1,-836.13" />
<text text-anchor="start" x="103.1" y="-844.93" font-family="Helvetica,sans-Serif" font-size="14.00">integration_social</text>
<polygon fill="none" stroke="black" points="358.1,-836.13 358.1,-861.13 444.1,-861.13 444.1,-836.13 358.1,-836.13" />
<text text-anchor="start" x="363.1" y="-844.93" font-family="Helvetica,sans-Serif" font-size="14.00">categorical</text>
<polygon fill="none" stroke="black" points="70.1,-811.13 70.1,-836.13 98.1,-836.13 98.1,-811.13 70.1,-811.13" />
<polygon fill="none" stroke="black" points="98.1,-811.13 98.1,-836.13 358.1,-836.13 358.1,-811.13 98.1,-811.13" />
<text text-anchor="start" x="103.1" y="-819.93" font-family="Helvetica,sans-Serif" font-size="14.00">integration_comms_language</text>
<polygon fill="none" stroke="black" points="358.1,-811.13 358.1,-836.13 444.1,-836.13 444.1,-811.13 358.1,-811.13" />
<text text-anchor="start" x="363.1" y="-819.93" font-family="Helvetica,sans-Serif" font-size="14.00">categorical</text>
<polygon fill="none" stroke="black" points="70.1,-786.13 70.1,-811.13 98.1,-811.13 98.1,-786.13 70.1,-786.13" />
<polygon fill="none" stroke="black" points="98.1,-786.13 98.1,-811.13 358.1,-811.13 358.1,-786.13 98.1,-786.13" />
<text text-anchor="start" x="103.1" y="-794.93" font-family="Helvetica,sans-Serif" font-size="14.00">integration_digital</text>
<polygon fill="none" stroke="black" points="358.1,-786.13 358.1,-811.13 444.1,-811.13 444.1,-786.13 358.1,-786.13" />
<text text-anchor="start" x="363.1" y="-794.93" font-family="Helvetica,sans-Serif" font-size="14.00">categorical</text>
</g>

</a><a href="{{ '/records/integration_plan--person.html' | relative_url }}"><g id="integration_plan--person" class="edge">
<title>integration_plan--person</title>
<path fill="none" stroke="#7f7f7f" stroke-dasharray="5,2" d="M405.45,-781.96C465.34,-744.35 533.78,-701.36 591.49,-665.11" />
<text text-anchor="middle" x="586.49" y="-668.91" font-family="Times,serif" font-size="14.00">1</text>
<text text-anchor="middle" x="389.95" y="-770.76" font-family="Times,serif" font-size="14.00">0..N</text>
</g>

</a><a href="{{ '/records/employment_intermediate.html' | relative_url }}"><g id="employment_intermediate" class="node">
<title>employment_intermediate</title>
<polygon fill="#f4cae4" stroke="transparent" points="391,-486.06 0,-486.06 0,-375.06 391,-375.06 391,-486.06" />
<polygon fill="none" stroke="black" points="8.5,-453.56 8.5,-481.56 383.5,-481.56 383.5,-453.56 8.5,-453.56" />
<text text-anchor="start" x="78.5" y="-464.76" font-family="Helvetica,sans-Serif" font-weight="bold" font-size="16.00">employment_intermediate</text>
<polygon fill="none" stroke="black" points="8.5,-428.56 8.5,-453.56 36.5,-453.56 36.5,-428.56 8.5,-428.56" />
<text text-anchor="start" x="13.5" y="-437.36" font-family="Helvetica,sans-Serif" font-size="14.00">PK</text>
<polygon fill="none" stroke="black" points="36.5,-428.56 36.5,-453.56 332.5,-453.56 332.5,-428.56 36.5,-428.56" />
<text text-anchor="start" x="41.5" y="-437.36" font-family="Helvetica,sans-Serif" font-size="14.00">unique_id</text>
<polygon fill="none" stroke="black" points="332.5,-428.56 332.5,-453.56 383.5,-453.56 383.5,-428.56 332.5,-428.56" />
<text text-anchor="start" x="337.5" y="-437.36" font-family="Helvetica,sans-Serif" font-size="14.00">string</text>
<polygon fill="none" stroke="black" points="8.5,-403.56 8.5,-428.56 36.5,-428.56 36.5,-403.56 8.5,-403.56" />
<polygon fill="none" stroke="black" points="36.5,-403.56 36.5,-428.56 332.5,-428.56 332.5,-403.56 36.5,-403.56" />
<text text-anchor="start" x="41.5" y="-412.36" font-family="Helvetica,sans-Serif" font-size="14.00">date_intermediate_employment_outcome</text>
<polygon fill="none" stroke="black" points="332.5,-403.56 332.5,-428.56 383.5,-428.56 383.5,-403.56 332.5,-403.56" />
<text text-anchor="start" x="342.5" y="-412.36" font-family="Helvetica,sans-Serif" font-size="14.00">date</text>
<polygon fill="none" stroke="black" points="8.5,-378.56 8.5,-403.56 36.5,-403.56 36.5,-378.56 8.5,-378.56" />
<polygon fill="none" stroke="black" points="36.5,-378.56 36.5,-403.56 332.5,-403.56 332.5,-378.56 36.5,-378.56" />
<text text-anchor="start" x="41.5" y="-387.36" font-family="Helvetica,sans-Serif" font-size="14.00">intermediate_employment_outcome_type</text>
<polygon fill="none" stroke="black" points="332.5,-378.56 332.5,-403.56 383.5,-403.56 383.5,-378.56 332.5,-378.56" />
<text text-anchor="start" x="347.5" y="-387.36" font-family="Helvetica,sans-Serif" font-size="14.00">list</text>
</g>

</a><a href="{{ '/records/employment_intermediate--person.html' | relative_url }}"><g id="employment_intermediate--person" class="edge">
<title>employment_intermediate--person</title>
<path fill="none" stroke="#7f7f7f" stroke-dasharray="5,2" d="M384.83,-486.12C448.49,-504.8 518.39,-525.31 577.79,-542.74" />
<text text-anchor="middle" x="572.79" y="-546.54" font-family="Times,serif" font-size="14.00">1</text>
<text text-anchor="middle" x="373.33" y="-489.92" font-family="Times,serif" font-size="14.00">0,1</text>
</g>

</a><a href="{{ '/records/employment_entry.html' | relative_url }}"><g id="employment_entry" class="node">
<title>employment_entry</title>
<polygon fill="#f4cae4" stroke="transparent" points="668.3,-186 293.3,-186 293.3,0 668.3,0 668.3,-186" />
<polygon fill="none" stroke="black" points="301.8,-154 301.8,-182 660.8,-182 660.8,-154 301.8,-154" />
<text text-anchor="start" x="397.3" y="-165.2" font-family="Helvetica,sans-Serif" font-weight="bold" font-size="16.00">employment_entry</text>
<polygon fill="none" stroke="black" points="301.8,-129 301.8,-154 329.8,-154 329.8,-129 301.8,-129" />
<text text-anchor="start" x="306.8" y="-137.8" font-family="Helvetica,sans-Serif" font-size="14.00">PK</text>
<polygon fill="none" stroke="black" points="329.8,-129 329.8,-154 574.8,-154 574.8,-129 329.8,-129" />
<text text-anchor="start" x="334.8" y="-137.8" font-family="Helvetica,sans-Serif" font-size="14.00">unique_id</text>
<polygon fill="none" stroke="black" points="574.8,-129 574.8,-154 660.8,-154 660.8,-129 574.8,-129" />
<text text-anchor="start" x="597.3" y="-137.8" font-family="Helvetica,sans-Serif" font-size="14.00">string</text>
<polygon fill="none" stroke="black" points="301.8,-104 301.8,-129 329.8,-129 329.8,-104 301.8,-104" />
<polygon fill="none" stroke="black" points="329.8,-104 329.8,-129 574.8,-129 574.8,-104 329.8,-104" />
<text text-anchor="start" x="334.8" y="-112.8" font-family="Helvetica,sans-Serif" font-size="14.00">employment_entry_outcome_type</text>
<polygon fill="none" stroke="black" points="574.8,-104 574.8,-129 660.8,-129 660.8,-104 574.8,-104" />
<text text-anchor="start" x="579.8" y="-112.8" font-family="Helvetica,sans-Serif" font-size="14.00">categorical</text>
<polygon fill="none" stroke="black" points="301.8,-79 301.8,-104 329.8,-104 329.8,-79 301.8,-79" />
<polygon fill="none" stroke="black" points="329.8,-79 329.8,-104 574.8,-104 574.8,-79 329.8,-79" />
<text text-anchor="start" x="334.8" y="-87.8" font-family="Helvetica,sans-Serif" font-size="14.00">date_employment_entry</text>
<polygon fill="none" stroke="black" points="574.8,-79 574.8,-104 660.8,-104 660.8,-79 574.8,-79" />
<text text-anchor="start" x="602.3" y="-87.8" font-family="Helvetica,sans-Serif" font-size="14.00">date</text>
<polygon fill="none" stroke="black" points="301.8,-54 301.8,-79 329.8,-79 329.8,-54 301.8,-54" />
<polygon fill="none" stroke="black" points="329.8,-54 329.8,-79 574.8,-79 574.8,-54 329.8,-54" />
<text text-anchor="start" x="334.8" y="-62.8" font-family="Helvetica,sans-Serif" font-size="14.00">employment_entry_details</text>
<polygon fill="none" stroke="black" points="574.8,-54 574.8,-79 660.8,-79 660.8,-54 574.8,-54" />
<text text-anchor="start" x="579.8" y="-62.8" font-family="Helvetica,sans-Serif" font-size="14.00">categorical</text>
<polygon fill="none" stroke="black" points="301.8,-29 301.8,-54 329.8,-54 329.8,-29 301.8,-29" />
<polygon fill="none" stroke="black" points="329.8,-29 329.8,-54 574.8,-54 574.8,-29 329.8,-29" />
<text text-anchor="start" x="334.8" y="-37.8" font-family="Helvetica,sans-Serif" font-size="14.00">employment_entry_occupation</text>
<polygon fill="none" stroke="black" points="574.8,-29 574.8,-54 660.8,-54 660.8,-29 574.8,-29" />
<text text-anchor="start" x="597.3" y="-37.8" font-family="Helvetica,sans-Serif" font-size="14.00">string</text>
<polygon fill="none" stroke="black" points="301.8,-4 301.8,-29 329.8,-29 329.8,-4 301.8,-4" />
<polygon fill="none" stroke="black" points="329.8,-4 329.8,-29 574.8,-29 574.8,-4 329.8,-4" />
<text text-anchor="start" x="334.8" y="-12.8" font-family="Helvetica,sans-Serif" font-size="14.00">employment_entry_sector</text>
<polygon fill="none" stroke="black" points="574.8,-4 574.8,-29 660.8,-29 660.8,-4 574.8,-4" />
<text text-anchor="start" x="597.3" y="-12.8" font-family="Helvetica,sans-Serif" font-size="14.00">string</text>
</g>

</a><a href="{{ '/records/employment_entry--person.html' | relative_url }}"><g id="employment_entry--person" class="edge">
<title>employment_entry--person</title>
<path fill="none" stroke="#7f7f7f" stroke-dasharray="5,2" d="M526.06,-186.02C570.67,-277.71 638.16,-416.4 680.6,-503.62" />
<text text-anchor="middle" x="675.6" y="-492.42" font-family="Times,serif" font-size="14.00">1</text>
<text text-anchor="middle" x="514.56" y="-189.82" font-family="Times,serif" font-size="14.00">0,1</text>
</g>

</a><a href="{{ '/records/employment_sustain.html' | relative_url }}"><g id="employment_sustain" class="node">
<title>employment_sustain</title>
<polygon fill="#f4cae4" stroke="transparent" points="1052.03,-108.22 729.03,-108.22 729.03,-22.22 1052.03,-22.22 1052.03,-108.22" />
<polygon fill="none" stroke="black" points="737.53,-76.22 737.53,-104.22 1044.53,-104.22 1044.53,-76.22 737.53,-76.22" />
<text text-anchor="start" x="798.53" y="-87.42" font-family="Helvetica,sans-Serif" font-weight="bold" font-size="16.00">employment_sustain</text>
<polygon fill="none" stroke="black" points="737.53,-51.22 737.53,-76.22 765.53,-76.22 765.53,-51.22 737.53,-51.22" />
<text text-anchor="start" x="742.53" y="-60.02" font-family="Helvetica,sans-Serif" font-size="14.00">PK</text>
<polygon fill="none" stroke="black" points="765.53,-51.22 765.53,-76.22 993.53,-76.22 993.53,-51.22 765.53,-51.22" />
<text text-anchor="start" x="770.53" y="-60.02" font-family="Helvetica,sans-Serif" font-size="14.00">unique_id</text>
<polygon fill="none" stroke="black" points="993.53,-51.22 993.53,-76.22 1044.53,-76.22 1044.53,-51.22 993.53,-51.22" />
<text text-anchor="start" x="998.53" y="-60.02" font-family="Helvetica,sans-Serif" font-size="14.00">string</text>
<polygon fill="none" stroke="black" points="737.53,-26.22 737.53,-51.22 765.53,-51.22 765.53,-26.22 737.53,-26.22" />
<polygon fill="none" stroke="black" points="765.53,-26.22 765.53,-51.22 993.53,-51.22 993.53,-26.22 765.53,-26.22" />
<text text-anchor="start" x="770.53" y="-35.02" font-family="Helvetica,sans-Serif" font-size="14.00">employment_sustainment_date</text>
<polygon fill="none" stroke="black" points="993.53,-26.22 993.53,-51.22 1044.53,-51.22 1044.53,-26.22 993.53,-26.22" />
<text text-anchor="start" x="1003.53" y="-35.02" font-family="Helvetica,sans-Serif" font-size="14.00">date</text>
</g>

</a><a href="{{ '/records/employment_sustain--person.html' | relative_url }}"><g id="employment_sustain--person" class="edge">
<title>employment_sustain--person</title>
<path fill="none" stroke="#7f7f7f" stroke-dasharray="5,2" d="M876.27,-108.6C847.68,-195.61 782.95,-392.63 746.38,-503.94" />
<text text-anchor="middle" x="741.38" y="-492.74" font-family="Times,serif" font-size="14.00">1</text>
<text text-anchor="middle" x="864.77" y="-112.4" font-family="Times,serif" font-size="14.00">0,1</text>
</g>

</a><a href="{{ '/records/date_last_seen.html' | relative_url }}"><g id="date_last_seen" class="node">
<title>date_last_seen</title>
<polygon fill="#e6f5c9" stroke="transparent" points="1263.66,-302.89 1055.66,-302.89 1055.66,-216.89 1263.66,-216.89 1263.66,-302.89" />
<polygon fill="none" stroke="black" points="1063.66,-270.89 1063.66,-298.89 1255.66,-298.89 1255.66,-270.89 1063.66,-270.89" />
<text text-anchor="start" x="1093.66" y="-282.09" font-family="Helvetica,sans-Serif" font-weight="bold" font-size="16.00">date_last_seen</text>
<polygon fill="none" stroke="black" points="1063.66,-245.89 1063.66,-270.89 1091.66,-270.89 1091.66,-245.89 1063.66,-245.89" />
<text text-anchor="start" x="1068.66" y="-254.69" font-family="Helvetica,sans-Serif" font-size="14.00">PK</text>
<polygon fill="none" stroke="black" points="1091.66,-245.89 1091.66,-270.89 1204.66,-270.89 1204.66,-245.89 1091.66,-245.89" />
<text text-anchor="start" x="1096.66" y="-254.69" font-family="Helvetica,sans-Serif" font-size="14.00">unique_id</text>
<polygon fill="none" stroke="black" points="1204.66,-245.89 1204.66,-270.89 1255.66,-270.89 1255.66,-245.89 1204.66,-245.89" />
<text text-anchor="start" x="1209.66" y="-254.69" font-family="Helvetica,sans-Serif" font-size="14.00">string</text>
<polygon fill="none" stroke="black" points="1063.66,-220.89 1063.66,-245.89 1091.66,-245.89 1091.66,-220.89 1063.66,-220.89" />
<polygon fill="none" stroke="black" points="1091.66,-220.89 1091.66,-245.89 1204.66,-245.89 1204.66,-220.89 1091.66,-220.89" />
<text text-anchor="start" x="1096.66" y="-229.69" font-family="Helvetica,sans-Serif" font-size="14.00">date_last_seen</text>
<polygon fill="none" stroke="black" points="1204.66,-220.89 1204.66,-245.89 1255.66,-245.89 1255.66,-220.89 1204.66,-220.89" />
<text text-anchor="start" x="1214.66" y="-229.69" font-family="Helvetica,sans-Serif" font-size="14.00">date</text>
</g>

</a><a href="{{ '/records/date_last_seen--person.html' | relative_url }}"><g id="date_last_seen--person" class="edge">
<title>date_last_seen--person</title>
<path fill="none" stroke="#7f7f7f" stroke-dasharray="5,2" d="M1101.27,-302.99C1032.11,-354.03 915.46,-440.13 829.35,-503.69" />
<text text-anchor="middle" x="824.35" y="-492.49" font-family="Times,serif" font-size="14.00">1</text>
<text text-anchor="middle" x="1089.77" y="-306.79" font-family="Times,serif" font-size="14.00">0,1</text>
</g>
</a></g>
</svg>