<svg xmlns="http://www.w3.org/2000/svg" width="auto" height="auto" viewBox="0.00 0.00 1450.45 1455.02">
<g id="graph0" class="graph" transform="scale(1 1) rotate(0) translate(4 1451.02)">
<title>%3</title>
<a href="{{ '/records/person.html' | relative_url }}"><g id="person" class="node">
<title>person</title>
<polygon fill="#b3e2cd" stroke="transparent" points="862.43,-697 578.43,-697 578.43,-536 862.43,-536 862.43,-697" />
<polygon fill="none" stroke="black" points="586.43,-664.5 586.43,-692.5 854.43,-692.5 854.43,-664.5 586.43,-664.5" />
<text text-anchor="start" x="688.93" y="-675.7" font-family="Helvetica,sans-Serif" font-weight="bold" font-size="16.00">person</text>
<polygon fill="none" stroke="black" points="586.43,-639.5 586.43,-664.5 614.43,-664.5 614.43,-639.5 586.43,-639.5" />
<text text-anchor="start" x="591.43" y="-648.3" font-family="Helvetica,sans-Serif" font-size="14.00">PK</text>
<polygon fill="none" stroke="black" points="614.43,-639.5 614.43,-664.5 768.43,-664.5 768.43,-639.5 614.43,-639.5" />
<text text-anchor="start" x="619.43" y="-648.3" font-family="Helvetica,sans-Serif" font-size="14.00">unique_id</text>
<polygon fill="none" stroke="black" points="768.43,-639.5 768.43,-664.5 854.43,-664.5 854.43,-639.5 768.43,-639.5" />
<text text-anchor="start" x="790.93" y="-648.3" font-family="Helvetica,sans-Serif" font-size="14.00">string</text>
<polygon fill="none" stroke="black" points="586.43,-614.5 586.43,-639.5 614.43,-639.5 614.43,-614.5 586.43,-614.5" />
<polygon fill="none" stroke="black" points="614.43,-614.5 614.43,-639.5 768.43,-639.5 768.43,-614.5 614.43,-614.5" />
<text text-anchor="start" x="619.43" y="-623.3" font-family="Helvetica,sans-Serif" font-size="14.00">year_of_birth</text>
<polygon fill="none" stroke="black" points="768.43,-614.5 768.43,-639.5 854.43,-639.5 854.43,-614.5 768.43,-614.5" />
<text text-anchor="start" x="795.93" y="-623.3" font-family="Helvetica,sans-Serif" font-size="14.00">year</text>
<polygon fill="none" stroke="black" points="586.43,-589.5 586.43,-614.5 614.43,-614.5 614.43,-589.5 586.43,-589.5" />
<polygon fill="none" stroke="black" points="614.43,-589.5 614.43,-614.5 768.43,-614.5 768.43,-589.5 614.43,-589.5" />
<text text-anchor="start" x="619.43" y="-598.3" font-family="Helvetica,sans-Serif" font-size="14.00">gender</text>
<polygon fill="none" stroke="black" points="768.43,-589.5 768.43,-614.5 854.43,-614.5 854.43,-589.5 768.43,-589.5" />
<text text-anchor="start" x="773.43" y="-598.3" font-family="Helvetica,sans-Serif" font-size="14.00">categorical</text>
<polygon fill="none" stroke="black" points="586.43,-564.5 586.43,-589.5 614.43,-589.5 614.43,-564.5 586.43,-564.5" />
<polygon fill="none" stroke="black" points="614.43,-564.5 614.43,-589.5 768.43,-589.5 768.43,-564.5 614.43,-564.5" />
<text text-anchor="start" x="619.43" y="-573.3" font-family="Helvetica,sans-Serif" font-size="14.00">dispersal_area</text>
<polygon fill="none" stroke="black" points="768.43,-564.5 768.43,-589.5 854.43,-589.5 854.43,-564.5 768.43,-564.5" />
<text text-anchor="start" x="790.93" y="-573.3" font-family="Helvetica,sans-Serif" font-size="14.00">string</text>
<polygon fill="none" stroke="black" points="586.43,-539.5 586.43,-564.5 614.43,-564.5 614.43,-539.5 586.43,-539.5" />
<polygon fill="none" stroke="black" points="614.43,-539.5 614.43,-564.5 768.43,-564.5 768.43,-539.5 614.43,-539.5" />
<text text-anchor="start" x="619.43" y="-548.3" font-family="Helvetica,sans-Serif" font-size="14.00">date_started_service</text>
<polygon fill="none" stroke="black" points="768.43,-539.5 768.43,-564.5 854.43,-564.5 854.43,-539.5 768.43,-539.5" />
<text text-anchor="start" x="795.93" y="-548.3" font-family="Helvetica,sans-Serif" font-size="14.00">date</text>
</g>

</a><a href="{{ '/records/housing_entry.html' | relative_url }}"><g id="housing_entry" class="node">
<title>housing_entry</title>
<polygon fill="#fdcdac" stroke="transparent" points="1442.45,-672 1099.45,-672 1099.45,-561 1442.45,-561 1442.45,-672" />
<polygon fill="none" stroke="black" points="1107.95,-639.5 1107.95,-667.5 1434.95,-667.5 1434.95,-639.5 1107.95,-639.5" />
<text text-anchor="start" x="1207.45" y="-650.7" font-family="Helvetica,sans-Serif" font-weight="bold" font-size="16.00">housing_entry</text>
<polygon fill="none" stroke="black" points="1107.95,-614.5 1107.95,-639.5 1135.95,-639.5 1135.95,-614.5 1107.95,-614.5" />
<text text-anchor="start" x="1112.95" y="-623.3" font-family="Helvetica,sans-Serif" font-size="14.00">PK</text>
<polygon fill="none" stroke="black" points="1135.95,-614.5 1135.95,-639.5 1348.95,-639.5 1348.95,-614.5 1135.95,-614.5" />
<text text-anchor="start" x="1140.95" y="-623.3" font-family="Helvetica,sans-Serif" font-size="14.00">unique_id</text>
<polygon fill="none" stroke="black" points="1348.95,-614.5 1348.95,-639.5 1434.95,-639.5 1434.95,-614.5 1348.95,-614.5" />
<text text-anchor="start" x="1371.45" y="-623.3" font-family="Helvetica,sans-Serif" font-size="14.00">string</text>
<polygon fill="none" stroke="black" points="1107.95,-589.5 1107.95,-614.5 1135.95,-614.5 1135.95,-589.5 1107.95,-589.5" />
<polygon fill="none" stroke="black" points="1135.95,-589.5 1135.95,-614.5 1348.95,-614.5 1348.95,-589.5 1135.95,-589.5" />
<text text-anchor="start" x="1140.95" y="-598.3" font-family="Helvetica,sans-Serif" font-size="14.00">housing_entry_date</text>
<polygon fill="none" stroke="black" points="1348.95,-589.5 1348.95,-614.5 1434.95,-614.5 1434.95,-589.5 1348.95,-589.5" />
<text text-anchor="start" x="1376.45" y="-598.3" font-family="Helvetica,sans-Serif" font-size="14.00">date</text>
<polygon fill="none" stroke="black" points="1107.95,-564.5 1107.95,-589.5 1135.95,-589.5 1135.95,-564.5 1107.95,-564.5" />
<polygon fill="none" stroke="black" points="1135.95,-564.5 1135.95,-589.5 1348.95,-589.5 1348.95,-564.5 1135.95,-564.5" />
<text text-anchor="start" x="1140.95" y="-573.3" font-family="Helvetica,sans-Serif" font-size="14.00">housing_entry_accomodation</text>
<polygon fill="none" stroke="black" points="1348.95,-564.5 1348.95,-589.5 1434.95,-589.5 1434.95,-564.5 1348.95,-564.5" />
<text text-anchor="start" x="1353.95" y="-573.3" font-family="Helvetica,sans-Serif" font-size="14.00">categorical</text>
</g>

</a><a href="{{ '/records/housing_entry--person.html' | relative_url }}"><g id="housing_entry--person" class="edge">
<title>housing_entry--person</title>
<path fill="none" stroke="#7f7f7f" stroke-dasharray="5,2" d="M1099.4,-616.5C1023.35,-616.5 934.93,-616.5 862.63,-616.5" />
<text text-anchor="middle" x="867.63" y="-620.3" font-family="Times,serif" font-size="14.00">1</text>
<text text-anchor="middle" x="1087.9" y="-620.3" font-family="Times,serif" font-size="14.00">0,1</text>
</g>

</a><a href="{{ '/records/housing_sustain.html' | relative_url }}"><g id="housing_sustain" class="node">
<title>housing_sustain</title>
<polygon fill="#fdcdac" stroke="transparent" points="1284.81,-1017.3 992.81,-1017.3 992.81,-931.3 1284.81,-931.3 1284.81,-1017.3" />
<polygon fill="none" stroke="black" points="1000.81,-985.3 1000.81,-1013.3 1276.81,-1013.3 1276.81,-985.3 1000.81,-985.3" />
<text text-anchor="start" x="1066.31" y="-996.5" font-family="Helvetica,sans-Serif" font-weight="bold" font-size="16.00">housing_sustain</text>
<polygon fill="none" stroke="black" points="1000.81,-960.3 1000.81,-985.3 1028.81,-985.3 1028.81,-960.3 1000.81,-960.3" />
<text text-anchor="start" x="1005.81" y="-969.1" font-family="Helvetica,sans-Serif" font-size="14.00">PK</text>
<polygon fill="none" stroke="black" points="1028.81,-960.3 1028.81,-985.3 1225.81,-985.3 1225.81,-960.3 1028.81,-960.3" />
<text text-anchor="start" x="1033.81" y="-969.1" font-family="Helvetica,sans-Serif" font-size="14.00">unique_id</text>
<polygon fill="none" stroke="black" points="1225.81,-960.3 1225.81,-985.3 1276.81,-985.3 1276.81,-960.3 1225.81,-960.3" />
<text text-anchor="start" x="1230.81" y="-969.1" font-family="Helvetica,sans-Serif" font-size="14.00">string</text>
<polygon fill="none" stroke="black" points="1000.81,-935.3 1000.81,-960.3 1028.81,-960.3 1028.81,-935.3 1000.81,-935.3" />
<polygon fill="none" stroke="black" points="1028.81,-935.3 1028.81,-960.3 1225.81,-960.3 1225.81,-935.3 1028.81,-935.3" />
<text text-anchor="start" x="1033.81" y="-944.1" font-family="Helvetica,sans-Serif" font-size="14.00">housing_sustainment_date</text>
<polygon fill="none" stroke="black" points="1225.81,-935.3 1225.81,-960.3 1276.81,-960.3 1276.81,-935.3 1225.81,-935.3" />
<text text-anchor="start" x="1235.81" y="-944.1" font-family="Helvetica,sans-Serif" font-size="14.00">date</text>
</g>

</a><a href="{{ '/records/housing_sustain--person.html' | relative_url }}"><g id="housing_sustain--person" class="edge">
<title>housing_sustain--person</title>
<path fill="none" stroke="#7f7f7f" stroke-dasharray="5,2" d="M1088.35,-931.14C1020.75,-873.34 899.53,-769.66 814.77,-697.17" />
<text text-anchor="middle" x="809.77" y="-700.97" font-family="Times,serif" font-size="14.00">1</text>
<text text-anchor="middle" x="1076.85" y="-919.94" font-family="Times,serif" font-size="14.00">0,1</text>
</g>

</a><a href="{{ '/records/baseline.html' | relative_url }}"><g id="baseline" class="node">
<title>baseline</title>
<polygon fill="#cbd5e8" stroke="transparent" points="886.19,-1447.02 508.19,-1447.02 508.19,-886.02 886.19,-886.02 886.19,-1447.02" />
<polygon fill="none" stroke="black" points="516.19,-1414.52 516.19,-1442.52 878.19,-1442.52 878.19,-1414.52 516.19,-1414.52" />
<text text-anchor="start" x="659.69" y="-1425.72" font-family="Helvetica,sans-Serif" font-weight="bold" font-size="16.00">baseline</text>
<polygon fill="none" stroke="black" points="516.19,-1389.52 516.19,-1414.52 544.19,-1414.52 544.19,-1389.52 516.19,-1389.52" />
<text text-anchor="start" x="521.19" y="-1398.32" font-family="Helvetica,sans-Serif" font-size="14.00">PK</text>
<polygon fill="none" stroke="black" points="544.19,-1389.52 544.19,-1414.52 792.19,-1414.52 792.19,-1389.52 544.19,-1389.52" />
<text text-anchor="start" x="549.19" y="-1398.32" font-family="Helvetica,sans-Serif" font-size="14.00">unique_id</text>
<polygon fill="none" stroke="black" points="792.19,-1389.52 792.19,-1414.52 878.19,-1414.52 878.19,-1389.52 792.19,-1389.52" />
<text text-anchor="start" x="814.69" y="-1398.32" font-family="Helvetica,sans-Serif" font-size="14.00">string</text>
<polygon fill="none" stroke="black" points="516.19,-1364.52 516.19,-1389.52 544.19,-1389.52 544.19,-1364.52 516.19,-1364.52" />
<polygon fill="none" stroke="black" points="544.19,-1364.52 544.19,-1389.52 792.19,-1389.52 792.19,-1364.52 544.19,-1364.52" />
<text text-anchor="start" x="549.19" y="-1373.32" font-family="Helvetica,sans-Serif" font-size="14.00">ni_number</text>
<polygon fill="none" stroke="black" points="792.19,-1364.52 792.19,-1389.52 878.19,-1389.52 878.19,-1364.52 792.19,-1364.52" />
<text text-anchor="start" x="814.69" y="-1373.32" font-family="Helvetica,sans-Serif" font-size="14.00">string</text>
<polygon fill="none" stroke="black" points="516.19,-1339.52 516.19,-1364.52 544.19,-1364.52 544.19,-1339.52 516.19,-1339.52" />
<polygon fill="none" stroke="black" points="544.19,-1339.52 544.19,-1364.52 792.19,-1364.52 792.19,-1339.52 544.19,-1339.52" />
<text text-anchor="start" x="549.19" y="-1348.32" font-family="Helvetica,sans-Serif" font-size="14.00">nationality</text>
<polygon fill="none" stroke="black" points="792.19,-1339.52 792.19,-1364.52 878.19,-1364.52 878.19,-1339.52 792.19,-1339.52" />
<text text-anchor="start" x="797.19" y="-1348.32" font-family="Helvetica,sans-Serif" font-size="14.00">categorical</text>
<polygon fill="none" stroke="black" points="516.19,-1314.52 516.19,-1339.52 544.19,-1339.52 544.19,-1314.52 516.19,-1314.52" />
<polygon fill="none" stroke="black" points="544.19,-1314.52 544.19,-1339.52 792.19,-1339.52 792.19,-1314.52 544.19,-1314.52" />
<text text-anchor="start" x="549.19" y="-1323.32" font-family="Helvetica,sans-Serif" font-size="14.00">referral_source</text>
<polygon fill="none" stroke="black" points="792.19,-1314.52 792.19,-1339.52 878.19,-1339.52 878.19,-1314.52 792.19,-1314.52" />
<text text-anchor="start" x="797.19" y="-1323.32" font-family="Helvetica,sans-Serif" font-size="14.00">categorical</text>
<polygon fill="none" stroke="black" points="516.19,-1289.52 516.19,-1314.52 544.19,-1314.52 544.19,-1289.52 516.19,-1289.52" />
<polygon fill="none" stroke="black" points="544.19,-1289.52 544.19,-1314.52 792.19,-1314.52 792.19,-1289.52 544.19,-1289.52" />
<text text-anchor="start" x="549.19" y="-1298.32" font-family="Helvetica,sans-Serif" font-size="14.00">transgender</text>
<polygon fill="none" stroke="black" points="792.19,-1289.52 792.19,-1314.52 878.19,-1314.52 878.19,-1289.52 792.19,-1289.52" />
<text text-anchor="start" x="797.19" y="-1298.32" font-family="Helvetica,sans-Serif" font-size="14.00">categorical</text>
<polygon fill="none" stroke="black" points="516.19,-1264.52 516.19,-1289.52 544.19,-1289.52 544.19,-1264.52 516.19,-1264.52" />
<polygon fill="none" stroke="black" points="544.19,-1264.52 544.19,-1289.52 792.19,-1289.52 792.19,-1264.52 544.19,-1264.52" />
<text text-anchor="start" x="549.19" y="-1273.32" font-family="Helvetica,sans-Serif" font-size="14.00">current_dependents_uk</text>
<polygon fill="none" stroke="black" points="792.19,-1264.52 792.19,-1289.52 878.19,-1289.52 878.19,-1264.52 792.19,-1264.52" />
<text text-anchor="start" x="797.19" y="-1273.32" font-family="Helvetica,sans-Serif" font-size="14.00">categorical</text>
<polygon fill="none" stroke="black" points="516.19,-1239.52 516.19,-1264.52 544.19,-1264.52 544.19,-1239.52 516.19,-1239.52" />
<polygon fill="none" stroke="black" points="544.19,-1239.52 544.19,-1264.52 792.19,-1264.52 792.19,-1239.52 544.19,-1239.52" />
<text text-anchor="start" x="549.19" y="-1248.32" font-family="Helvetica,sans-Serif" font-size="14.00">age_profile_of_dependents_uk</text>
<polygon fill="none" stroke="black" points="792.19,-1239.52 792.19,-1264.52 878.19,-1264.52 878.19,-1239.52 792.19,-1239.52" />
<text text-anchor="start" x="824.69" y="-1248.32" font-family="Helvetica,sans-Serif" font-size="14.00">list</text>
<polygon fill="none" stroke="black" points="516.19,-1214.52 516.19,-1239.52 544.19,-1239.52 544.19,-1214.52 516.19,-1214.52" />
<polygon fill="none" stroke="black" points="544.19,-1214.52 544.19,-1239.52 792.19,-1239.52 792.19,-1214.52 544.19,-1214.52" />
<text text-anchor="start" x="549.19" y="-1223.32" font-family="Helvetica,sans-Serif" font-size="14.00">date_arrived_in_uk</text>
<polygon fill="none" stroke="black" points="792.19,-1214.52 792.19,-1239.52 878.19,-1239.52 878.19,-1214.52 792.19,-1214.52" />
<text text-anchor="start" x="819.69" y="-1223.32" font-family="Helvetica,sans-Serif" font-size="14.00">date</text>
<polygon fill="none" stroke="black" points="516.19,-1189.52 516.19,-1214.52 544.19,-1214.52 544.19,-1189.52 516.19,-1189.52" />
<polygon fill="none" stroke="black" points="544.19,-1189.52 544.19,-1214.52 792.19,-1214.52 792.19,-1189.52 544.19,-1189.52" />
<text text-anchor="start" x="549.19" y="-1198.32" font-family="Helvetica,sans-Serif" font-size="14.00">date_asylum_status_granted</text>
<polygon fill="none" stroke="black" points="792.19,-1189.52 792.19,-1214.52 878.19,-1214.52 878.19,-1189.52 792.19,-1189.52" />
<text text-anchor="start" x="819.69" y="-1198.32" font-family="Helvetica,sans-Serif" font-size="14.00">date</text>
<polygon fill="none" stroke="black" points="516.19,-1164.52 516.19,-1189.52 544.19,-1189.52 544.19,-1164.52 516.19,-1164.52" />
<polygon fill="none" stroke="black" points="544.19,-1164.52 544.19,-1189.52 792.19,-1189.52 792.19,-1164.52 544.19,-1164.52" />
<text text-anchor="start" x="549.19" y="-1173.32" font-family="Helvetica,sans-Serif" font-size="14.00">language_level_on_entry</text>
<polygon fill="none" stroke="black" points="792.19,-1164.52 792.19,-1189.52 878.19,-1189.52 878.19,-1164.52 792.19,-1164.52" />
<text text-anchor="start" x="797.19" y="-1173.32" font-family="Helvetica,sans-Serif" font-size="14.00">categorical</text>
<polygon fill="none" stroke="black" points="516.19,-1139.52 516.19,-1164.52 544.19,-1164.52 544.19,-1139.52 516.19,-1139.52" />
<polygon fill="none" stroke="black" points="544.19,-1139.52 544.19,-1164.52 792.19,-1164.52 792.19,-1139.52 544.19,-1139.52" />
<text text-anchor="start" x="549.19" y="-1148.32" font-family="Helvetica,sans-Serif" font-size="14.00">highest_qualification_achieved</text>
<polygon fill="none" stroke="black" points="792.19,-1139.52 792.19,-1164.52 878.19,-1164.52 878.19,-1139.52 792.19,-1139.52" />
<text text-anchor="start" x="797.19" y="-1148.32" font-family="Helvetica,sans-Serif" font-size="14.00">categorical</text>
<polygon fill="none" stroke="black" points="516.19,-1114.52 516.19,-1139.52 544.19,-1139.52 544.19,-1114.52 516.19,-1114.52" />
<polygon fill="none" stroke="black" points="544.19,-1114.52 544.19,-1139.52 792.19,-1139.52 792.19,-1114.52 544.19,-1114.52" />
<text text-anchor="start" x="549.19" y="-1123.32" font-family="Helvetica,sans-Serif" font-size="14.00">age_finished_study</text>
<polygon fill="none" stroke="black" points="792.19,-1114.52 792.19,-1139.52 878.19,-1139.52 878.19,-1114.52 792.19,-1114.52" />
<text text-anchor="start" x="810.19" y="-1123.32" font-family="Helvetica,sans-Serif" font-size="14.00">integer</text>
<polygon fill="none" stroke="black" points="516.19,-1089.52 516.19,-1114.52 544.19,-1114.52 544.19,-1089.52 516.19,-1089.52" />
<polygon fill="none" stroke="black" points="544.19,-1089.52 544.19,-1114.52 792.19,-1114.52 792.19,-1089.52 544.19,-1089.52" />
<text text-anchor="start" x="549.19" y="-1098.32" font-family="Helvetica,sans-Serif" font-size="14.00">employed_in_home_country</text>
<polygon fill="none" stroke="black" points="792.19,-1089.52 792.19,-1114.52 878.19,-1114.52 878.19,-1089.52 792.19,-1089.52" />
<text text-anchor="start" x="797.19" y="-1098.32" font-family="Helvetica,sans-Serif" font-size="14.00">categorical</text>
<polygon fill="none" stroke="black" points="516.19,-1064.52 516.19,-1089.52 544.19,-1089.52 544.19,-1064.52 516.19,-1064.52" />
<polygon fill="none" stroke="black" points="544.19,-1064.52 544.19,-1089.52 792.19,-1089.52 792.19,-1064.52 544.19,-1064.52" />
<text text-anchor="start" x="549.19" y="-1073.32" font-family="Helvetica,sans-Serif" font-size="14.00">occupation_type</text>
<polygon fill="none" stroke="black" points="792.19,-1064.52 792.19,-1089.52 878.19,-1089.52 878.19,-1064.52 792.19,-1064.52" />
<text text-anchor="start" x="814.69" y="-1073.32" font-family="Helvetica,sans-Serif" font-size="14.00">string</text>
<polygon fill="none" stroke="black" points="516.19,-1039.52 516.19,-1064.52 544.19,-1064.52 544.19,-1039.52 516.19,-1039.52" />
<polygon fill="none" stroke="black" points="544.19,-1039.52 544.19,-1064.52 792.19,-1064.52 792.19,-1039.52 544.19,-1039.52" />
<text text-anchor="start" x="549.19" y="-1048.32" font-family="Helvetica,sans-Serif" font-size="14.00">occupation_sector</text>
<polygon fill="none" stroke="black" points="792.19,-1039.52 792.19,-1064.52 878.19,-1064.52 878.19,-1039.52 792.19,-1039.52" />
<text text-anchor="start" x="814.69" y="-1048.32" font-family="Helvetica,sans-Serif" font-size="14.00">string</text>
<polygon fill="none" stroke="black" points="516.19,-1014.52 516.19,-1039.52 544.19,-1039.52 544.19,-1014.52 516.19,-1014.52" />
<polygon fill="none" stroke="black" points="544.19,-1014.52 544.19,-1039.52 792.19,-1039.52 792.19,-1014.52 544.19,-1014.52" />
<text text-anchor="start" x="549.19" y="-1023.32" font-family="Helvetica,sans-Serif" font-size="14.00">occupation_goal</text>
<polygon fill="none" stroke="black" points="792.19,-1014.52 792.19,-1039.52 878.19,-1039.52 878.19,-1014.52 792.19,-1014.52" />
<text text-anchor="start" x="814.69" y="-1023.32" font-family="Helvetica,sans-Serif" font-size="14.00">string</text>
<polygon fill="none" stroke="black" points="516.19,-989.52 516.19,-1014.52 544.19,-1014.52 544.19,-989.52 516.19,-989.52" />
<polygon fill="none" stroke="black" points="544.19,-989.52 544.19,-1014.52 792.19,-1014.52 792.19,-989.52 544.19,-989.52" />
<text text-anchor="start" x="549.19" y="-998.32" font-family="Helvetica,sans-Serif" font-size="14.00">prior_employment</text>
<polygon fill="none" stroke="black" points="792.19,-989.52 792.19,-1014.52 878.19,-1014.52 878.19,-989.52 792.19,-989.52" />
<text text-anchor="start" x="797.19" y="-998.32" font-family="Helvetica,sans-Serif" font-size="14.00">categorical</text>
<polygon fill="none" stroke="black" points="516.19,-964.52 516.19,-989.52 544.19,-989.52 544.19,-964.52 516.19,-964.52" />
<polygon fill="none" stroke="black" points="544.19,-964.52 544.19,-989.52 792.19,-989.52 792.19,-964.52 544.19,-964.52" />
<text text-anchor="start" x="549.19" y="-973.32" font-family="Helvetica,sans-Serif" font-size="14.00">employment_status</text>
<polygon fill="none" stroke="black" points="792.19,-964.52 792.19,-989.52 878.19,-989.52 878.19,-964.52 792.19,-964.52" />
<text text-anchor="start" x="797.19" y="-973.32" font-family="Helvetica,sans-Serif" font-size="14.00">categorical</text>
<polygon fill="none" stroke="black" points="516.19,-939.52 516.19,-964.52 544.19,-964.52 544.19,-939.52 516.19,-939.52" />
<polygon fill="none" stroke="black" points="544.19,-939.52 544.19,-964.52 792.19,-964.52 792.19,-939.52 544.19,-939.52" />
<text text-anchor="start" x="549.19" y="-948.32" font-family="Helvetica,sans-Serif" font-size="14.00">hours_of_employment</text>
<polygon fill="none" stroke="black" points="792.19,-939.52 792.19,-964.52 878.19,-964.52 878.19,-939.52 792.19,-939.52" />
<text text-anchor="start" x="797.19" y="-948.32" font-family="Helvetica,sans-Serif" font-size="14.00">categorical</text>
<polygon fill="none" stroke="black" points="516.19,-914.52 516.19,-939.52 544.19,-939.52 544.19,-914.52 516.19,-914.52" />
<polygon fill="none" stroke="black" points="544.19,-914.52 544.19,-939.52 792.19,-939.52 792.19,-914.52 544.19,-914.52" />
<text text-anchor="start" x="549.19" y="-923.32" font-family="Helvetica,sans-Serif" font-size="14.00">eduction_training_status</text>
<polygon fill="none" stroke="black" points="792.19,-914.52 792.19,-939.52 878.19,-939.52 878.19,-914.52 792.19,-914.52" />
<text text-anchor="start" x="797.19" y="-923.32" font-family="Helvetica,sans-Serif" font-size="14.00">categorical</text>
<polygon fill="none" stroke="black" points="516.19,-889.52 516.19,-914.52 544.19,-914.52 544.19,-889.52 516.19,-889.52" />
<polygon fill="none" stroke="black" points="544.19,-889.52 544.19,-914.52 792.19,-914.52 792.19,-889.52 544.19,-889.52" />
<text text-anchor="start" x="549.19" y="-898.32" font-family="Helvetica,sans-Serif" font-size="14.00">housing_baseline_accommodation</text>
<polygon fill="none" stroke="black" points="792.19,-889.52 792.19,-914.52 878.19,-914.52 878.19,-889.52 792.19,-889.52" />
<text text-anchor="start" x="797.19" y="-898.32" font-family="Helvetica,sans-Serif" font-size="14.00">categorical</text>
</g>

</a><a href="{{ '/records/baseline--person.html' | relative_url }}"><g id="baseline--person" class="edge">
<title>baseline--person</title>
<path fill="none" stroke="#7f7f7f" stroke-dasharray="5,2" d="M709.05,-885.87C711.97,-816.61 714.88,-747.83 717.02,-697.11" />
<text text-anchor="middle" x="712.02" y="-700.91" font-family="Times,serif" font-size="14.00">1</text>
<text text-anchor="middle" x="697.55" y="-874.67" font-family="Times,serif" font-size="14.00">0,1</text>
</g>

</a><a href="{{ '/records/integration_plan.html' | relative_url }}"><g id="integration_plan" class="node">
<title>integration_plan</title>
<polygon fill="#cbd5e8" stroke="transparent" points="441.57,-989.72 51.57,-989.72 51.57,-803.72 441.57,-803.72 441.57,-989.72" />
<polygon fill="none" stroke="black" points="59.57,-957.72 59.57,-985.72 433.57,-985.72 433.57,-957.72 59.57,-957.72" />
<text text-anchor="start" x="173.07" y="-968.92" font-family="Helvetica,sans-Serif" font-weight="bold" font-size="16.00">integration_plan</text>
<polygon fill="none" stroke="black" points="59.57,-932.72 59.57,-957.72 87.57,-957.72 87.57,-932.72 59.57,-932.72" />
<text text-anchor="start" x="64.57" y="-941.52" font-family="Helvetica,sans-Serif" font-size="14.00">PK</text>
<polygon fill="none" stroke="black" points="87.57,-932.72 87.57,-957.72 347.57,-957.72 347.57,-932.72 87.57,-932.72" />
<text text-anchor="start" x="92.57" y="-941.52" font-family="Helvetica,sans-Serif" font-size="14.00">unique_id</text>
<polygon fill="none" stroke="black" points="347.57,-932.72 347.57,-957.72 433.57,-957.72 433.57,-932.72 347.57,-932.72" />
<text text-anchor="start" x="370.07" y="-941.52" font-family="Helvetica,sans-Serif" font-size="14.00">string</text>
<polygon fill="none" stroke="black" points="59.57,-907.72 59.57,-932.72 87.57,-932.72 87.57,-907.72 59.57,-907.72" />
<text text-anchor="start" x="64.57" y="-916.52" font-family="Helvetica,sans-Serif" font-size="14.00">PK</text>
<polygon fill="none" stroke="black" points="87.57,-907.72 87.57,-932.72 347.57,-932.72 347.57,-907.72 87.57,-907.72" />
<text text-anchor="start" x="92.57" y="-916.52" font-family="Helvetica,sans-Serif" font-size="14.00">integration_outcome_type</text>
<polygon fill="none" stroke="black" points="347.57,-907.72 347.57,-932.72 433.57,-932.72 433.57,-907.72 347.57,-907.72" />
<text text-anchor="start" x="352.57" y="-916.52" font-family="Helvetica,sans-Serif" font-size="14.00">categorical</text>
<polygon fill="none" stroke="black" points="59.57,-882.72 59.57,-907.72 87.57,-907.72 87.57,-882.72 59.57,-882.72" />
<polygon fill="none" stroke="black" points="87.57,-882.72 87.57,-907.72 347.57,-907.72 347.57,-882.72 87.57,-882.72" />
<text text-anchor="start" x="92.57" y="-891.52" font-family="Helvetica,sans-Serif" font-size="14.00">integration_outcome_achieved_date</text>
<polygon fill="none" stroke="black" points="347.57,-882.72 347.57,-907.72 433.57,-907.72 433.57,-882.72 347.57,-882.72" />
<text text-anchor="start" x="375.07" y="-891.52" font-family="Helvetica,sans-Serif" font-size="14.00">date</text>
<polygon fill="none" stroke="black" points="59.57,-857.72 59.57,-882.72 87.57,-882.72 87.57,-857.72 59.57,-857.72" />
<polygon fill="none" stroke="black" points="87.57,-857.72 87.57,-882.72 347.57,-882.72 347.57,-857.72 87.57,-857.72" />
<text text-anchor="start" x="92.57" y="-866.52" font-family="Helvetica,sans-Serif" font-size="14.00">integration_social</text>
<polygon fill="none" stroke="black" points="347.57,-857.72 347.57,-882.72 433.57,-882.72 433.57,-857.72 347.57,-857.72" />
<text text-anchor="start" x="352.57" y="-866.52" font-family="Helvetica,sans-Serif" font-size="14.00">categorical</text>
<polygon fill="none" stroke="black" points="59.57,-832.72 59.57,-857.72 87.57,-857.72 87.57,-832.72 59.57,-832.72" />
<polygon fill="none" stroke="black" points="87.57,-832.72 87.57,-857.72 347.57,-857.72 347.57,-832.72 87.57,-832.72" />
<text text-anchor="start" x="92.57" y="-841.52" font-family="Helvetica,sans-Serif" font-size="14.00">integration_comms_language</text>
<polygon fill="none" stroke="black" points="347.57,-832.72 347.57,-857.72 433.57,-857.72 433.57,-832.72 347.57,-832.72" />
<text text-anchor="start" x="352.57" y="-841.52" font-family="Helvetica,sans-Serif" font-size="14.00">categorical</text>
<polygon fill="none" stroke="black" points="59.57,-807.72 59.57,-832.72 87.57,-832.72 87.57,-807.72 59.57,-807.72" />
<polygon fill="none" stroke="black" points="87.57,-807.72 87.57,-832.72 347.57,-832.72 347.57,-807.72 87.57,-807.72" />
<text text-anchor="start" x="92.57" y="-816.52" font-family="Helvetica,sans-Serif" font-size="14.00">integration_digital</text>
<polygon fill="none" stroke="black" points="347.57,-807.72 347.57,-832.72 433.57,-832.72 433.57,-807.72 347.57,-807.72" />
<text text-anchor="start" x="352.57" y="-816.52" font-family="Helvetica,sans-Serif" font-size="14.00">categorical</text>
</g>

</a><a href="{{ '/records/integration_plan--person.html' | relative_url }}"><g id="integration_plan--person" class="edge">
<title>integration_plan--person</title>
<path fill="none" stroke="#7f7f7f" stroke-dasharray="5,2" d="M404.03,-803.6C462.34,-769.12 527.91,-730.35 584.17,-697.07" />
<text text-anchor="middle" x="579.17" y="-700.87" font-family="Times,serif" font-size="14.00">1</text>
<text text-anchor="middle" x="388.53" y="-792.4" font-family="Times,serif" font-size="14.00">0..N</text>
</g>

</a><a href="{{ '/records/employment_intermediate.html' | relative_url }}"><g id="employment_intermediate" class="node">
<title>employment_intermediate</title>
<polygon fill="#f4cae4" stroke="transparent" points="391,-506.12 0,-506.12 0,-395.12 391,-395.12 391,-506.12" />
<polygon fill="none" stroke="black" points="8.5,-473.62 8.5,-501.62 383.5,-501.62 383.5,-473.62 8.5,-473.62" />
<text text-anchor="start" x="78.5" y="-484.82" font-family="Helvetica,sans-Serif" font-weight="bold" font-size="16.00">employment_intermediate</text>
<polygon fill="none" stroke="black" points="8.5,-448.62 8.5,-473.62 36.5,-473.62 36.5,-448.62 8.5,-448.62" />
<text text-anchor="start" x="13.5" y="-457.42" font-family="Helvetica,sans-Serif" font-size="14.00">PK</text>
<polygon fill="none" stroke="black" points="36.5,-448.62 36.5,-473.62 332.5,-473.62 332.5,-448.62 36.5,-448.62" />
<text text-anchor="start" x="41.5" y="-457.42" font-family="Helvetica,sans-Serif" font-size="14.00">unique_id</text>
<polygon fill="none" stroke="black" points="332.5,-448.62 332.5,-473.62 383.5,-473.62 383.5,-448.62 332.5,-448.62" />
<text text-anchor="start" x="337.5" y="-457.42" font-family="Helvetica,sans-Serif" font-size="14.00">string</text>
<polygon fill="none" stroke="black" points="8.5,-423.62 8.5,-448.62 36.5,-448.62 36.5,-423.62 8.5,-423.62" />
<polygon fill="none" stroke="black" points="36.5,-423.62 36.5,-448.62 332.5,-448.62 332.5,-423.62 36.5,-423.62" />
<text text-anchor="start" x="41.5" y="-432.42" font-family="Helvetica,sans-Serif" font-size="14.00">date_intermediate_employment_outcome</text>
<polygon fill="none" stroke="black" points="332.5,-423.62 332.5,-448.62 383.5,-448.62 383.5,-423.62 332.5,-423.62" />
<text text-anchor="start" x="342.5" y="-432.42" font-family="Helvetica,sans-Serif" font-size="14.00">date</text>
<polygon fill="none" stroke="black" points="8.5,-398.62 8.5,-423.62 36.5,-423.62 36.5,-398.62 8.5,-398.62" />
<polygon fill="none" stroke="black" points="36.5,-398.62 36.5,-423.62 332.5,-423.62 332.5,-398.62 36.5,-398.62" />
<text text-anchor="start" x="41.5" y="-407.42" font-family="Helvetica,sans-Serif" font-size="14.00">intermediate_employment_outcome_type</text>
<polygon fill="none" stroke="black" points="332.5,-398.62 332.5,-423.62 383.5,-423.62 383.5,-398.62 332.5,-398.62" />
<text text-anchor="start" x="347.5" y="-407.42" font-family="Helvetica,sans-Serif" font-size="14.00">list</text>
</g>

</a><a href="{{ '/records/employment_intermediate--person.html' | relative_url }}"><g id="employment_intermediate--person" class="edge">
<title>employment_intermediate--person</title>
<path fill="none" stroke="#7f7f7f" stroke-dasharray="5,2" d="M371.39,-506.2C438.73,-527.48 514.62,-551.46 578.41,-571.62" />
<text text-anchor="middle" x="573.41" y="-575.42" font-family="Times,serif" font-size="14.00">1</text>
<text text-anchor="middle" x="359.89" y="-510" font-family="Times,serif" font-size="14.00">0,1</text>
</g>

</a><a href="{{ '/records/employment_entry.html' | relative_url }}"><g id="employment_entry" class="node">
<title>employment_entry</title>
<polygon fill="#f4cae4" stroke="transparent" points="674.33,-236 299.33,-236 299.33,0 674.33,0 674.33,-236" />
<polygon fill="none" stroke="black" points="307.83,-204 307.83,-232 666.83,-232 666.83,-204 307.83,-204" />
<text text-anchor="start" x="403.33" y="-215.2" font-family="Helvetica,sans-Serif" font-weight="bold" font-size="16.00">employment_entry</text>
<polygon fill="none" stroke="black" points="307.83,-179 307.83,-204 335.83,-204 335.83,-179 307.83,-179" />
<text text-anchor="start" x="312.83" y="-187.8" font-family="Helvetica,sans-Serif" font-size="14.00">PK</text>
<polygon fill="none" stroke="black" points="335.83,-179 335.83,-204 580.83,-204 580.83,-179 335.83,-179" />
<text text-anchor="start" x="340.83" y="-187.8" font-family="Helvetica,sans-Serif" font-size="14.00">unique_id</text>
<polygon fill="none" stroke="black" points="580.83,-179 580.83,-204 666.83,-204 666.83,-179 580.83,-179" />
<text text-anchor="start" x="603.33" y="-187.8" font-family="Helvetica,sans-Serif" font-size="14.00">string</text>
<polygon fill="none" stroke="black" points="307.83,-154 307.83,-179 335.83,-179 335.83,-154 307.83,-154" />
<polygon fill="none" stroke="black" points="335.83,-154 335.83,-179 580.83,-179 580.83,-154 335.83,-154" />
<text text-anchor="start" x="340.83" y="-162.8" font-family="Helvetica,sans-Serif" font-size="14.00">employment_entry_outcome_type</text>
<polygon fill="none" stroke="black" points="580.83,-154 580.83,-179 666.83,-179 666.83,-154 580.83,-154" />
<text text-anchor="start" x="585.83" y="-162.8" font-family="Helvetica,sans-Serif" font-size="14.00">categorical</text>
<polygon fill="none" stroke="black" points="307.83,-129 307.83,-154 335.83,-154 335.83,-129 307.83,-129" />
<polygon fill="none" stroke="black" points="335.83,-129 335.83,-154 580.83,-154 580.83,-129 335.83,-129" />
<text text-anchor="start" x="340.83" y="-137.8" font-family="Helvetica,sans-Serif" font-size="14.00">date_employment_entry</text>
<polygon fill="none" stroke="black" points="580.83,-129 580.83,-154 666.83,-154 666.83,-129 580.83,-129" />
<text text-anchor="start" x="608.33" y="-137.8" font-family="Helvetica,sans-Serif" font-size="14.00">date</text>
<polygon fill="none" stroke="black" points="307.83,-104 307.83,-129 335.83,-129 335.83,-104 307.83,-104" />
<polygon fill="none" stroke="black" points="335.83,-104 335.83,-129 580.83,-129 580.83,-104 335.83,-104" />
<text text-anchor="start" x="340.83" y="-112.8" font-family="Helvetica,sans-Serif" font-size="14.00">employment_entry_status</text>
<polygon fill="none" stroke="black" points="580.83,-104 580.83,-129 666.83,-129 666.83,-104 580.83,-104" />
<text text-anchor="start" x="585.83" y="-112.8" font-family="Helvetica,sans-Serif" font-size="14.00">categorical</text>
<polygon fill="none" stroke="black" points="307.83,-79 307.83,-104 335.83,-104 335.83,-79 307.83,-79" />
<polygon fill="none" stroke="black" points="335.83,-79 335.83,-104 580.83,-104 580.83,-79 335.83,-79" />
<text text-anchor="start" x="340.83" y="-87.8" font-family="Helvetica,sans-Serif" font-size="14.00">hours_of_employment_entry</text>
<polygon fill="none" stroke="black" points="580.83,-79 580.83,-104 666.83,-104 666.83,-79 580.83,-79" />
<text text-anchor="start" x="585.83" y="-87.8" font-family="Helvetica,sans-Serif" font-size="14.00">categorical</text>
<polygon fill="none" stroke="black" points="307.83,-54 307.83,-79 335.83,-79 335.83,-54 307.83,-54" />
<polygon fill="none" stroke="black" points="335.83,-54 335.83,-79 580.83,-79 580.83,-54 335.83,-54" />
<text text-anchor="start" x="340.83" y="-62.8" font-family="Helvetica,sans-Serif" font-size="14.00">eduction_training_status_entry</text>
<polygon fill="none" stroke="black" points="580.83,-54 580.83,-79 666.83,-79 666.83,-54 580.83,-54" />
<text text-anchor="start" x="585.83" y="-62.8" font-family="Helvetica,sans-Serif" font-size="14.00">categorical</text>
<polygon fill="none" stroke="black" points="307.83,-29 307.83,-54 335.83,-54 335.83,-29 307.83,-29" />
<polygon fill="none" stroke="black" points="335.83,-29 335.83,-54 580.83,-54 580.83,-29 335.83,-29" />
<text text-anchor="start" x="340.83" y="-37.8" font-family="Helvetica,sans-Serif" font-size="14.00">employment_entry_occupation</text>
<polygon fill="none" stroke="black" points="580.83,-29 580.83,-54 666.83,-54 666.83,-29 580.83,-29" />
<text text-anchor="start" x="603.33" y="-37.8" font-family="Helvetica,sans-Serif" font-size="14.00">string</text>
<polygon fill="none" stroke="black" points="307.83,-4 307.83,-29 335.83,-29 335.83,-4 307.83,-4" />
<polygon fill="none" stroke="black" points="335.83,-4 335.83,-29 580.83,-29 580.83,-4 335.83,-4" />
<text text-anchor="start" x="340.83" y="-12.8" font-family="Helvetica,sans-Serif" font-size="14.00">employment_entry_sector</text>
<polygon fill="none" stroke="black" points="580.83,-4 580.83,-29 666.83,-29 666.83,-4 580.83,-4" />
<text text-anchor="start" x="603.33" y="-12.8" font-family="Helvetica,sans-Serif" font-size="14.00">string</text>
</g>

</a><a href="{{ '/records/employment_entry--person.html' | relative_url }}"><g id="employment_entry--person" class="edge">
<title>employment_entry--person</title>
<path fill="none" stroke="#7f7f7f" stroke-dasharray="5,2" d="M542.19,-236.14C585.5,-328.56 644.56,-454.6 682.6,-535.78" />
<text text-anchor="middle" x="677.6" y="-524.58" font-family="Times,serif" font-size="14.00">1</text>
<text text-anchor="middle" x="530.69" y="-239.94" font-family="Times,serif" font-size="14.00">0,1</text>
</g>

</a><a href="{{ '/records/employment_sustain.html' | relative_url }}"><g id="employment_sustain" class="node">
<title>employment_sustain</title>
<polygon fill="#f4cae4" stroke="transparent" points="1058.5,-138.07 735.5,-138.07 735.5,-52.07 1058.5,-52.07 1058.5,-138.07" />
<polygon fill="none" stroke="black" points="744,-106.07 744,-134.07 1051,-134.07 1051,-106.07 744,-106.07" />
<text text-anchor="start" x="805" y="-117.27" font-family="Helvetica,sans-Serif" font-weight="bold" font-size="16.00">employment_sustain</text>
<polygon fill="none" stroke="black" points="744,-81.07 744,-106.07 772,-106.07 772,-81.07 744,-81.07" />
<text text-anchor="start" x="749" y="-89.87" font-family="Helvetica,sans-Serif" font-size="14.00">PK</text>
<polygon fill="none" stroke="black" points="772,-81.07 772,-106.07 1000,-106.07 1000,-81.07 772,-81.07" />
<text text-anchor="start" x="777" y="-89.87" font-family="Helvetica,sans-Serif" font-size="14.00">unique_id</text>
<polygon fill="none" stroke="black" points="1000,-81.07 1000,-106.07 1051,-106.07 1051,-81.07 1000,-81.07" />
<text text-anchor="start" x="1005" y="-89.87" font-family="Helvetica,sans-Serif" font-size="14.00">string</text>
<polygon fill="none" stroke="black" points="744,-56.07 744,-81.07 772,-81.07 772,-56.07 744,-56.07" />
<polygon fill="none" stroke="black" points="772,-56.07 772,-81.07 1000,-81.07 1000,-56.07 772,-56.07" />
<text text-anchor="start" x="777" y="-64.87" font-family="Helvetica,sans-Serif" font-size="14.00">employment_sustainment_date</text>
<polygon fill="none" stroke="black" points="1000,-56.07 1000,-81.07 1051,-81.07 1051,-56.07 1000,-56.07" />
<text text-anchor="start" x="1010" y="-64.87" font-family="Helvetica,sans-Serif" font-size="14.00">date</text>
</g>

</a><a href="{{ '/records/employment_sustain--person.html' | relative_url }}"><g id="employment_sustain--person" class="edge">
<title>employment_sustain--person</title>
<path fill="none" stroke="#7f7f7f" stroke-dasharray="5,2" d="M882.4,-138.18C852.87,-225.41 785.61,-424.02 747.71,-535.95" />
<text text-anchor="middle" x="742.71" y="-524.75" font-family="Times,serif" font-size="14.00">1</text>
<text text-anchor="middle" x="870.9" y="-141.98" font-family="Times,serif" font-size="14.00">0,1</text>
</g>

</a><a href="{{ '/records/date_last_seen.html' | relative_url }}"><g id="date_last_seen" class="node">
<title>date_last_seen</title>
<polygon fill="#e6f5c9" stroke="transparent" points="1268.87,-334.62 1060.87,-334.62 1060.87,-248.62 1268.87,-248.62 1268.87,-334.62" />
<polygon fill="none" stroke="black" points="1068.87,-302.62 1068.87,-330.62 1260.87,-330.62 1260.87,-302.62 1068.87,-302.62" />
<text text-anchor="start" x="1098.87" y="-313.82" font-family="Helvetica,sans-Serif" font-weight="bold" font-size="16.00">date_last_seen</text>
<polygon fill="none" stroke="black" points="1068.87,-277.62 1068.87,-302.62 1096.87,-302.62 1096.87,-277.62 1068.87,-277.62" />
<text text-anchor="start" x="1073.87" y="-286.42" font-family="Helvetica,sans-Serif" font-size="14.00">PK</text>
<polygon fill="none" stroke="black" points="1096.87,-277.62 1096.87,-302.62 1209.87,-302.62 1209.87,-277.62 1096.87,-277.62" />
<text text-anchor="start" x="1101.87" y="-286.42" font-family="Helvetica,sans-Serif" font-size="14.00">unique_id</text>
<polygon fill="none" stroke="black" points="1209.87,-277.62 1209.87,-302.62 1260.87,-302.62 1260.87,-277.62 1209.87,-277.62" />
<text text-anchor="start" x="1214.87" y="-286.42" font-family="Helvetica,sans-Serif" font-size="14.00">string</text>
<polygon fill="none" stroke="black" points="1068.87,-252.62 1068.87,-277.62 1096.87,-277.62 1096.87,-252.62 1068.87,-252.62" />
<polygon fill="none" stroke="black" points="1096.87,-252.62 1096.87,-277.62 1209.87,-277.62 1209.87,-252.62 1096.87,-252.62" />
<text text-anchor="start" x="1101.87" y="-261.42" font-family="Helvetica,sans-Serif" font-size="14.00">date_last_seen</text>
<polygon fill="none" stroke="black" points="1209.87,-252.62 1209.87,-277.62 1260.87,-277.62 1260.87,-252.62 1209.87,-252.62" />
<text text-anchor="start" x="1219.87" y="-261.42" font-family="Helvetica,sans-Serif" font-size="14.00">date</text>
</g>

</a><a href="{{ '/records/date_last_seen--person.html' | relative_url }}"><g id="date_last_seen--person" class="edge">
<title>date_last_seen--person</title>
<path fill="none" stroke="#7f7f7f" stroke-dasharray="5,2" d="M1105.85,-334.76C1035.84,-385.94 917.66,-472.32 830.58,-535.98" />
<text text-anchor="middle" x="825.58" y="-524.78" font-family="Times,serif" font-size="14.00">1</text>
<text text-anchor="middle" x="1094.35" y="-338.56" font-family="Times,serif" font-size="14.00">0,1</text>
</g>
</a></g>
</svg>