<svg xmlns="http://www.w3.org/2000/svg" width="auto" height="auto" viewBox="0.00 0.00 1436.31 1359.59">
<g id="graph0" class="graph" transform="scale(1 1) rotate(0) translate(4 1355.59)">
<title>%3</title>
<a href="{{ '/records/person.html' | relative_url }}"><g id="person" class="node">
<title>person</title>
<polygon fill="#b3e2cd" stroke="transparent" points="860.23,-675.53 576.23,-675.53 576.23,-464.53 860.23,-464.53 860.23,-675.53" />
<polygon fill="none" stroke="black" points="584.23,-643.03 584.23,-671.03 852.23,-671.03 852.23,-643.03 584.23,-643.03" />
<text text-anchor="start" x="686.73" y="-654.23" font-family="Helvetica,sans-Serif" font-weight="bold" font-size="16.00">person</text>
<polygon fill="none" stroke="black" points="584.23,-618.03 584.23,-643.03 612.23,-643.03 612.23,-618.03 584.23,-618.03" />
<text text-anchor="start" x="589.23" y="-626.83" font-family="Helvetica,sans-Serif" font-size="14.00">PK</text>
<polygon fill="none" stroke="black" points="612.23,-618.03 612.23,-643.03 766.23,-643.03 766.23,-618.03 612.23,-618.03" />
<text text-anchor="start" x="617.23" y="-626.83" font-family="Helvetica,sans-Serif" font-size="14.00">unique_id</text>
<polygon fill="none" stroke="black" points="766.23,-618.03 766.23,-643.03 852.23,-643.03 852.23,-618.03 766.23,-618.03" />
<text text-anchor="start" x="788.73" y="-626.83" font-family="Helvetica,sans-Serif" font-size="14.00">string</text>
<polygon fill="none" stroke="black" points="584.23,-593.03 584.23,-618.03 612.23,-618.03 612.23,-593.03 584.23,-593.03" />
<polygon fill="none" stroke="black" points="612.23,-593.03 612.23,-618.03 766.23,-618.03 766.23,-593.03 612.23,-593.03" />
<text text-anchor="start" x="617.23" y="-601.83" font-family="Helvetica,sans-Serif" font-size="14.00">ni_number</text>
<polygon fill="none" stroke="black" points="766.23,-593.03 766.23,-618.03 852.23,-618.03 852.23,-593.03 766.23,-593.03" />
<text text-anchor="start" x="788.73" y="-601.83" font-family="Helvetica,sans-Serif" font-size="14.00">string</text>
<polygon fill="none" stroke="black" points="584.23,-568.03 584.23,-593.03 612.23,-593.03 612.23,-568.03 584.23,-568.03" />
<polygon fill="none" stroke="black" points="612.23,-568.03 612.23,-593.03 766.23,-593.03 766.23,-568.03 612.23,-568.03" />
<text text-anchor="start" x="617.23" y="-576.83" font-family="Helvetica,sans-Serif" font-size="14.00">temp_ni_number</text>
<polygon fill="none" stroke="black" points="766.23,-568.03 766.23,-593.03 852.23,-593.03 852.23,-568.03 766.23,-568.03" />
<text text-anchor="start" x="788.73" y="-576.83" font-family="Helvetica,sans-Serif" font-size="14.00">string</text>
<polygon fill="none" stroke="black" points="584.23,-543.03 584.23,-568.03 612.23,-568.03 612.23,-543.03 584.23,-543.03" />
<polygon fill="none" stroke="black" points="612.23,-543.03 612.23,-568.03 766.23,-568.03 766.23,-543.03 612.23,-543.03" />
<text text-anchor="start" x="617.23" y="-551.83" font-family="Helvetica,sans-Serif" font-size="14.00">year_of_birth</text>
<polygon fill="none" stroke="black" points="766.23,-543.03 766.23,-568.03 852.23,-568.03 852.23,-543.03 766.23,-543.03" />
<text text-anchor="start" x="793.73" y="-551.83" font-family="Helvetica,sans-Serif" font-size="14.00">year</text>
<polygon fill="none" stroke="black" points="584.23,-518.03 584.23,-543.03 612.23,-543.03 612.23,-518.03 584.23,-518.03" />
<polygon fill="none" stroke="black" points="612.23,-518.03 612.23,-543.03 766.23,-543.03 766.23,-518.03 612.23,-518.03" />
<text text-anchor="start" x="617.23" y="-526.83" font-family="Helvetica,sans-Serif" font-size="14.00">gender</text>
<polygon fill="none" stroke="black" points="766.23,-518.03 766.23,-543.03 852.23,-543.03 852.23,-518.03 766.23,-518.03" />
<text text-anchor="start" x="771.23" y="-526.83" font-family="Helvetica,sans-Serif" font-size="14.00">categorical</text>
<polygon fill="none" stroke="black" points="584.23,-493.03 584.23,-518.03 612.23,-518.03 612.23,-493.03 584.23,-493.03" />
<polygon fill="none" stroke="black" points="612.23,-493.03 612.23,-518.03 766.23,-518.03 766.23,-493.03 612.23,-493.03" />
<text text-anchor="start" x="617.23" y="-501.83" font-family="Helvetica,sans-Serif" font-size="14.00">dispersal_area</text>
<polygon fill="none" stroke="black" points="766.23,-493.03 766.23,-518.03 852.23,-518.03 852.23,-493.03 766.23,-493.03" />
<text text-anchor="start" x="788.73" y="-501.83" font-family="Helvetica,sans-Serif" font-size="14.00">string</text>
<polygon fill="none" stroke="black" points="584.23,-468.03 584.23,-493.03 612.23,-493.03 612.23,-468.03 584.23,-468.03" />
<polygon fill="none" stroke="black" points="612.23,-468.03 612.23,-493.03 766.23,-493.03 766.23,-468.03 612.23,-468.03" />
<text text-anchor="start" x="617.23" y="-476.83" font-family="Helvetica,sans-Serif" font-size="14.00">date_started_service</text>
<polygon fill="none" stroke="black" points="766.23,-468.03 766.23,-493.03 852.23,-493.03 852.23,-468.03 766.23,-468.03" />
<text text-anchor="start" x="793.73" y="-476.83" font-family="Helvetica,sans-Serif" font-size="14.00">date</text>
</g>

</a><a href="{{ '/records/housing_entry.html' | relative_url }}"><g id="housing_entry" class="node">
<title>housing_entry</title>
<polygon fill="#fdcdac" stroke="transparent" points="1428.31,-625.53 1085.31,-625.53 1085.31,-514.53 1428.31,-514.53 1428.31,-625.53" />
<polygon fill="none" stroke="black" points="1093.81,-593.03 1093.81,-621.03 1420.81,-621.03 1420.81,-593.03 1093.81,-593.03" />
<text text-anchor="start" x="1193.31" y="-604.23" font-family="Helvetica,sans-Serif" font-weight="bold" font-size="16.00">housing_entry</text>
<polygon fill="none" stroke="black" points="1093.81,-568.03 1093.81,-593.03 1121.81,-593.03 1121.81,-568.03 1093.81,-568.03" />
<text text-anchor="start" x="1098.81" y="-576.83" font-family="Helvetica,sans-Serif" font-size="14.00">PK</text>
<polygon fill="none" stroke="black" points="1121.81,-568.03 1121.81,-593.03 1334.81,-593.03 1334.81,-568.03 1121.81,-568.03" />
<text text-anchor="start" x="1126.81" y="-576.83" font-family="Helvetica,sans-Serif" font-size="14.00">unique_id</text>
<polygon fill="none" stroke="black" points="1334.81,-568.03 1334.81,-593.03 1420.81,-593.03 1420.81,-568.03 1334.81,-568.03" />
<text text-anchor="start" x="1357.31" y="-576.83" font-family="Helvetica,sans-Serif" font-size="14.00">string</text>
<polygon fill="none" stroke="black" points="1093.81,-543.03 1093.81,-568.03 1121.81,-568.03 1121.81,-543.03 1093.81,-543.03" />
<polygon fill="none" stroke="black" points="1121.81,-543.03 1121.81,-568.03 1334.81,-568.03 1334.81,-543.03 1121.81,-543.03" />
<text text-anchor="start" x="1126.81" y="-551.83" font-family="Helvetica,sans-Serif" font-size="14.00">housing_entry_date</text>
<polygon fill="none" stroke="black" points="1334.81,-543.03 1334.81,-568.03 1420.81,-568.03 1420.81,-543.03 1334.81,-543.03" />
<text text-anchor="start" x="1362.31" y="-551.83" font-family="Helvetica,sans-Serif" font-size="14.00">date</text>
<polygon fill="none" stroke="black" points="1093.81,-518.03 1093.81,-543.03 1121.81,-543.03 1121.81,-518.03 1093.81,-518.03" />
<polygon fill="none" stroke="black" points="1121.81,-518.03 1121.81,-543.03 1334.81,-543.03 1334.81,-518.03 1121.81,-518.03" />
<text text-anchor="start" x="1126.81" y="-526.83" font-family="Helvetica,sans-Serif" font-size="14.00">housing_entry_accomodation</text>
<polygon fill="none" stroke="black" points="1334.81,-518.03 1334.81,-543.03 1420.81,-543.03 1420.81,-518.03 1334.81,-518.03" />
<text text-anchor="start" x="1339.81" y="-526.83" font-family="Helvetica,sans-Serif" font-size="14.00">categorical</text>
</g>

</a><a href="{{ '/records/housing_entry--person.html' | relative_url }}"><g id="housing_entry--person" class="edge">
<title>housing_entry--person</title>
<path fill="none" stroke="#7f7f7f" stroke-dasharray="5,2" d="M1085.29,-570.03C1012.77,-570.03 929.3,-570.03 860.31,-570.03" />
<text text-anchor="middle" x="865.31" y="-573.83" font-family="Times,serif" font-size="14.00">1</text>
<text text-anchor="middle" x="1073.79" y="-573.83" font-family="Times,serif" font-size="14.00">0,1</text>
</g>

</a><a href="{{ '/records/housing_sustain.html' | relative_url }}"><g id="housing_sustain" class="node">
<title>housing_sustain</title>
<polygon fill="#fdcdac" stroke="transparent" points="1268,-969.46 976,-969.46 976,-883.46 1268,-883.46 1268,-969.46" />
<polygon fill="none" stroke="black" points="984,-937.46 984,-965.46 1260,-965.46 1260,-937.46 984,-937.46" />
<text text-anchor="start" x="1049.5" y="-948.66" font-family="Helvetica,sans-Serif" font-weight="bold" font-size="16.00">housing_sustain</text>
<polygon fill="none" stroke="black" points="984,-912.46 984,-937.46 1012,-937.46 1012,-912.46 984,-912.46" />
<text text-anchor="start" x="989" y="-921.26" font-family="Helvetica,sans-Serif" font-size="14.00">PK</text>
<polygon fill="none" stroke="black" points="1012,-912.46 1012,-937.46 1209,-937.46 1209,-912.46 1012,-912.46" />
<text text-anchor="start" x="1017" y="-921.26" font-family="Helvetica,sans-Serif" font-size="14.00">unique_id</text>
<polygon fill="none" stroke="black" points="1209,-912.46 1209,-937.46 1260,-937.46 1260,-912.46 1209,-912.46" />
<text text-anchor="start" x="1214" y="-921.26" font-family="Helvetica,sans-Serif" font-size="14.00">string</text>
<polygon fill="none" stroke="black" points="984,-887.46 984,-912.46 1012,-912.46 1012,-887.46 984,-887.46" />
<polygon fill="none" stroke="black" points="1012,-887.46 1012,-912.46 1209,-912.46 1209,-887.46 1012,-887.46" />
<text text-anchor="start" x="1017" y="-896.26" font-family="Helvetica,sans-Serif" font-size="14.00">housing_sustainment_date</text>
<polygon fill="none" stroke="black" points="1209,-887.46 1209,-912.46 1260,-912.46 1260,-887.46 1209,-887.46" />
<text text-anchor="start" x="1219" y="-896.26" font-family="Helvetica,sans-Serif" font-size="14.00">date</text>
</g>

</a><a href="{{ '/records/housing_sustain--person.html' | relative_url }}"><g id="housing_sustain--person" class="edge">
<title>housing_sustain--person</title>
<path fill="none" stroke="#7f7f7f" stroke-dasharray="5,2" d="M1072.89,-883.11C1014.88,-831.9 916.36,-744.93 837.85,-675.63" />
<text text-anchor="middle" x="832.85" y="-679.43" font-family="Times,serif" font-size="14.00">1</text>
<text text-anchor="middle" x="1061.39" y="-871.91" font-family="Times,serif" font-size="14.00">0,1</text>
</g>

</a><a href="{{ '/records/baseline.html' | relative_url }}"><g id="baseline" class="node">
<title>baseline</title>
<polygon fill="#cbd5e8" stroke="transparent" points="906.23,-1351.59 521.23,-1351.59 521.23,-865.59 906.23,-865.59 906.23,-1351.59" />
<polygon fill="none" stroke="black" points="529.73,-1319.59 529.73,-1347.59 898.73,-1347.59 898.73,-1319.59 529.73,-1319.59" />
<text text-anchor="start" x="676.73" y="-1330.79" font-family="Helvetica,sans-Serif" font-weight="bold" font-size="16.00">baseline</text>
<polygon fill="none" stroke="black" points="529.73,-1294.59 529.73,-1319.59 557.73,-1319.59 557.73,-1294.59 529.73,-1294.59" />
<text text-anchor="start" x="534.73" y="-1303.39" font-family="Helvetica,sans-Serif" font-size="14.00">PK</text>
<polygon fill="none" stroke="black" points="557.73,-1294.59 557.73,-1319.59 812.73,-1319.59 812.73,-1294.59 557.73,-1294.59" />
<text text-anchor="start" x="562.73" y="-1303.39" font-family="Helvetica,sans-Serif" font-size="14.00">unique_id</text>
<polygon fill="none" stroke="black" points="812.73,-1294.59 812.73,-1319.59 898.73,-1319.59 898.73,-1294.59 812.73,-1294.59" />
<text text-anchor="start" x="835.23" y="-1303.39" font-family="Helvetica,sans-Serif" font-size="14.00">string</text>
<polygon fill="none" stroke="black" points="529.73,-1269.59 529.73,-1294.59 557.73,-1294.59 557.73,-1269.59 529.73,-1269.59" />
<polygon fill="none" stroke="black" points="557.73,-1269.59 557.73,-1294.59 812.73,-1294.59 812.73,-1269.59 557.73,-1269.59" />
<text text-anchor="start" x="562.73" y="-1278.39" font-family="Helvetica,sans-Serif" font-size="14.00">nationality</text>
<polygon fill="none" stroke="black" points="812.73,-1269.59 812.73,-1294.59 898.73,-1294.59 898.73,-1269.59 812.73,-1269.59" />
<text text-anchor="start" x="817.73" y="-1278.39" font-family="Helvetica,sans-Serif" font-size="14.00">categorical</text>
<polygon fill="none" stroke="black" points="529.73,-1244.59 529.73,-1269.59 557.73,-1269.59 557.73,-1244.59 529.73,-1244.59" />
<polygon fill="none" stroke="black" points="557.73,-1244.59 557.73,-1269.59 812.73,-1269.59 812.73,-1244.59 557.73,-1244.59" />
<text text-anchor="start" x="562.73" y="-1253.39" font-family="Helvetica,sans-Serif" font-size="14.00">referral_source</text>
<polygon fill="none" stroke="black" points="812.73,-1244.59 812.73,-1269.59 898.73,-1269.59 898.73,-1244.59 812.73,-1244.59" />
<text text-anchor="start" x="817.73" y="-1253.39" font-family="Helvetica,sans-Serif" font-size="14.00">categorical</text>
<polygon fill="none" stroke="black" points="529.73,-1219.59 529.73,-1244.59 557.73,-1244.59 557.73,-1219.59 529.73,-1219.59" />
<polygon fill="none" stroke="black" points="557.73,-1219.59 557.73,-1244.59 812.73,-1244.59 812.73,-1219.59 557.73,-1219.59" />
<text text-anchor="start" x="562.73" y="-1228.39" font-family="Helvetica,sans-Serif" font-size="14.00">transgender</text>
<polygon fill="none" stroke="black" points="812.73,-1219.59 812.73,-1244.59 898.73,-1244.59 898.73,-1219.59 812.73,-1219.59" />
<text text-anchor="start" x="817.73" y="-1228.39" font-family="Helvetica,sans-Serif" font-size="14.00">categorical</text>
<polygon fill="none" stroke="black" points="529.73,-1194.59 529.73,-1219.59 557.73,-1219.59 557.73,-1194.59 529.73,-1194.59" />
<polygon fill="none" stroke="black" points="557.73,-1194.59 557.73,-1219.59 812.73,-1219.59 812.73,-1194.59 557.73,-1194.59" />
<text text-anchor="start" x="562.73" y="-1203.39" font-family="Helvetica,sans-Serif" font-size="14.00">living_status</text>
<polygon fill="none" stroke="black" points="812.73,-1194.59 812.73,-1219.59 898.73,-1219.59 898.73,-1194.59 812.73,-1194.59" />
<text text-anchor="start" x="817.73" y="-1203.39" font-family="Helvetica,sans-Serif" font-size="14.00">categorical</text>
<polygon fill="none" stroke="black" points="529.73,-1169.59 529.73,-1194.59 557.73,-1194.59 557.73,-1169.59 529.73,-1169.59" />
<polygon fill="none" stroke="black" points="557.73,-1169.59 557.73,-1194.59 812.73,-1194.59 812.73,-1169.59 557.73,-1169.59" />
<text text-anchor="start" x="562.73" y="-1178.39" font-family="Helvetica,sans-Serif" font-size="14.00">current_dependents_uk</text>
<polygon fill="none" stroke="black" points="812.73,-1169.59 812.73,-1194.59 898.73,-1194.59 898.73,-1169.59 812.73,-1169.59" />
<text text-anchor="start" x="817.73" y="-1178.39" font-family="Helvetica,sans-Serif" font-size="14.00">categorical</text>
<polygon fill="none" stroke="black" points="529.73,-1144.59 529.73,-1169.59 557.73,-1169.59 557.73,-1144.59 529.73,-1144.59" />
<polygon fill="none" stroke="black" points="557.73,-1144.59 557.73,-1169.59 812.73,-1169.59 812.73,-1144.59 557.73,-1144.59" />
<text text-anchor="start" x="562.73" y="-1153.39" font-family="Helvetica,sans-Serif" font-size="14.00">current_number_of_dependents_uk</text>
<polygon fill="none" stroke="black" points="812.73,-1144.59 812.73,-1169.59 898.73,-1169.59 898.73,-1144.59 812.73,-1144.59" />
<text text-anchor="start" x="845.23" y="-1153.39" font-family="Helvetica,sans-Serif" font-size="14.00">list</text>
<polygon fill="none" stroke="black" points="529.73,-1119.59 529.73,-1144.59 557.73,-1144.59 557.73,-1119.59 529.73,-1119.59" />
<polygon fill="none" stroke="black" points="557.73,-1119.59 557.73,-1144.59 812.73,-1144.59 812.73,-1119.59 557.73,-1119.59" />
<text text-anchor="start" x="562.73" y="-1128.39" font-family="Helvetica,sans-Serif" font-size="14.00">date_arrived_in_uk</text>
<polygon fill="none" stroke="black" points="812.73,-1119.59 812.73,-1144.59 898.73,-1144.59 898.73,-1119.59 812.73,-1119.59" />
<text text-anchor="start" x="840.23" y="-1128.39" font-family="Helvetica,sans-Serif" font-size="14.00">date</text>
<polygon fill="none" stroke="black" points="529.73,-1094.59 529.73,-1119.59 557.73,-1119.59 557.73,-1094.59 529.73,-1094.59" />
<polygon fill="none" stroke="black" points="557.73,-1094.59 557.73,-1119.59 812.73,-1119.59 812.73,-1094.59 557.73,-1094.59" />
<text text-anchor="start" x="562.73" y="-1103.39" font-family="Helvetica,sans-Serif" font-size="14.00">date_asylum_status_granted</text>
<polygon fill="none" stroke="black" points="812.73,-1094.59 812.73,-1119.59 898.73,-1119.59 898.73,-1094.59 812.73,-1094.59" />
<text text-anchor="start" x="840.23" y="-1103.39" font-family="Helvetica,sans-Serif" font-size="14.00">date</text>
<polygon fill="none" stroke="black" points="529.73,-1069.59 529.73,-1094.59 557.73,-1094.59 557.73,-1069.59 529.73,-1069.59" />
<polygon fill="none" stroke="black" points="557.73,-1069.59 557.73,-1094.59 812.73,-1094.59 812.73,-1069.59 557.73,-1069.59" />
<text text-anchor="start" x="562.73" y="-1078.39" font-family="Helvetica,sans-Serif" font-size="14.00">language_level_on_entry</text>
<polygon fill="none" stroke="black" points="812.73,-1069.59 812.73,-1094.59 898.73,-1094.59 898.73,-1069.59 812.73,-1069.59" />
<text text-anchor="start" x="817.73" y="-1078.39" font-family="Helvetica,sans-Serif" font-size="14.00">categorical</text>
<polygon fill="none" stroke="black" points="529.73,-1044.59 529.73,-1069.59 557.73,-1069.59 557.73,-1044.59 529.73,-1044.59" />
<polygon fill="none" stroke="black" points="557.73,-1044.59 557.73,-1069.59 812.73,-1069.59 812.73,-1044.59 557.73,-1044.59" />
<text text-anchor="start" x="562.73" y="-1053.39" font-family="Helvetica,sans-Serif" font-size="14.00">highest_qualification_achieved</text>
<polygon fill="none" stroke="black" points="812.73,-1044.59 812.73,-1069.59 898.73,-1069.59 898.73,-1044.59 812.73,-1044.59" />
<text text-anchor="start" x="817.73" y="-1053.39" font-family="Helvetica,sans-Serif" font-size="14.00">categorical</text>
<polygon fill="none" stroke="black" points="529.73,-1019.59 529.73,-1044.59 557.73,-1044.59 557.73,-1019.59 529.73,-1019.59" />
<polygon fill="none" stroke="black" points="557.73,-1019.59 557.73,-1044.59 812.73,-1044.59 812.73,-1019.59 557.73,-1019.59" />
<text text-anchor="start" x="562.73" y="-1028.39" font-family="Helvetica,sans-Serif" font-size="14.00">age_finished_study</text>
<polygon fill="none" stroke="black" points="812.73,-1019.59 812.73,-1044.59 898.73,-1044.59 898.73,-1019.59 812.73,-1019.59" />
<text text-anchor="start" x="830.73" y="-1028.39" font-family="Helvetica,sans-Serif" font-size="14.00">integer</text>
<polygon fill="none" stroke="black" points="529.73,-994.59 529.73,-1019.59 557.73,-1019.59 557.73,-994.59 529.73,-994.59" />
<polygon fill="none" stroke="black" points="557.73,-994.59 557.73,-1019.59 812.73,-1019.59 812.73,-994.59 557.73,-994.59" />
<text text-anchor="start" x="562.73" y="-1003.39" font-family="Helvetica,sans-Serif" font-size="14.00">employed_in_home_country</text>
<polygon fill="none" stroke="black" points="812.73,-994.59 812.73,-1019.59 898.73,-1019.59 898.73,-994.59 812.73,-994.59" />
<text text-anchor="start" x="817.73" y="-1003.39" font-family="Helvetica,sans-Serif" font-size="14.00">categorical</text>
<polygon fill="none" stroke="black" points="529.73,-969.59 529.73,-994.59 557.73,-994.59 557.73,-969.59 529.73,-969.59" />
<polygon fill="none" stroke="black" points="557.73,-969.59 557.73,-994.59 812.73,-994.59 812.73,-969.59 557.73,-969.59" />
<text text-anchor="start" x="562.73" y="-978.39" font-family="Helvetica,sans-Serif" font-size="14.00">occupation_type</text>
<polygon fill="none" stroke="black" points="812.73,-969.59 812.73,-994.59 898.73,-994.59 898.73,-969.59 812.73,-969.59" />
<text text-anchor="start" x="835.23" y="-978.39" font-family="Helvetica,sans-Serif" font-size="14.00">string</text>
<polygon fill="none" stroke="black" points="529.73,-944.59 529.73,-969.59 557.73,-969.59 557.73,-944.59 529.73,-944.59" />
<polygon fill="none" stroke="black" points="557.73,-944.59 557.73,-969.59 812.73,-969.59 812.73,-944.59 557.73,-944.59" />
<text text-anchor="start" x="562.73" y="-953.39" font-family="Helvetica,sans-Serif" font-size="14.00">occupation_sector</text>
<polygon fill="none" stroke="black" points="812.73,-944.59 812.73,-969.59 898.73,-969.59 898.73,-944.59 812.73,-944.59" />
<text text-anchor="start" x="835.23" y="-953.39" font-family="Helvetica,sans-Serif" font-size="14.00">string</text>
<polygon fill="none" stroke="black" points="529.73,-919.59 529.73,-944.59 557.73,-944.59 557.73,-919.59 529.73,-919.59" />
<polygon fill="none" stroke="black" points="557.73,-919.59 557.73,-944.59 812.73,-944.59 812.73,-919.59 557.73,-919.59" />
<text text-anchor="start" x="562.73" y="-928.39" font-family="Helvetica,sans-Serif" font-size="14.00">occupation_goal</text>
<polygon fill="none" stroke="black" points="812.73,-919.59 812.73,-944.59 898.73,-944.59 898.73,-919.59 812.73,-919.59" />
<text text-anchor="start" x="835.23" y="-928.39" font-family="Helvetica,sans-Serif" font-size="14.00">string</text>
<polygon fill="none" stroke="black" points="529.73,-894.59 529.73,-919.59 557.73,-919.59 557.73,-894.59 529.73,-894.59" />
<polygon fill="none" stroke="black" points="557.73,-894.59 557.73,-919.59 812.73,-919.59 812.73,-894.59 557.73,-894.59" />
<text text-anchor="start" x="562.73" y="-903.39" font-family="Helvetica,sans-Serif" font-size="14.00">economic_status</text>
<polygon fill="none" stroke="black" points="812.73,-894.59 812.73,-919.59 898.73,-919.59 898.73,-894.59 812.73,-894.59" />
<text text-anchor="start" x="817.73" y="-903.39" font-family="Helvetica,sans-Serif" font-size="14.00">categorical</text>
<polygon fill="none" stroke="black" points="529.73,-869.59 529.73,-894.59 557.73,-894.59 557.73,-869.59 529.73,-869.59" />
<polygon fill="none" stroke="black" points="557.73,-869.59 557.73,-894.59 812.73,-894.59 812.73,-869.59 557.73,-869.59" />
<text text-anchor="start" x="562.73" y="-878.39" font-family="Helvetica,sans-Serif" font-size="14.00">housing_baseline_accommodation</text>
<polygon fill="none" stroke="black" points="812.73,-869.59 812.73,-894.59 898.73,-894.59 898.73,-869.59 812.73,-869.59" />
<text text-anchor="start" x="817.73" y="-878.39" font-family="Helvetica,sans-Serif" font-size="14.00">categorical</text>
</g>

</a><a href="{{ '/records/baseline--person.html' | relative_url }}"><g id="baseline--person" class="edge">
<title>baseline--person</title>
<path fill="none" stroke="#7f7f7f" stroke-dasharray="5,2" d="M715.76,-865.31C716.32,-798.69 716.89,-729.92 717.35,-675.53" />
<text text-anchor="middle" x="712.35" y="-679.33" font-family="Times,serif" font-size="14.00">1</text>
<text text-anchor="middle" x="704.26" y="-854.11" font-family="Times,serif" font-size="14.00">0,1</text>
</g>

</a><a href="{{ '/records/integration_plan.html' | relative_url }}"><g id="integration_plan" class="node">
<title>integration_plan</title>
<polygon fill="#cbd5e8" stroke="transparent" points="473.49,-973.99 83.49,-973.99 83.49,-787.99 473.49,-787.99 473.49,-973.99" />
<polygon fill="none" stroke="black" points="91.49,-941.99 91.49,-969.99 465.49,-969.99 465.49,-941.99 91.49,-941.99" />
<text text-anchor="start" x="204.99" y="-953.19" font-family="Helvetica,sans-Serif" font-weight="bold" font-size="16.00">integration_plan</text>
<polygon fill="none" stroke="black" points="91.49,-916.99 91.49,-941.99 119.49,-941.99 119.49,-916.99 91.49,-916.99" />
<text text-anchor="start" x="96.49" y="-925.79" font-family="Helvetica,sans-Serif" font-size="14.00">PK</text>
<polygon fill="none" stroke="black" points="119.49,-916.99 119.49,-941.99 379.49,-941.99 379.49,-916.99 119.49,-916.99" />
<text text-anchor="start" x="124.49" y="-925.79" font-family="Helvetica,sans-Serif" font-size="14.00">unique_id</text>
<polygon fill="none" stroke="black" points="379.49,-916.99 379.49,-941.99 465.49,-941.99 465.49,-916.99 379.49,-916.99" />
<text text-anchor="start" x="401.99" y="-925.79" font-family="Helvetica,sans-Serif" font-size="14.00">string</text>
<polygon fill="none" stroke="black" points="91.49,-891.99 91.49,-916.99 119.49,-916.99 119.49,-891.99 91.49,-891.99" />
<text text-anchor="start" x="96.49" y="-900.79" font-family="Helvetica,sans-Serif" font-size="14.00">PK</text>
<polygon fill="none" stroke="black" points="119.49,-891.99 119.49,-916.99 379.49,-916.99 379.49,-891.99 119.49,-891.99" />
<text text-anchor="start" x="124.49" y="-900.79" font-family="Helvetica,sans-Serif" font-size="14.00">integration_outcome_type</text>
<polygon fill="none" stroke="black" points="379.49,-891.99 379.49,-916.99 465.49,-916.99 465.49,-891.99 379.49,-891.99" />
<text text-anchor="start" x="384.49" y="-900.79" font-family="Helvetica,sans-Serif" font-size="14.00">categorical</text>
<polygon fill="none" stroke="black" points="91.49,-866.99 91.49,-891.99 119.49,-891.99 119.49,-866.99 91.49,-866.99" />
<polygon fill="none" stroke="black" points="119.49,-866.99 119.49,-891.99 379.49,-891.99 379.49,-866.99 119.49,-866.99" />
<text text-anchor="start" x="124.49" y="-875.79" font-family="Helvetica,sans-Serif" font-size="14.00">integration_outcome_achieved_date</text>
<polygon fill="none" stroke="black" points="379.49,-866.99 379.49,-891.99 465.49,-891.99 465.49,-866.99 379.49,-866.99" />
<text text-anchor="start" x="406.99" y="-875.79" font-family="Helvetica,sans-Serif" font-size="14.00">date</text>
<polygon fill="none" stroke="black" points="91.49,-841.99 91.49,-866.99 119.49,-866.99 119.49,-841.99 91.49,-841.99" />
<polygon fill="none" stroke="black" points="119.49,-841.99 119.49,-866.99 379.49,-866.99 379.49,-841.99 119.49,-841.99" />
<text text-anchor="start" x="124.49" y="-850.79" font-family="Helvetica,sans-Serif" font-size="14.00">integration_social</text>
<polygon fill="none" stroke="black" points="379.49,-841.99 379.49,-866.99 465.49,-866.99 465.49,-841.99 379.49,-841.99" />
<text text-anchor="start" x="384.49" y="-850.79" font-family="Helvetica,sans-Serif" font-size="14.00">categorical</text>
<polygon fill="none" stroke="black" points="91.49,-816.99 91.49,-841.99 119.49,-841.99 119.49,-816.99 91.49,-816.99" />
<polygon fill="none" stroke="black" points="119.49,-816.99 119.49,-841.99 379.49,-841.99 379.49,-816.99 119.49,-816.99" />
<text text-anchor="start" x="124.49" y="-825.79" font-family="Helvetica,sans-Serif" font-size="14.00">integration_comms_language</text>
<polygon fill="none" stroke="black" points="379.49,-816.99 379.49,-841.99 465.49,-841.99 465.49,-816.99 379.49,-816.99" />
<text text-anchor="start" x="384.49" y="-825.79" font-family="Helvetica,sans-Serif" font-size="14.00">categorical</text>
<polygon fill="none" stroke="black" points="91.49,-791.99 91.49,-816.99 119.49,-816.99 119.49,-791.99 91.49,-791.99" />
<polygon fill="none" stroke="black" points="119.49,-791.99 119.49,-816.99 379.49,-816.99 379.49,-791.99 119.49,-791.99" />
<text text-anchor="start" x="124.49" y="-800.79" font-family="Helvetica,sans-Serif" font-size="14.00">integration_digital</text>
<polygon fill="none" stroke="black" points="379.49,-791.99 379.49,-816.99 465.49,-816.99 465.49,-791.99 379.49,-791.99" />
<text text-anchor="start" x="384.49" y="-800.79" font-family="Helvetica,sans-Serif" font-size="14.00">categorical</text>
</g>

</a><a href="{{ '/records/integration_plan--person.html' | relative_url }}"><g id="integration_plan--person" class="edge">
<title>integration_plan--person</title>
<path fill="none" stroke="#7f7f7f" stroke-dasharray="5,2" d="M410.13,-787.91C462.38,-750.96 522.6,-708.37 575.86,-670.71" />
<text text-anchor="middle" x="570.86" y="-674.51" font-family="Times,serif" font-size="14.00">1</text>
<text text-anchor="middle" x="394.63" y="-776.71" font-family="Times,serif" font-size="14.00">0..N</text>
</g>

</a><a href="{{ '/records/employment_intermediate.html' | relative_url }}"><g id="employment_intermediate" class="node">
<title>employment_intermediate</title>
<polygon fill="#f4cae4" stroke="transparent" points="391,-495.82 0,-495.82 0,-384.82 391,-384.82 391,-495.82" />
<polygon fill="none" stroke="black" points="8.5,-463.32 8.5,-491.32 383.5,-491.32 383.5,-463.32 8.5,-463.32" />
<text text-anchor="start" x="78.5" y="-474.52" font-family="Helvetica,sans-Serif" font-weight="bold" font-size="16.00">employment_intermediate</text>
<polygon fill="none" stroke="black" points="8.5,-438.32 8.5,-463.32 36.5,-463.32 36.5,-438.32 8.5,-438.32" />
<text text-anchor="start" x="13.5" y="-447.12" font-family="Helvetica,sans-Serif" font-size="14.00">PK</text>
<polygon fill="none" stroke="black" points="36.5,-438.32 36.5,-463.32 332.5,-463.32 332.5,-438.32 36.5,-438.32" />
<text text-anchor="start" x="41.5" y="-447.12" font-family="Helvetica,sans-Serif" font-size="14.00">unique_id</text>
<polygon fill="none" stroke="black" points="332.5,-438.32 332.5,-463.32 383.5,-463.32 383.5,-438.32 332.5,-438.32" />
<text text-anchor="start" x="337.5" y="-447.12" font-family="Helvetica,sans-Serif" font-size="14.00">string</text>
<polygon fill="none" stroke="black" points="8.5,-413.32 8.5,-438.32 36.5,-438.32 36.5,-413.32 8.5,-413.32" />
<polygon fill="none" stroke="black" points="36.5,-413.32 36.5,-438.32 332.5,-438.32 332.5,-413.32 36.5,-413.32" />
<text text-anchor="start" x="41.5" y="-422.12" font-family="Helvetica,sans-Serif" font-size="14.00">date_intermediate_employment_outcome</text>
<polygon fill="none" stroke="black" points="332.5,-413.32 332.5,-438.32 383.5,-438.32 383.5,-413.32 332.5,-413.32" />
<text text-anchor="start" x="342.5" y="-422.12" font-family="Helvetica,sans-Serif" font-size="14.00">date</text>
<polygon fill="none" stroke="black" points="8.5,-388.32 8.5,-413.32 36.5,-413.32 36.5,-388.32 8.5,-388.32" />
<polygon fill="none" stroke="black" points="36.5,-388.32 36.5,-413.32 332.5,-413.32 332.5,-388.32 36.5,-388.32" />
<text text-anchor="start" x="41.5" y="-397.12" font-family="Helvetica,sans-Serif" font-size="14.00">intermediate_employment_outcome_type</text>
<polygon fill="none" stroke="black" points="332.5,-388.32 332.5,-413.32 383.5,-413.32 383.5,-388.32 332.5,-388.32" />
<text text-anchor="start" x="347.5" y="-397.12" font-family="Helvetica,sans-Serif" font-size="14.00">list</text>
</g>

</a><a href="{{ '/records/employment_intermediate--person.html' | relative_url }}"><g id="employment_intermediate--person" class="edge">
<title>employment_intermediate--person</title>
<path fill="none" stroke="#7f7f7f" stroke-dasharray="5,2" d="M391.26,-488.9C452.56,-504.11 519.01,-520.6 575.9,-534.71" />
<text text-anchor="middle" x="570.9" y="-538.51" font-family="Times,serif" font-size="14.00">1</text>
<text text-anchor="middle" x="402.76" y="-492.7" font-family="Times,serif" font-size="14.00">0,1</text>
</g>

</a><a href="{{ '/records/employment_entry.html' | relative_url }}"><g id="employment_entry" class="node">
<title>employment_entry</title>
<polygon fill="#f4cae4" stroke="transparent" points="655.71,-186 280.71,-186 280.71,0 655.71,0 655.71,-186" />
<polygon fill="none" stroke="black" points="289.21,-154 289.21,-182 648.21,-182 648.21,-154 289.21,-154" />
<text text-anchor="start" x="384.71" y="-165.2" font-family="Helvetica,sans-Serif" font-weight="bold" font-size="16.00">employment_entry</text>
<polygon fill="none" stroke="black" points="289.21,-129 289.21,-154 317.21,-154 317.21,-129 289.21,-129" />
<text text-anchor="start" x="294.21" y="-137.8" font-family="Helvetica,sans-Serif" font-size="14.00">PK</text>
<polygon fill="none" stroke="black" points="317.21,-129 317.21,-154 562.21,-154 562.21,-129 317.21,-129" />
<text text-anchor="start" x="322.21" y="-137.8" font-family="Helvetica,sans-Serif" font-size="14.00">unique_id</text>
<polygon fill="none" stroke="black" points="562.21,-129 562.21,-154 648.21,-154 648.21,-129 562.21,-129" />
<text text-anchor="start" x="584.71" y="-137.8" font-family="Helvetica,sans-Serif" font-size="14.00">string</text>
<polygon fill="none" stroke="black" points="289.21,-104 289.21,-129 317.21,-129 317.21,-104 289.21,-104" />
<polygon fill="none" stroke="black" points="317.21,-104 317.21,-129 562.21,-129 562.21,-104 317.21,-104" />
<text text-anchor="start" x="322.21" y="-112.8" font-family="Helvetica,sans-Serif" font-size="14.00">employment_entry_outcome_type</text>
<polygon fill="none" stroke="black" points="562.21,-104 562.21,-129 648.21,-129 648.21,-104 562.21,-104" />
<text text-anchor="start" x="567.21" y="-112.8" font-family="Helvetica,sans-Serif" font-size="14.00">categorical</text>
<polygon fill="none" stroke="black" points="289.21,-79 289.21,-104 317.21,-104 317.21,-79 289.21,-79" />
<polygon fill="none" stroke="black" points="317.21,-79 317.21,-104 562.21,-104 562.21,-79 317.21,-79" />
<text text-anchor="start" x="322.21" y="-87.8" font-family="Helvetica,sans-Serif" font-size="14.00">date_employment_entry</text>
<polygon fill="none" stroke="black" points="562.21,-79 562.21,-104 648.21,-104 648.21,-79 562.21,-79" />
<text text-anchor="start" x="589.71" y="-87.8" font-family="Helvetica,sans-Serif" font-size="14.00">date</text>
<polygon fill="none" stroke="black" points="289.21,-54 289.21,-79 317.21,-79 317.21,-54 289.21,-54" />
<polygon fill="none" stroke="black" points="317.21,-54 317.21,-79 562.21,-79 562.21,-54 317.21,-54" />
<text text-anchor="start" x="322.21" y="-62.8" font-family="Helvetica,sans-Serif" font-size="14.00">employment_entry_details</text>
<polygon fill="none" stroke="black" points="562.21,-54 562.21,-79 648.21,-79 648.21,-54 562.21,-54" />
<text text-anchor="start" x="567.21" y="-62.8" font-family="Helvetica,sans-Serif" font-size="14.00">categorical</text>
<polygon fill="none" stroke="black" points="289.21,-29 289.21,-54 317.21,-54 317.21,-29 289.21,-29" />
<polygon fill="none" stroke="black" points="317.21,-29 317.21,-54 562.21,-54 562.21,-29 317.21,-29" />
<text text-anchor="start" x="322.21" y="-37.8" font-family="Helvetica,sans-Serif" font-size="14.00">employment_entry_occupation</text>
<polygon fill="none" stroke="black" points="562.21,-29 562.21,-54 648.21,-54 648.21,-29 562.21,-29" />
<text text-anchor="start" x="584.71" y="-37.8" font-family="Helvetica,sans-Serif" font-size="14.00">string</text>
<polygon fill="none" stroke="black" points="289.21,-4 289.21,-29 317.21,-29 317.21,-4 289.21,-4" />
<polygon fill="none" stroke="black" points="317.21,-4 317.21,-29 562.21,-29 562.21,-4 317.21,-4" />
<text text-anchor="start" x="322.21" y="-12.8" font-family="Helvetica,sans-Serif" font-size="14.00">employment_entry_sector</text>
<polygon fill="none" stroke="black" points="562.21,-4 562.21,-29 648.21,-29 648.21,-4 562.21,-4" />
<text text-anchor="start" x="584.71" y="-12.8" font-family="Helvetica,sans-Serif" font-size="14.00">string</text>
</g>

</a><a href="{{ '/records/employment_entry--person.html' | relative_url }}"><g id="employment_entry--person" class="edge">
<title>employment_entry--person</title>
<path fill="none" stroke="#7f7f7f" stroke-dasharray="5,2" d="M517.01,-186.11C558.86,-265.96 619.14,-380.97 662.8,-464.28" />
<text text-anchor="middle" x="657.8" y="-453.08" font-family="Times,serif" font-size="14.00">1</text>
<text text-anchor="middle" x="505.51" y="-189.91" font-family="Times,serif" font-size="14.00">0,1</text>
</g>

</a><a href="{{ '/records/employment_sustain.html' | relative_url }}"><g id="employment_sustain" class="node">
<title>employment_sustain</title>
<polygon fill="#f4cae4" stroke="transparent" points="1038.34,-98.34 715.34,-98.34 715.34,-12.34 1038.34,-12.34 1038.34,-98.34" />
<polygon fill="none" stroke="black" points="723.84,-66.34 723.84,-94.34 1030.84,-94.34 1030.84,-66.34 723.84,-66.34" />
<text text-anchor="start" x="784.84" y="-77.54" font-family="Helvetica,sans-Serif" font-weight="bold" font-size="16.00">employment_sustain</text>
<polygon fill="none" stroke="black" points="723.84,-41.34 723.84,-66.34 751.84,-66.34 751.84,-41.34 723.84,-41.34" />
<text text-anchor="start" x="728.84" y="-50.14" font-family="Helvetica,sans-Serif" font-size="14.00">PK</text>
<polygon fill="none" stroke="black" points="751.84,-41.34 751.84,-66.34 979.84,-66.34 979.84,-41.34 751.84,-41.34" />
<text text-anchor="start" x="756.84" y="-50.14" font-family="Helvetica,sans-Serif" font-size="14.00">unique_id</text>
<polygon fill="none" stroke="black" points="979.84,-41.34 979.84,-66.34 1030.84,-66.34 1030.84,-41.34 979.84,-41.34" />
<text text-anchor="start" x="984.84" y="-50.14" font-family="Helvetica,sans-Serif" font-size="14.00">string</text>
<polygon fill="none" stroke="black" points="723.84,-16.34 723.84,-41.34 751.84,-41.34 751.84,-16.34 723.84,-16.34" />
<polygon fill="none" stroke="black" points="751.84,-16.34 751.84,-41.34 979.84,-41.34 979.84,-16.34 751.84,-16.34" />
<text text-anchor="start" x="756.84" y="-25.14" font-family="Helvetica,sans-Serif" font-size="14.00">employment_sustainment_date</text>
<polygon fill="none" stroke="black" points="979.84,-16.34 979.84,-41.34 1030.84,-41.34 1030.84,-16.34 979.84,-16.34" />
<text text-anchor="start" x="989.84" y="-25.14" font-family="Helvetica,sans-Serif" font-size="14.00">date</text>
</g>

</a><a href="{{ '/records/employment_sustain--person.html' | relative_url }}"><g id="employment_sustain--person" class="edge">
<title>employment_sustain--person</title>
<path fill="none" stroke="#7f7f7f" stroke-dasharray="5,2" d="M863.45,-98.78C838.79,-178.81 785.52,-351.67 750.81,-464.3" />
<text text-anchor="middle" x="745.81" y="-453.1" font-family="Times,serif" font-size="14.00">1</text>
<text text-anchor="middle" x="851.95" y="-102.58" font-family="Times,serif" font-size="14.00">0,1</text>
</g>

</a><a href="{{ '/records/date_last_seen.html' | relative_url }}"><g id="date_last_seen" class="node">
<title>date_last_seen</title>
<polygon fill="#e6f5c9" stroke="transparent" points="1252.54,-289.15 1044.54,-289.15 1044.54,-203.15 1252.54,-203.15 1252.54,-289.15" />
<polygon fill="none" stroke="black" points="1052.54,-257.15 1052.54,-285.15 1244.54,-285.15 1244.54,-257.15 1052.54,-257.15" />
<text text-anchor="start" x="1082.54" y="-268.35" font-family="Helvetica,sans-Serif" font-weight="bold" font-size="16.00">date_last_seen</text>
<polygon fill="none" stroke="black" points="1052.54,-232.15 1052.54,-257.15 1080.54,-257.15 1080.54,-232.15 1052.54,-232.15" />
<text text-anchor="start" x="1057.54" y="-240.95" font-family="Helvetica,sans-Serif" font-size="14.00">PK</text>
<polygon fill="none" stroke="black" points="1080.54,-232.15 1080.54,-257.15 1193.54,-257.15 1193.54,-232.15 1080.54,-232.15" />
<text text-anchor="start" x="1085.54" y="-240.95" font-family="Helvetica,sans-Serif" font-size="14.00">unique_id</text>
<polygon fill="none" stroke="black" points="1193.54,-232.15 1193.54,-257.15 1244.54,-257.15 1244.54,-232.15 1193.54,-232.15" />
<text text-anchor="start" x="1198.54" y="-240.95" font-family="Helvetica,sans-Serif" font-size="14.00">string</text>
<polygon fill="none" stroke="black" points="1052.54,-207.15 1052.54,-232.15 1080.54,-232.15 1080.54,-207.15 1052.54,-207.15" />
<polygon fill="none" stroke="black" points="1080.54,-207.15 1080.54,-232.15 1193.54,-232.15 1193.54,-207.15 1080.54,-207.15" />
<text text-anchor="start" x="1085.54" y="-215.95" font-family="Helvetica,sans-Serif" font-size="14.00">date_last_seen</text>
<polygon fill="none" stroke="black" points="1193.54,-207.15 1193.54,-232.15 1244.54,-232.15 1244.54,-207.15 1193.54,-207.15" />
<text text-anchor="start" x="1203.54" y="-215.95" font-family="Helvetica,sans-Serif" font-size="14.00">date</text>
</g>

</a><a href="{{ '/records/date_last_seen--person.html' | relative_url }}"><g id="date_last_seen--person" class="edge">
<title>date_last_seen--person</title>
<path fill="none" stroke="#7f7f7f" stroke-dasharray="5,2" d="M1091.4,-289.16C1032.3,-333.64 937.75,-404.8 858.62,-464.36" />
<text text-anchor="middle" x="853.62" y="-453.16" font-family="Times,serif" font-size="14.00">1</text>
<text text-anchor="middle" x="1079.9" y="-292.96" font-family="Times,serif" font-size="14.00">0,1</text>
</g>
</a></g>
</svg>