<svg xmlns="http://www.w3.org/2000/svg" width="auto" height="auto" viewBox="0.00 0.00 1455.05 1369.49">
<g id="graph0" class="graph" transform="scale(1 1) rotate(0) translate(4 1365.49)">
<title>%3</title>
<a href="{{ '/records/person.html' | relative_url }}"><g id="person" class="node">
<title>person</title>
<polygon fill="#b3e2cd" stroke="transparent" points="872.29,-678.75 585.29,-678.75 585.29,-467.75 872.29,-467.75 872.29,-678.75" />
<polygon fill="none" stroke="black" points="593.79,-646.25 593.79,-674.25 864.79,-674.25 864.79,-646.25 593.79,-646.25" />
<text text-anchor="start" x="697.79" y="-657.45" font-family="Helvetica,sans-Serif" font-weight="bold" font-size="16.00">person</text>
<polygon fill="none" stroke="black" points="593.79,-621.25 593.79,-646.25 621.79,-646.25 621.79,-621.25 593.79,-621.25" />
<text text-anchor="start" x="598.79" y="-630.05" font-family="Helvetica,sans-Serif" font-size="14.00">PK</text>
<polygon fill="none" stroke="black" points="621.79,-621.25 621.79,-646.25 775.79,-646.25 775.79,-621.25 621.79,-621.25" />
<text text-anchor="start" x="626.79" y="-630.05" font-family="Helvetica,sans-Serif" font-size="14.00">unique_id</text>
<polygon fill="none" stroke="black" points="775.79,-621.25 775.79,-646.25 864.79,-646.25 864.79,-621.25 775.79,-621.25" />
<text text-anchor="start" x="799.79" y="-630.05" font-family="Helvetica,sans-Serif" font-size="14.00">string</text>
<polygon fill="none" stroke="black" points="593.79,-596.25 593.79,-621.25 621.79,-621.25 621.79,-596.25 593.79,-596.25" />
<polygon fill="none" stroke="black" points="621.79,-596.25 621.79,-621.25 775.79,-621.25 775.79,-596.25 621.79,-596.25" />
<text text-anchor="start" x="626.79" y="-605.05" font-family="Helvetica,sans-Serif" font-size="14.00">ni_number</text>
<polygon fill="none" stroke="black" points="775.79,-596.25 775.79,-621.25 864.79,-621.25 864.79,-596.25 775.79,-596.25" />
<text text-anchor="start" x="801.79" y="-605.05" font-family="Helvetica,sans-Serif" font-size="14.00">NINO</text>
<polygon fill="none" stroke="black" points="593.79,-571.25 593.79,-596.25 621.79,-596.25 621.79,-571.25 593.79,-571.25" />
<polygon fill="none" stroke="black" points="621.79,-571.25 621.79,-596.25 775.79,-596.25 775.79,-571.25 621.79,-571.25" />
<text text-anchor="start" x="626.79" y="-580.05" font-family="Helvetica,sans-Serif" font-size="14.00">temp_ni_number</text>
<polygon fill="none" stroke="black" points="775.79,-571.25 775.79,-596.25 864.79,-596.25 864.79,-571.25 775.79,-571.25" />
<text text-anchor="start" x="801.79" y="-580.05" font-family="Helvetica,sans-Serif" font-size="14.00">NINO</text>
<polygon fill="none" stroke="black" points="593.79,-546.25 593.79,-571.25 621.79,-571.25 621.79,-546.25 593.79,-546.25" />
<polygon fill="none" stroke="black" points="621.79,-546.25 621.79,-571.25 775.79,-571.25 775.79,-546.25 621.79,-546.25" />
<text text-anchor="start" x="626.79" y="-555.05" font-family="Helvetica,sans-Serif" font-size="14.00">year_of_birth</text>
<polygon fill="none" stroke="black" points="775.79,-546.25 775.79,-571.25 864.79,-571.25 864.79,-546.25 775.79,-546.25" />
<text text-anchor="start" x="803.29" y="-555.05" font-family="Helvetica,sans-Serif" font-size="14.00">YYYY</text>
<polygon fill="none" stroke="black" points="593.79,-521.25 593.79,-546.25 621.79,-546.25 621.79,-521.25 593.79,-521.25" />
<polygon fill="none" stroke="black" points="621.79,-521.25 621.79,-546.25 775.79,-546.25 775.79,-521.25 621.79,-521.25" />
<text text-anchor="start" x="626.79" y="-530.05" font-family="Helvetica,sans-Serif" font-size="14.00">gender</text>
<polygon fill="none" stroke="black" points="775.79,-521.25 775.79,-546.25 864.79,-546.25 864.79,-521.25 775.79,-521.25" />
<text text-anchor="start" x="780.79" y="-530.05" font-family="Helvetica,sans-Serif" font-size="14.00">Categorical</text>
<polygon fill="none" stroke="black" points="593.79,-496.25 593.79,-521.25 621.79,-521.25 621.79,-496.25 593.79,-496.25" />
<polygon fill="none" stroke="black" points="621.79,-496.25 621.79,-521.25 775.79,-521.25 775.79,-496.25 621.79,-496.25" />
<text text-anchor="start" x="626.79" y="-505.05" font-family="Helvetica,sans-Serif" font-size="14.00">dispersal_area</text>
<polygon fill="none" stroke="black" points="775.79,-496.25 775.79,-521.25 864.79,-521.25 864.79,-496.25 775.79,-496.25" />
<text text-anchor="start" x="798.79" y="-505.05" font-family="Helvetica,sans-Serif" font-size="14.00">String</text>
<polygon fill="none" stroke="black" points="593.79,-471.25 593.79,-496.25 621.79,-496.25 621.79,-471.25 593.79,-471.25" />
<polygon fill="none" stroke="black" points="621.79,-471.25 621.79,-496.25 775.79,-496.25 775.79,-471.25 621.79,-471.25" />
<text text-anchor="start" x="626.79" y="-480.05" font-family="Helvetica,sans-Serif" font-size="14.00">date_started_service</text>
<polygon fill="none" stroke="black" points="775.79,-471.25 775.79,-496.25 864.79,-496.25 864.79,-471.25 775.79,-471.25" />
<text text-anchor="start" x="803.79" y="-480.05" font-family="Helvetica,sans-Serif" font-size="14.00">Date</text>
</g>

</a><a href="{{ '/records/housing_entry.html' | relative_url }}"><g id="housing_entry" class="node">
<title>housing_entry</title>
<polygon fill="#fdcdac" stroke="transparent" points="1447.05,-628.75 1101.05,-628.75 1101.05,-517.75 1447.05,-517.75 1447.05,-628.75" />
<polygon fill="none" stroke="black" points="1109.05,-596.25 1109.05,-624.25 1439.05,-624.25 1439.05,-596.25 1109.05,-596.25" />
<text text-anchor="start" x="1210.05" y="-607.45" font-family="Helvetica,sans-Serif" font-weight="bold" font-size="16.00">housing_entry</text>
<polygon fill="none" stroke="black" points="1109.05,-571.25 1109.05,-596.25 1137.05,-596.25 1137.05,-571.25 1109.05,-571.25" />
<text text-anchor="start" x="1114.05" y="-580.05" font-family="Helvetica,sans-Serif" font-size="14.00">PK</text>
<polygon fill="none" stroke="black" points="1137.05,-571.25 1137.05,-596.25 1350.05,-596.25 1350.05,-571.25 1137.05,-571.25" />
<text text-anchor="start" x="1142.05" y="-580.05" font-family="Helvetica,sans-Serif" font-size="14.00">unique_id</text>
<polygon fill="none" stroke="black" points="1350.05,-571.25 1350.05,-596.25 1439.05,-596.25 1439.05,-571.25 1350.05,-571.25" />
<text text-anchor="start" x="1374.05" y="-580.05" font-family="Helvetica,sans-Serif" font-size="14.00">string</text>
<polygon fill="none" stroke="black" points="1109.05,-546.25 1109.05,-571.25 1137.05,-571.25 1137.05,-546.25 1109.05,-546.25" />
<polygon fill="none" stroke="black" points="1137.05,-546.25 1137.05,-571.25 1350.05,-571.25 1350.05,-546.25 1137.05,-546.25" />
<text text-anchor="start" x="1142.05" y="-555.05" font-family="Helvetica,sans-Serif" font-size="14.00">housing_entry_date</text>
<polygon fill="none" stroke="black" points="1350.05,-546.25 1350.05,-571.25 1439.05,-571.25 1439.05,-546.25 1350.05,-546.25" />
<text text-anchor="start" x="1378.05" y="-555.05" font-family="Helvetica,sans-Serif" font-size="14.00">Date</text>
<polygon fill="none" stroke="black" points="1109.05,-521.25 1109.05,-546.25 1137.05,-546.25 1137.05,-521.25 1109.05,-521.25" />
<polygon fill="none" stroke="black" points="1137.05,-521.25 1137.05,-546.25 1350.05,-546.25 1350.05,-521.25 1137.05,-521.25" />
<text text-anchor="start" x="1142.05" y="-530.05" font-family="Helvetica,sans-Serif" font-size="14.00">housing_entry_accomodation</text>
<polygon fill="none" stroke="black" points="1350.05,-521.25 1350.05,-546.25 1439.05,-546.25 1439.05,-521.25 1350.05,-521.25" />
<text text-anchor="start" x="1355.05" y="-530.05" font-family="Helvetica,sans-Serif" font-size="14.00">Categorical</text>
</g>

</a><a href="{{ '/records/housing_entry--person.html' | relative_url }}"><g id="housing_entry--person" class="edge">
<title>housing_entry--person</title>
<path fill="none" stroke="#7f7f7f" stroke-dasharray="5,2" d="M1100.78,-573.25C1027.18,-573.25 942.4,-573.25 872.38,-573.25" />
<text text-anchor="middle" x="877.38" y="-577.05" font-family="Times,serif" font-size="14.00">1</text>
<text text-anchor="middle" x="1089.28" y="-577.05" font-family="Times,serif" font-size="14.00">0,1</text>
</g>

</a><a href="{{ '/records/housing_sustain.html' | relative_url }}"><g id="housing_sustain" class="node">
<title>housing_sustain</title>
<polygon fill="#fdcdac" stroke="transparent" points="1285.77,-974.59 993.77,-974.59 993.77,-888.59 1285.77,-888.59 1285.77,-974.59" />
<polygon fill="none" stroke="black" points="1001.77,-942.59 1001.77,-970.59 1277.77,-970.59 1277.77,-942.59 1001.77,-942.59" />
<text text-anchor="start" x="1067.27" y="-953.79" font-family="Helvetica,sans-Serif" font-weight="bold" font-size="16.00">housing_sustain</text>
<polygon fill="none" stroke="black" points="1001.77,-917.59 1001.77,-942.59 1029.77,-942.59 1029.77,-917.59 1001.77,-917.59" />
<text text-anchor="start" x="1006.77" y="-926.39" font-family="Helvetica,sans-Serif" font-size="14.00">PK</text>
<polygon fill="none" stroke="black" points="1029.77,-917.59 1029.77,-942.59 1226.77,-942.59 1226.77,-917.59 1029.77,-917.59" />
<text text-anchor="start" x="1034.77" y="-926.39" font-family="Helvetica,sans-Serif" font-size="14.00">unique_id</text>
<polygon fill="none" stroke="black" points="1226.77,-917.59 1226.77,-942.59 1277.77,-942.59 1277.77,-917.59 1226.77,-917.59" />
<text text-anchor="start" x="1231.77" y="-926.39" font-family="Helvetica,sans-Serif" font-size="14.00">string</text>
<polygon fill="none" stroke="black" points="1001.77,-892.59 1001.77,-917.59 1029.77,-917.59 1029.77,-892.59 1001.77,-892.59" />
<polygon fill="none" stroke="black" points="1029.77,-892.59 1029.77,-917.59 1226.77,-917.59 1226.77,-892.59 1029.77,-892.59" />
<text text-anchor="start" x="1034.77" y="-901.39" font-family="Helvetica,sans-Serif" font-size="14.00">housing_sustainment_date</text>
<polygon fill="none" stroke="black" points="1226.77,-892.59 1226.77,-917.59 1277.77,-917.59 1277.77,-892.59 1226.77,-892.59" />
<text text-anchor="start" x="1235.77" y="-901.39" font-family="Helvetica,sans-Serif" font-size="14.00">Date</text>
</g>

</a><a href="{{ '/records/housing_sustain--person.html' | relative_url }}"><g id="housing_sustain--person" class="edge">
<title>housing_sustain--person</title>
<path fill="none" stroke="#7f7f7f" stroke-dasharray="5,2" d="M1090.19,-888.36C1031.06,-836.8 930.12,-748.8 849.93,-678.87" />
<text text-anchor="middle" x="844.93" y="-682.67" font-family="Times,serif" font-size="14.00">1</text>
<text text-anchor="middle" x="1078.69" y="-877.16" font-family="Times,serif" font-size="14.00">0,1</text>
</g>

</a><a href="{{ '/records/baseline.html' | relative_url }}"><g id="baseline" class="node">
<title>baseline</title>
<polygon fill="#cbd5e8" stroke="transparent" points="943.79,-1361.49 522.79,-1361.49 522.79,-875.49 943.79,-875.49 943.79,-1361.49" />
<polygon fill="none" stroke="black" points="531.29,-1329.49 531.29,-1357.49 936.29,-1357.49 936.29,-1329.49 531.29,-1329.49" />
<text text-anchor="start" x="696.29" y="-1340.69" font-family="Helvetica,sans-Serif" font-weight="bold" font-size="16.00">baseline</text>
<polygon fill="none" stroke="black" points="531.29,-1304.49 531.29,-1329.49 559.29,-1329.49 559.29,-1304.49 531.29,-1304.49" />
<text text-anchor="start" x="536.29" y="-1313.29" font-family="Helvetica,sans-Serif" font-size="14.00">PK</text>
<polygon fill="none" stroke="black" points="559.29,-1304.49 559.29,-1329.49 814.29,-1329.49 814.29,-1304.49 559.29,-1304.49" />
<text text-anchor="start" x="564.29" y="-1313.29" font-family="Helvetica,sans-Serif" font-size="14.00">unique_id</text>
<polygon fill="none" stroke="black" points="814.29,-1304.49 814.29,-1329.49 936.29,-1329.49 936.29,-1304.49 814.29,-1304.49" />
<text text-anchor="start" x="854.79" y="-1313.29" font-family="Helvetica,sans-Serif" font-size="14.00">string</text>
<polygon fill="none" stroke="black" points="531.29,-1279.49 531.29,-1304.49 559.29,-1304.49 559.29,-1279.49 531.29,-1279.49" />
<polygon fill="none" stroke="black" points="559.29,-1279.49 559.29,-1304.49 814.29,-1304.49 814.29,-1279.49 559.29,-1279.49" />
<text text-anchor="start" x="564.29" y="-1288.29" font-family="Helvetica,sans-Serif" font-size="14.00">nationality</text>
<polygon fill="none" stroke="black" points="814.29,-1279.49 814.29,-1304.49 936.29,-1304.49 936.29,-1279.49 814.29,-1279.49" />
<text text-anchor="start" x="835.79" y="-1288.29" font-family="Helvetica,sans-Serif" font-size="14.00">Categorical</text>
<polygon fill="none" stroke="black" points="531.29,-1254.49 531.29,-1279.49 559.29,-1279.49 559.29,-1254.49 531.29,-1254.49" />
<polygon fill="none" stroke="black" points="559.29,-1254.49 559.29,-1279.49 814.29,-1279.49 814.29,-1254.49 559.29,-1254.49" />
<text text-anchor="start" x="564.29" y="-1263.29" font-family="Helvetica,sans-Serif" font-size="14.00">referral_source</text>
<polygon fill="none" stroke="black" points="814.29,-1254.49 814.29,-1279.49 936.29,-1279.49 936.29,-1254.49 814.29,-1254.49" />
<text text-anchor="start" x="835.79" y="-1263.29" font-family="Helvetica,sans-Serif" font-size="14.00">Categorical</text>
<polygon fill="none" stroke="black" points="531.29,-1229.49 531.29,-1254.49 559.29,-1254.49 559.29,-1229.49 531.29,-1229.49" />
<polygon fill="none" stroke="black" points="559.29,-1229.49 559.29,-1254.49 814.29,-1254.49 814.29,-1229.49 559.29,-1229.49" />
<text text-anchor="start" x="564.29" y="-1238.29" font-family="Helvetica,sans-Serif" font-size="14.00">transgender</text>
<polygon fill="none" stroke="black" points="814.29,-1229.49 814.29,-1254.49 936.29,-1254.49 936.29,-1229.49 814.29,-1229.49" />
<text text-anchor="start" x="835.79" y="-1238.29" font-family="Helvetica,sans-Serif" font-size="14.00">Categorical</text>
<polygon fill="none" stroke="black" points="531.29,-1204.49 531.29,-1229.49 559.29,-1229.49 559.29,-1204.49 531.29,-1204.49" />
<polygon fill="none" stroke="black" points="559.29,-1204.49 559.29,-1229.49 814.29,-1229.49 814.29,-1204.49 559.29,-1204.49" />
<text text-anchor="start" x="564.29" y="-1213.29" font-family="Helvetica,sans-Serif" font-size="14.00">living_status</text>
<polygon fill="none" stroke="black" points="814.29,-1204.49 814.29,-1229.49 936.29,-1229.49 936.29,-1204.49 814.29,-1204.49" />
<text text-anchor="start" x="835.79" y="-1213.29" font-family="Helvetica,sans-Serif" font-size="14.00">Categorical</text>
<polygon fill="none" stroke="black" points="531.29,-1179.49 531.29,-1204.49 559.29,-1204.49 559.29,-1179.49 531.29,-1179.49" />
<polygon fill="none" stroke="black" points="559.29,-1179.49 559.29,-1204.49 814.29,-1204.49 814.29,-1179.49 559.29,-1179.49" />
<text text-anchor="start" x="564.29" y="-1188.29" font-family="Helvetica,sans-Serif" font-size="14.00">current_dependents_uk</text>
<polygon fill="none" stroke="black" points="814.29,-1179.49 814.29,-1204.49 936.29,-1204.49 936.29,-1179.49 814.29,-1179.49" />
<text text-anchor="start" x="835.79" y="-1188.29" font-family="Helvetica,sans-Serif" font-size="14.00">Categorical</text>
<polygon fill="none" stroke="black" points="531.29,-1154.49 531.29,-1179.49 559.29,-1179.49 559.29,-1154.49 531.29,-1154.49" />
<polygon fill="none" stroke="black" points="559.29,-1154.49 559.29,-1179.49 814.29,-1179.49 814.29,-1154.49 559.29,-1154.49" />
<text text-anchor="start" x="564.29" y="-1163.29" font-family="Helvetica,sans-Serif" font-size="14.00">current_number_of_dependents_uk</text>
<polygon fill="none" stroke="black" points="814.29,-1154.49 814.29,-1179.49 936.29,-1179.49 936.29,-1154.49 814.29,-1154.49" />
<text text-anchor="start" x="862.79" y="-1163.29" font-family="Helvetica,sans-Serif" font-size="14.00">List</text>
<polygon fill="none" stroke="black" points="531.29,-1129.49 531.29,-1154.49 559.29,-1154.49 559.29,-1129.49 531.29,-1129.49" />
<polygon fill="none" stroke="black" points="559.29,-1129.49 559.29,-1154.49 814.29,-1154.49 814.29,-1129.49 559.29,-1129.49" />
<text text-anchor="start" x="564.29" y="-1138.29" font-family="Helvetica,sans-Serif" font-size="14.00">date_arrived_in_uk</text>
<polygon fill="none" stroke="black" points="814.29,-1129.49 814.29,-1154.49 936.29,-1154.49 936.29,-1129.49 814.29,-1129.49" />
<text text-anchor="start" x="858.79" y="-1138.29" font-family="Helvetica,sans-Serif" font-size="14.00">Date</text>
<polygon fill="none" stroke="black" points="531.29,-1104.49 531.29,-1129.49 559.29,-1129.49 559.29,-1104.49 531.29,-1104.49" />
<polygon fill="none" stroke="black" points="559.29,-1104.49 559.29,-1129.49 814.29,-1129.49 814.29,-1104.49 559.29,-1104.49" />
<text text-anchor="start" x="564.29" y="-1113.29" font-family="Helvetica,sans-Serif" font-size="14.00">date_asylum_status_granted</text>
<polygon fill="none" stroke="black" points="814.29,-1104.49 814.29,-1129.49 936.29,-1129.49 936.29,-1104.49 814.29,-1104.49" />
<text text-anchor="start" x="858.79" y="-1113.29" font-family="Helvetica,sans-Serif" font-size="14.00">Date</text>
<polygon fill="none" stroke="black" points="531.29,-1079.49 531.29,-1104.49 559.29,-1104.49 559.29,-1079.49 531.29,-1079.49" />
<polygon fill="none" stroke="black" points="559.29,-1079.49 559.29,-1104.49 814.29,-1104.49 814.29,-1079.49 559.29,-1079.49" />
<text text-anchor="start" x="564.29" y="-1088.29" font-family="Helvetica,sans-Serif" font-size="14.00">language_level_on_entry</text>
<polygon fill="none" stroke="black" points="814.29,-1079.49 814.29,-1104.49 936.29,-1104.49 936.29,-1079.49 814.29,-1079.49" />
<text text-anchor="start" x="835.79" y="-1088.29" font-family="Helvetica,sans-Serif" font-size="14.00">Categorical</text>
<polygon fill="none" stroke="black" points="531.29,-1054.49 531.29,-1079.49 559.29,-1079.49 559.29,-1054.49 531.29,-1054.49" />
<polygon fill="none" stroke="black" points="559.29,-1054.49 559.29,-1079.49 814.29,-1079.49 814.29,-1054.49 559.29,-1054.49" />
<text text-anchor="start" x="564.29" y="-1063.29" font-family="Helvetica,sans-Serif" font-size="14.00">highest_qualification_achieved</text>
<polygon fill="none" stroke="black" points="814.29,-1054.49 814.29,-1079.49 936.29,-1079.49 936.29,-1054.49 814.29,-1054.49" />
<text text-anchor="start" x="835.79" y="-1063.29" font-family="Helvetica,sans-Serif" font-size="14.00">Categorical</text>
<polygon fill="none" stroke="black" points="531.29,-1029.49 531.29,-1054.49 559.29,-1054.49 559.29,-1029.49 531.29,-1029.49" />
<polygon fill="none" stroke="black" points="559.29,-1029.49 559.29,-1054.49 814.29,-1054.49 814.29,-1029.49 559.29,-1029.49" />
<text text-anchor="start" x="564.29" y="-1038.29" font-family="Helvetica,sans-Serif" font-size="14.00">age_finished_study</text>
<polygon fill="none" stroke="black" points="814.29,-1029.49 814.29,-1054.49 936.29,-1054.49 936.29,-1029.49 814.29,-1029.49" />
<text text-anchor="start" x="850.29" y="-1038.29" font-family="Helvetica,sans-Serif" font-size="14.00">integer</text>
<polygon fill="none" stroke="black" points="531.29,-1004.49 531.29,-1029.49 559.29,-1029.49 559.29,-1004.49 531.29,-1004.49" />
<polygon fill="none" stroke="black" points="559.29,-1004.49 559.29,-1029.49 814.29,-1029.49 814.29,-1004.49 559.29,-1004.49" />
<text text-anchor="start" x="564.29" y="-1013.29" font-family="Helvetica,sans-Serif" font-size="14.00">employed_in_home_country</text>
<polygon fill="none" stroke="black" points="814.29,-1004.49 814.29,-1029.49 936.29,-1029.49 936.29,-1004.49 814.29,-1004.49" />
<text text-anchor="start" x="835.79" y="-1013.29" font-family="Helvetica,sans-Serif" font-size="14.00">Categorical</text>
<polygon fill="none" stroke="black" points="531.29,-979.49 531.29,-1004.49 559.29,-1004.49 559.29,-979.49 531.29,-979.49" />
<polygon fill="none" stroke="black" points="559.29,-979.49 559.29,-1004.49 814.29,-1004.49 814.29,-979.49 559.29,-979.49" />
<text text-anchor="start" x="564.29" y="-988.29" font-family="Helvetica,sans-Serif" font-size="14.00">occupation_type</text>
<polygon fill="none" stroke="black" points="814.29,-979.49 814.29,-1004.49 936.29,-1004.49 936.29,-979.49 814.29,-979.49" />
<text text-anchor="start" x="819.29" y="-988.29" font-family="Helvetica,sans-Serif" font-size="14.00">Free Text (short)</text>
<polygon fill="none" stroke="black" points="531.29,-954.49 531.29,-979.49 559.29,-979.49 559.29,-954.49 531.29,-954.49" />
<polygon fill="none" stroke="black" points="559.29,-954.49 559.29,-979.49 814.29,-979.49 814.29,-954.49 559.29,-954.49" />
<text text-anchor="start" x="564.29" y="-963.29" font-family="Helvetica,sans-Serif" font-size="14.00">occupation_sector</text>
<polygon fill="none" stroke="black" points="814.29,-954.49 814.29,-979.49 936.29,-979.49 936.29,-954.49 814.29,-954.49" />
<text text-anchor="start" x="819.29" y="-963.29" font-family="Helvetica,sans-Serif" font-size="14.00">Free Text (short)</text>
<polygon fill="none" stroke="black" points="531.29,-929.49 531.29,-954.49 559.29,-954.49 559.29,-929.49 531.29,-929.49" />
<polygon fill="none" stroke="black" points="559.29,-929.49 559.29,-954.49 814.29,-954.49 814.29,-929.49 559.29,-929.49" />
<text text-anchor="start" x="564.29" y="-938.29" font-family="Helvetica,sans-Serif" font-size="14.00">occupation_goal</text>
<polygon fill="none" stroke="black" points="814.29,-929.49 814.29,-954.49 936.29,-954.49 936.29,-929.49 814.29,-929.49" />
<text text-anchor="start" x="819.29" y="-938.29" font-family="Helvetica,sans-Serif" font-size="14.00">Free Text (short)</text>
<polygon fill="none" stroke="black" points="531.29,-904.49 531.29,-929.49 559.29,-929.49 559.29,-904.49 531.29,-904.49" />
<polygon fill="none" stroke="black" points="559.29,-904.49 559.29,-929.49 814.29,-929.49 814.29,-904.49 559.29,-904.49" />
<text text-anchor="start" x="564.29" y="-913.29" font-family="Helvetica,sans-Serif" font-size="14.00">economic_status</text>
<polygon fill="none" stroke="black" points="814.29,-904.49 814.29,-929.49 936.29,-929.49 936.29,-904.49 814.29,-904.49" />
<text text-anchor="start" x="835.79" y="-913.29" font-family="Helvetica,sans-Serif" font-size="14.00">Categorical</text>
<polygon fill="none" stroke="black" points="531.29,-879.49 531.29,-904.49 559.29,-904.49 559.29,-879.49 531.29,-879.49" />
<polygon fill="none" stroke="black" points="559.29,-879.49 559.29,-904.49 814.29,-904.49 814.29,-879.49 559.29,-879.49" />
<text text-anchor="start" x="564.29" y="-888.29" font-family="Helvetica,sans-Serif" font-size="14.00">housing_baseline_accommodation</text>
<polygon fill="none" stroke="black" points="814.29,-879.49 814.29,-904.49 936.29,-904.49 936.29,-879.49 814.29,-879.49" />
<text text-anchor="start" x="835.79" y="-888.29" font-family="Helvetica,sans-Serif" font-size="14.00">Categorical</text>
</g>

</a><a href="{{ '/records/baseline--person.html' | relative_url }}"><g id="baseline--person" class="edge">
<title>baseline--person</title>
<path fill="none" stroke="#7f7f7f" stroke-dasharray="5,2" d="M731.28,-875.37C730.71,-806.5 730.12,-735.1 729.66,-679.01" />
<text text-anchor="middle" x="724.66" y="-682.81" font-family="Times,serif" font-size="14.00">1</text>
<text text-anchor="middle" x="719.78" y="-864.17" font-family="Times,serif" font-size="14.00">0,1</text>
</g>

</a><a href="{{ '/records/integration_plan.html' | relative_url }}"><g id="integration_plan" class="node">
<title>integration_plan</title>
<polygon fill="#cbd5e8" stroke="transparent" points="488.25,-992.3 95.25,-992.3 95.25,-806.3 488.25,-806.3 488.25,-992.3" />
<polygon fill="none" stroke="black" points="103.75,-960.3 103.75,-988.3 480.75,-988.3 480.75,-960.3 103.75,-960.3" />
<text text-anchor="start" x="218.75" y="-971.5" font-family="Helvetica,sans-Serif" font-weight="bold" font-size="16.00">integration_plan</text>
<polygon fill="none" stroke="black" points="103.75,-935.3 103.75,-960.3 131.75,-960.3 131.75,-935.3 103.75,-935.3" />
<text text-anchor="start" x="108.75" y="-944.1" font-family="Helvetica,sans-Serif" font-size="14.00">PK</text>
<polygon fill="none" stroke="black" points="131.75,-935.3 131.75,-960.3 391.75,-960.3 391.75,-935.3 131.75,-935.3" />
<text text-anchor="start" x="136.75" y="-944.1" font-family="Helvetica,sans-Serif" font-size="14.00">unique_id</text>
<polygon fill="none" stroke="black" points="391.75,-935.3 391.75,-960.3 480.75,-960.3 480.75,-935.3 391.75,-935.3" />
<text text-anchor="start" x="415.75" y="-944.1" font-family="Helvetica,sans-Serif" font-size="14.00">string</text>
<polygon fill="none" stroke="black" points="103.75,-910.3 103.75,-935.3 131.75,-935.3 131.75,-910.3 103.75,-910.3" />
<text text-anchor="start" x="108.75" y="-919.1" font-family="Helvetica,sans-Serif" font-size="14.00">PK</text>
<polygon fill="none" stroke="black" points="131.75,-910.3 131.75,-935.3 391.75,-935.3 391.75,-910.3 131.75,-910.3" />
<text text-anchor="start" x="136.75" y="-919.1" font-family="Helvetica,sans-Serif" font-size="14.00">integration_outcome_type</text>
<polygon fill="none" stroke="black" points="391.75,-910.3 391.75,-935.3 480.75,-935.3 480.75,-910.3 391.75,-910.3" />
<text text-anchor="start" x="396.75" y="-919.1" font-family="Helvetica,sans-Serif" font-size="14.00">Categorical</text>
<polygon fill="none" stroke="black" points="103.75,-885.3 103.75,-910.3 131.75,-910.3 131.75,-885.3 103.75,-885.3" />
<polygon fill="none" stroke="black" points="131.75,-885.3 131.75,-910.3 391.75,-910.3 391.75,-885.3 131.75,-885.3" />
<text text-anchor="start" x="136.75" y="-894.1" font-family="Helvetica,sans-Serif" font-size="14.00">integration_outcome_achieved_date</text>
<polygon fill="none" stroke="black" points="391.75,-885.3 391.75,-910.3 480.75,-910.3 480.75,-885.3 391.75,-885.3" />
<text text-anchor="start" x="419.75" y="-894.1" font-family="Helvetica,sans-Serif" font-size="14.00">Date</text>
<polygon fill="none" stroke="black" points="103.75,-860.3 103.75,-885.3 131.75,-885.3 131.75,-860.3 103.75,-860.3" />
<polygon fill="none" stroke="black" points="131.75,-860.3 131.75,-885.3 391.75,-885.3 391.75,-860.3 131.75,-860.3" />
<text text-anchor="start" x="136.75" y="-869.1" font-family="Helvetica,sans-Serif" font-size="14.00">integration_social</text>
<polygon fill="none" stroke="black" points="391.75,-860.3 391.75,-885.3 480.75,-885.3 480.75,-860.3 391.75,-860.3" />
<text text-anchor="start" x="396.75" y="-869.1" font-family="Helvetica,sans-Serif" font-size="14.00">Categorical</text>
<polygon fill="none" stroke="black" points="103.75,-835.3 103.75,-860.3 131.75,-860.3 131.75,-835.3 103.75,-835.3" />
<polygon fill="none" stroke="black" points="131.75,-835.3 131.75,-860.3 391.75,-860.3 391.75,-835.3 131.75,-835.3" />
<text text-anchor="start" x="136.75" y="-844.1" font-family="Helvetica,sans-Serif" font-size="14.00">integration_comms_language</text>
<polygon fill="none" stroke="black" points="391.75,-835.3 391.75,-860.3 480.75,-860.3 480.75,-835.3 391.75,-835.3" />
<text text-anchor="start" x="396.75" y="-844.1" font-family="Helvetica,sans-Serif" font-size="14.00">Categorical</text>
<polygon fill="none" stroke="black" points="103.75,-810.3 103.75,-835.3 131.75,-835.3 131.75,-810.3 103.75,-810.3" />
<polygon fill="none" stroke="black" points="131.75,-810.3 131.75,-835.3 391.75,-835.3 391.75,-810.3 131.75,-810.3" />
<text text-anchor="start" x="136.75" y="-819.1" font-family="Helvetica,sans-Serif" font-size="14.00">integration_digital</text>
<polygon fill="none" stroke="black" points="391.75,-810.3 391.75,-835.3 480.75,-835.3 480.75,-810.3 391.75,-810.3" />
<text text-anchor="start" x="396.75" y="-819.1" font-family="Helvetica,sans-Serif" font-size="14.00">Categorical</text>
</g>

</a><a href="{{ '/records/integration_plan--person.html' | relative_url }}"><g id="integration_plan--person" class="edge">
<title>integration_plan--person</title>
<path fill="none" stroke="#7f7f7f" stroke-dasharray="5,2" d="M416.69,-806.08C469.92,-766.37 532.28,-719.85 587.21,-678.87" />
<text text-anchor="middle" x="582.21" y="-682.67" font-family="Times,serif" font-size="14.00">1</text>
<text text-anchor="middle" x="401.19" y="-794.88" font-family="Times,serif" font-size="14.00">0..N</text>
</g>

</a><a href="{{ '/records/employment_intermediate.html' | relative_url }}"><g id="employment_intermediate" class="node">
<title>employment_intermediate</title>
<polygon fill="#f4cae4" stroke="transparent" points="391,-515.09 0,-515.09 0,-404.09 391,-404.09 391,-515.09" />
<polygon fill="none" stroke="black" points="8.5,-482.59 8.5,-510.59 383.5,-510.59 383.5,-482.59 8.5,-482.59" />
<text text-anchor="start" x="78.5" y="-493.79" font-family="Helvetica,sans-Serif" font-weight="bold" font-size="16.00">employment_intermediate</text>
<polygon fill="none" stroke="black" points="8.5,-457.59 8.5,-482.59 36.5,-482.59 36.5,-457.59 8.5,-457.59" />
<text text-anchor="start" x="13.5" y="-466.39" font-family="Helvetica,sans-Serif" font-size="14.00">PK</text>
<polygon fill="none" stroke="black" points="36.5,-457.59 36.5,-482.59 332.5,-482.59 332.5,-457.59 36.5,-457.59" />
<text text-anchor="start" x="41.5" y="-466.39" font-family="Helvetica,sans-Serif" font-size="14.00">unique_id</text>
<polygon fill="none" stroke="black" points="332.5,-457.59 332.5,-482.59 383.5,-482.59 383.5,-457.59 332.5,-457.59" />
<text text-anchor="start" x="337.5" y="-466.39" font-family="Helvetica,sans-Serif" font-size="14.00">string</text>
<polygon fill="none" stroke="black" points="8.5,-432.59 8.5,-457.59 36.5,-457.59 36.5,-432.59 8.5,-432.59" />
<polygon fill="none" stroke="black" points="36.5,-432.59 36.5,-457.59 332.5,-457.59 332.5,-432.59 36.5,-432.59" />
<text text-anchor="start" x="41.5" y="-441.39" font-family="Helvetica,sans-Serif" font-size="14.00">date_intermediate_employment_outcome</text>
<polygon fill="none" stroke="black" points="332.5,-432.59 332.5,-457.59 383.5,-457.59 383.5,-432.59 332.5,-432.59" />
<text text-anchor="start" x="341.5" y="-441.39" font-family="Helvetica,sans-Serif" font-size="14.00">Date</text>
<polygon fill="none" stroke="black" points="8.5,-407.59 8.5,-432.59 36.5,-432.59 36.5,-407.59 8.5,-407.59" />
<polygon fill="none" stroke="black" points="36.5,-407.59 36.5,-432.59 332.5,-432.59 332.5,-407.59 36.5,-407.59" />
<text text-anchor="start" x="41.5" y="-416.39" font-family="Helvetica,sans-Serif" font-size="14.00">intermediate_employment_outcome_type</text>
<polygon fill="none" stroke="black" points="332.5,-407.59 332.5,-432.59 383.5,-432.59 383.5,-407.59 332.5,-407.59" />
<text text-anchor="start" x="345.5" y="-416.39" font-family="Helvetica,sans-Serif" font-size="14.00">List</text>
</g>

</a><a href="{{ '/records/employment_intermediate--person.html' | relative_url }}"><g id="employment_intermediate--person" class="edge">
<title>employment_intermediate--person</title>
<path fill="none" stroke="#7f7f7f" stroke-dasharray="5,2" d="M391.05,-501.26C455.26,-514.95 525.4,-529.9 585.04,-542.61" />
<text text-anchor="middle" x="580.04" y="-546.41" font-family="Times,serif" font-size="14.00">1</text>
<text text-anchor="middle" x="402.55" y="-505.06" font-family="Times,serif" font-size="14.00">0,1</text>
</g>

</a><a href="{{ '/records/employment_entry.html' | relative_url }}"><g id="employment_entry" class="node">
<title>employment_entry</title>
<polygon fill="#f4cae4" stroke="transparent" points="676.07,-186 265.07,-186 265.07,0 676.07,0 676.07,-186" />
<polygon fill="none" stroke="black" points="273.57,-154 273.57,-182 668.57,-182 668.57,-154 273.57,-154" />
<text text-anchor="start" x="387.07" y="-165.2" font-family="Helvetica,sans-Serif" font-weight="bold" font-size="16.00">employment_entry</text>
<polygon fill="none" stroke="black" points="273.57,-129 273.57,-154 301.57,-154 301.57,-129 273.57,-129" />
<text text-anchor="start" x="278.57" y="-137.8" font-family="Helvetica,sans-Serif" font-size="14.00">PK</text>
<polygon fill="none" stroke="black" points="301.57,-129 301.57,-154 546.57,-154 546.57,-129 301.57,-129" />
<text text-anchor="start" x="306.57" y="-137.8" font-family="Helvetica,sans-Serif" font-size="14.00">unique_id</text>
<polygon fill="none" stroke="black" points="546.57,-129 546.57,-154 668.57,-154 668.57,-129 546.57,-129" />
<text text-anchor="start" x="587.07" y="-137.8" font-family="Helvetica,sans-Serif" font-size="14.00">string</text>
<polygon fill="none" stroke="black" points="273.57,-104 273.57,-129 301.57,-129 301.57,-104 273.57,-104" />
<polygon fill="none" stroke="black" points="301.57,-104 301.57,-129 546.57,-129 546.57,-104 301.57,-104" />
<text text-anchor="start" x="306.57" y="-112.8" font-family="Helvetica,sans-Serif" font-size="14.00">employment_entry_outcome_type</text>
<polygon fill="none" stroke="black" points="546.57,-104 546.57,-129 668.57,-129 668.57,-104 546.57,-104" />
<text text-anchor="start" x="568.07" y="-112.8" font-family="Helvetica,sans-Serif" font-size="14.00">Categorical</text>
<polygon fill="none" stroke="black" points="273.57,-79 273.57,-104 301.57,-104 301.57,-79 273.57,-79" />
<polygon fill="none" stroke="black" points="301.57,-79 301.57,-104 546.57,-104 546.57,-79 301.57,-79" />
<text text-anchor="start" x="306.57" y="-87.8" font-family="Helvetica,sans-Serif" font-size="14.00">date_employment_entry</text>
<polygon fill="none" stroke="black" points="546.57,-79 546.57,-104 668.57,-104 668.57,-79 546.57,-79" />
<text text-anchor="start" x="591.07" y="-87.8" font-family="Helvetica,sans-Serif" font-size="14.00">Date</text>
<polygon fill="none" stroke="black" points="273.57,-54 273.57,-79 301.57,-79 301.57,-54 273.57,-54" />
<polygon fill="none" stroke="black" points="301.57,-54 301.57,-79 546.57,-79 546.57,-54 301.57,-54" />
<text text-anchor="start" x="306.57" y="-62.8" font-family="Helvetica,sans-Serif" font-size="14.00">employment_entry_details</text>
<polygon fill="none" stroke="black" points="546.57,-54 546.57,-79 668.57,-79 668.57,-54 546.57,-54" />
<text text-anchor="start" x="568.07" y="-62.8" font-family="Helvetica,sans-Serif" font-size="14.00">Categorical</text>
<polygon fill="none" stroke="black" points="273.57,-29 273.57,-54 301.57,-54 301.57,-29 273.57,-29" />
<polygon fill="none" stroke="black" points="301.57,-29 301.57,-54 546.57,-54 546.57,-29 301.57,-29" />
<text text-anchor="start" x="306.57" y="-37.8" font-family="Helvetica,sans-Serif" font-size="14.00">employment_entry_occupation</text>
<polygon fill="none" stroke="black" points="546.57,-29 546.57,-54 668.57,-54 668.57,-29 546.57,-29" />
<text text-anchor="start" x="551.57" y="-37.8" font-family="Helvetica,sans-Serif" font-size="14.00">Free Text (short)</text>
<polygon fill="none" stroke="black" points="273.57,-4 273.57,-29 301.57,-29 301.57,-4 273.57,-4" />
<polygon fill="none" stroke="black" points="301.57,-4 301.57,-29 546.57,-29 546.57,-4 301.57,-4" />
<text text-anchor="start" x="306.57" y="-12.8" font-family="Helvetica,sans-Serif" font-size="14.00">employment_entry_sector</text>
<polygon fill="none" stroke="black" points="546.57,-4 546.57,-29 668.57,-29 668.57,-4 546.57,-4" />
<text text-anchor="start" x="551.57" y="-12.8" font-family="Helvetica,sans-Serif" font-size="14.00">Free Text (short)</text>
</g>

</a><a href="{{ '/records/employment_entry--person.html' | relative_url }}"><g id="employment_entry--person" class="edge">
<title>employment_entry--person</title>
<path fill="none" stroke="#7f7f7f" stroke-dasharray="5,2" d="M520.66,-186.17C564,-266.77 626.64,-383.27 671.87,-467.38" />
<text text-anchor="middle" x="666.87" y="-456.18" font-family="Times,serif" font-size="14.00">1</text>
<text text-anchor="middle" x="509.16" y="-189.97" font-family="Times,serif" font-size="14.00">0,1</text>
</g>

</a><a href="{{ '/records/employment_sustain.html' | relative_url }}"><g id="employment_sustain" class="node">
<title>employment_sustain</title>
<polygon fill="#f4cae4" stroke="transparent" points="1057.55,-97.27 734.55,-97.27 734.55,-11.27 1057.55,-11.27 1057.55,-97.27" />
<polygon fill="none" stroke="black" points="743.05,-65.27 743.05,-93.27 1050.05,-93.27 1050.05,-65.27 743.05,-65.27" />
<text text-anchor="start" x="804.05" y="-76.47" font-family="Helvetica,sans-Serif" font-weight="bold" font-size="16.00">employment_sustain</text>
<polygon fill="none" stroke="black" points="743.05,-40.27 743.05,-65.27 771.05,-65.27 771.05,-40.27 743.05,-40.27" />
<text text-anchor="start" x="748.05" y="-49.07" font-family="Helvetica,sans-Serif" font-size="14.00">PK</text>
<polygon fill="none" stroke="black" points="771.05,-40.27 771.05,-65.27 999.05,-65.27 999.05,-40.27 771.05,-40.27" />
<text text-anchor="start" x="776.05" y="-49.07" font-family="Helvetica,sans-Serif" font-size="14.00">unique_id</text>
<polygon fill="none" stroke="black" points="999.05,-40.27 999.05,-65.27 1050.05,-65.27 1050.05,-40.27 999.05,-40.27" />
<text text-anchor="start" x="1004.05" y="-49.07" font-family="Helvetica,sans-Serif" font-size="14.00">string</text>
<polygon fill="none" stroke="black" points="743.05,-15.27 743.05,-40.27 771.05,-40.27 771.05,-15.27 743.05,-15.27" />
<polygon fill="none" stroke="black" points="771.05,-15.27 771.05,-40.27 999.05,-40.27 999.05,-15.27 771.05,-15.27" />
<text text-anchor="start" x="776.05" y="-24.07" font-family="Helvetica,sans-Serif" font-size="14.00">employment_sustainment_date</text>
<polygon fill="none" stroke="black" points="999.05,-15.27 999.05,-40.27 1050.05,-40.27 1050.05,-15.27 999.05,-15.27" />
<text text-anchor="start" x="1008.05" y="-24.07" font-family="Helvetica,sans-Serif" font-size="14.00">Date</text>
</g>

</a><a href="{{ '/records/employment_sustain--person.html' | relative_url }}"><g id="employment_sustain--person" class="edge">
<title>employment_sustain--person</title>
<path fill="none" stroke="#7f7f7f" stroke-dasharray="5,2" d="M882.07,-97.62C856.05,-178.38 799.46,-353.95 762.8,-467.7" />
<text text-anchor="middle" x="757.8" y="-456.5" font-family="Times,serif" font-size="14.00">1</text>
<text text-anchor="middle" x="870.57" y="-101.42" font-family="Times,serif" font-size="14.00">0,1</text>
</g>

</a><a href="{{ '/records/date_last_seen.html' | relative_url }}"><g id="date_last_seen" class="node">
<title>date_last_seen</title>
<polygon fill="#e6f5c9" stroke="transparent" points="1270.12,-290.59 1062.12,-290.59 1062.12,-204.59 1270.12,-204.59 1270.12,-290.59" />
<polygon fill="none" stroke="black" points="1070.12,-258.59 1070.12,-286.59 1262.12,-286.59 1262.12,-258.59 1070.12,-258.59" />
<text text-anchor="start" x="1100.12" y="-269.79" font-family="Helvetica,sans-Serif" font-weight="bold" font-size="16.00">date_last_seen</text>
<polygon fill="none" stroke="black" points="1070.12,-233.59 1070.12,-258.59 1098.12,-258.59 1098.12,-233.59 1070.12,-233.59" />
<text text-anchor="start" x="1075.12" y="-242.39" font-family="Helvetica,sans-Serif" font-size="14.00">PK</text>
<polygon fill="none" stroke="black" points="1098.12,-233.59 1098.12,-258.59 1211.12,-258.59 1211.12,-233.59 1098.12,-233.59" />
<text text-anchor="start" x="1103.12" y="-242.39" font-family="Helvetica,sans-Serif" font-size="14.00">unique_id</text>
<polygon fill="none" stroke="black" points="1211.12,-233.59 1211.12,-258.59 1262.12,-258.59 1262.12,-233.59 1211.12,-233.59" />
<text text-anchor="start" x="1216.12" y="-242.39" font-family="Helvetica,sans-Serif" font-size="14.00">string</text>
<polygon fill="none" stroke="black" points="1070.12,-208.59 1070.12,-233.59 1098.12,-233.59 1098.12,-208.59 1070.12,-208.59" />
<polygon fill="none" stroke="black" points="1098.12,-208.59 1098.12,-233.59 1211.12,-233.59 1211.12,-208.59 1098.12,-208.59" />
<text text-anchor="start" x="1103.12" y="-217.39" font-family="Helvetica,sans-Serif" font-size="14.00">date_last_seen</text>
<polygon fill="none" stroke="black" points="1211.12,-208.59 1211.12,-233.59 1262.12,-233.59 1262.12,-208.59 1211.12,-208.59" />
<text text-anchor="start" x="1220.12" y="-217.39" font-family="Helvetica,sans-Serif" font-size="14.00">Date</text>
</g>

</a><a href="{{ '/records/date_last_seen--person.html' | relative_url }}"><g id="date_last_seen--person" class="edge">
<title>date_last_seen--person</title>
<path fill="none" stroke="#7f7f7f" stroke-dasharray="5,2" d="M1108.05,-290.84C1047.75,-335.73 951.15,-407.67 870.54,-467.7" />
<text text-anchor="middle" x="865.54" y="-456.5" font-family="Times,serif" font-size="14.00">1</text>
<text text-anchor="middle" x="1096.55" y="-294.64" font-family="Times,serif" font-size="14.00">0,1</text>
</g>
</a></g>
</svg>